<svg width="122" height="59" viewBox="0 0 122 59" fill="none" xmlns="http://www.w3.org/2000/svg">
<mask id="path-1-outside-1_229_323" maskUnits="userSpaceOnUse" x="-1" y="-1" width="124" height="61" fill="black">
<rect fill="white" x="-1" y="-1" width="124" height="61"/>
<path d="M31.6526 15.98V17.24C30.8926 17.4 30.1726 17.82 29.4926 18.5C28.8526 19.18 28.2326 20.38 27.6326 22.1L18.7526 46.46L16.8926 49.28L4.53258 20.6C3.77258 19.08 3.05258 18.14 2.37258 17.78C1.69258 17.42 1.13258 17.24 0.69258 17.24V15.98C1.85258 16.1 3.05258 16.2 4.29258 16.28C5.57258 16.32 6.85258 16.34 8.13258 16.34C9.61258 16.34 11.0326 16.3 12.3926 16.22C13.7926 16.14 15.0926 16.06 16.2926 15.98V17.24C15.3726 17.24 14.5526 17.3 13.8326 17.42C13.1126 17.54 12.6326 17.88 12.3926 18.44C12.1926 18.96 12.3526 19.88 12.8726 21.2L20.3726 39.5L19.8926 39.74L25.1726 25.46C25.8526 23.58 26.1326 22.06 26.0126 20.9C25.8926 19.74 25.4526 18.86 24.6926 18.26C23.9326 17.66 22.8926 17.32 21.5726 17.24V15.98C22.2126 16.02 22.8526 16.06 23.4926 16.1C24.1326 16.14 24.7526 16.18 25.3526 16.22C25.9526 16.22 26.5326 16.22 27.0926 16.22C27.9326 16.22 28.7526 16.2 29.5526 16.16C30.3926 16.12 31.0926 16.06 31.6526 15.98ZM18.7526 46.46L16.4726 52.52C16.1126 53.52 15.7126 54.36 15.2726 55.04C14.8726 55.76 14.4126 56.34 13.8926 56.78C13.2926 57.3 12.5526 57.68 11.6726 57.92C10.8326 58.16 9.89258 58.28 8.85258 58.28C7.93258 58.28 7.03258 58.12 6.15258 57.8C5.31258 57.48 4.59258 57 3.99258 56.36C3.43258 55.72 3.15258 54.88 3.15258 53.84C3.15258 52.72 3.53258 51.82 4.29258 51.14C5.05258 50.46 6.09258 50.12 7.41258 50.12C8.57258 50.12 9.51258 50.4 10.2326 50.96C10.9926 51.56 11.3726 52.44 11.3726 53.6C11.3726 54.36 11.1526 55.04 10.7126 55.64C10.2726 56.24 9.65258 56.7 8.85258 57.02C9.05258 57.06 9.23258 57.08 9.39258 57.08C9.59258 57.12 9.75258 57.14 9.87258 57.14C11.0326 57.14 12.0726 56.76 12.9926 56C13.9126 55.24 14.6526 54.04 15.2126 52.4L17.3726 46.46H18.7526ZM37.227 47.42C35.507 47.42 34.047 47.1 32.847 46.46C31.647 45.78 30.747 44.88 30.147 43.76C29.547 42.6 29.247 41.32 29.247 39.92C29.247 38.2 29.647 36.8 30.447 35.72C31.247 34.6 32.267 33.72 33.507 33.08C34.787 32.4 36.127 31.84 37.527 31.4C38.927 30.92 40.247 30.48 41.487 30.08C42.727 29.64 43.747 29.14 44.547 28.58C45.347 28.02 45.747 27.28 45.747 26.36V21.98C45.747 20.7 45.547 19.66 45.147 18.86C44.787 18.02 44.227 17.4 43.467 17C42.747 16.56 41.827 16.34 40.707 16.34C39.867 16.34 38.987 16.46 38.067 16.7C37.147 16.94 36.387 17.4 35.787 18.08C36.827 18.36 37.627 18.88 38.187 19.64C38.787 20.4 39.087 21.32 39.087 22.4C39.087 23.64 38.667 24.62 37.827 25.34C37.027 26.02 36.007 26.36 34.767 26.36C33.447 26.36 32.447 25.94 31.767 25.1C31.087 24.26 30.747 23.28 30.747 22.16C30.747 21.04 31.027 20.12 31.587 19.4C32.147 18.64 32.927 17.96 33.927 17.36C34.927 16.68 36.207 16.14 37.767 15.74C39.327 15.34 41.027 15.14 42.867 15.14C44.627 15.14 46.187 15.34 47.547 15.74C48.907 16.1 50.067 16.76 51.027 17.72C51.987 18.64 52.607 19.78 52.887 21.14C53.167 22.5 53.307 24.16 53.307 26.12V42.56C53.307 43.56 53.427 44.28 53.667 44.72C53.907 45.12 54.287 45.32 54.807 45.32C55.207 45.32 55.587 45.22 55.947 45.02C56.307 44.82 56.707 44.54 57.147 44.18L57.807 45.2C56.927 45.88 56.007 46.42 55.047 46.82C54.087 47.22 52.927 47.42 51.567 47.42C50.167 47.42 49.047 47.22 48.207 46.82C47.407 46.42 46.807 45.84 46.407 45.08C46.047 44.32 45.847 43.42 45.807 42.38C44.847 43.98 43.667 45.22 42.267 46.1C40.867 46.98 39.187 47.42 37.227 47.42ZM40.827 44.06C41.787 44.06 42.667 43.8 43.467 43.28C44.307 42.76 45.067 41.98 45.747 40.94V28.82C45.347 29.42 44.767 29.96 44.007 30.44C43.287 30.92 42.507 31.4 41.667 31.88C40.827 32.36 40.027 32.92 39.267 33.56C38.547 34.16 37.927 34.92 37.407 35.84C36.927 36.72 36.687 37.86 36.687 39.26C36.687 40.82 37.067 42.02 37.827 42.86C38.587 43.66 39.587 44.06 40.827 44.06ZM66.7915 15.14C68.4715 15.14 69.9115 15.38 71.1115 15.86C72.3115 16.34 73.1915 16.76 73.7515 17.12C75.1115 18.12 75.9315 17.48 76.2115 15.2H77.5315C77.4515 16.36 77.3915 17.74 77.3515 19.34C77.3115 20.9 77.2915 23 77.2915 25.64H75.9715C75.7715 24.16 75.3915 22.72 74.8315 21.32C74.2715 19.92 73.4515 18.76 72.3715 17.84C71.2915 16.88 69.8715 16.4 68.1115 16.4C66.8715 16.4 65.8315 16.76 64.9915 17.48C64.1915 18.2 63.7915 19.22 63.7915 20.54C63.7915 21.74 64.1515 22.8 64.8715 23.72C65.5915 24.6 66.5115 25.44 67.6315 26.24C68.7915 27 69.9915 27.84 71.2315 28.76C72.6715 29.72 73.9515 30.7 75.0715 31.7C76.1915 32.66 77.0915 33.74 77.7715 34.94C78.4515 36.1 78.7915 37.48 78.7915 39.08C78.7915 40.92 78.2715 42.5 77.2315 43.82C76.2315 45.1 74.8915 46.1 73.2115 46.82C71.5715 47.5 69.7515 47.84 67.7515 47.84C66.6715 47.84 65.6915 47.74 64.8115 47.54C63.9315 47.34 63.1515 47.08 62.4715 46.76C61.9515 46.48 61.4715 46.22 61.0315 45.98C60.6315 45.74 60.2115 45.54 59.7715 45.38C59.3715 45.18 59.0115 45.26 58.6915 45.62C58.4115 45.98 58.1915 46.58 58.0315 47.42H56.7115C56.7915 46.14 56.8515 44.58 56.8915 42.74C56.9315 40.9 56.9515 38.46 56.9515 35.42H58.2715C58.5515 37.62 58.9715 39.56 59.5315 41.24C60.1315 42.88 60.9915 44.18 62.1115 45.14C63.2315 46.06 64.6715 46.52 66.4315 46.52C67.1915 46.52 67.9115 46.36 68.5915 46.04C69.3115 45.72 69.8915 45.22 70.3315 44.54C70.8115 43.86 71.0515 42.94 71.0515 41.78C71.0515 40.02 70.4515 38.56 69.2515 37.4C68.0515 36.24 66.5515 35 64.7515 33.68C63.3915 32.68 62.1115 31.7 60.9115 30.74C59.7515 29.78 58.7915 28.7 58.0315 27.5C57.3115 26.3 56.9515 24.88 56.9515 23.24C56.9515 21.44 57.4115 19.96 58.3315 18.8C59.2515 17.6 60.4515 16.7 61.9315 16.1C63.4515 15.46 65.0715 15.14 66.7915 15.14ZM89.7734 0.0199969V21.26C90.7734 19.02 92.1534 17.44 93.9134 16.52C95.7134 15.6 97.6534 15.14 99.7334 15.14C101.373 15.14 102.713 15.36 103.753 15.8C104.793 16.24 105.633 16.8 106.273 17.48C106.953 18.24 107.433 19.22 107.713 20.42C108.033 21.62 108.193 23.24 108.193 25.28V41.42C108.193 43.1 108.493 44.24 109.093 44.84C109.733 45.44 110.793 45.74 112.273 45.74V47C111.553 46.96 110.453 46.92 108.973 46.88C107.493 46.8 106.033 46.76 104.593 46.76C103.153 46.76 101.733 46.8 100.333 46.88C98.9334 46.92 97.8734 46.96 97.1534 47V45.74C98.4334 45.74 99.3334 45.44 99.8534 44.84C100.373 44.24 100.633 43.1 100.633 41.42V23.24C100.633 22.16 100.533 21.2 100.333 20.36C100.133 19.48 99.7334 18.8 99.1334 18.32C98.5734 17.8 97.7134 17.54 96.5534 17.54C95.2734 17.54 94.1134 17.9 93.0734 18.62C92.0734 19.3 91.2734 20.28 90.6734 21.56C90.0734 22.8 89.7734 24.22 89.7734 25.82V41.42C89.7734 43.1 90.0334 44.24 90.5534 44.84C91.1134 45.44 92.0134 45.74 93.2534 45.74V47C92.5734 46.96 91.5534 46.92 90.1934 46.88C88.8734 46.8 87.4934 46.76 86.0534 46.76C84.6134 46.76 83.1134 46.8 81.5534 46.88C80.0334 46.92 78.8934 46.96 78.1334 47V45.74C79.6134 45.74 80.6534 45.44 81.2534 44.84C81.8934 44.24 82.2134 43.1 82.2134 41.42V7.22C82.2134 5.42 81.9134 4.1 81.3134 3.26C80.7534 2.38 79.6934 1.94 78.1334 1.94V0.679999C79.4134 0.799998 80.6534 0.859997 81.8534 0.859997C83.3734 0.859997 84.7934 0.799998 86.1134 0.679999C87.4334 0.519999 88.6534 0.299998 89.7734 0.0199969ZM116.807 39.08C118.167 39.08 119.287 39.48 120.167 40.28C121.047 41.08 121.487 42.14 121.487 43.46C121.487 44.78 121.047 45.84 120.167 46.64C119.287 47.44 118.167 47.84 116.807 47.84C115.407 47.84 114.267 47.44 113.387 46.64C112.547 45.84 112.127 44.78 112.127 43.46C112.127 42.14 112.547 41.08 113.387 40.28C114.267 39.48 115.407 39.08 116.807 39.08Z"/>
</mask>
<path d="M31.6526 15.98V17.24C30.8926 17.4 30.1726 17.82 29.4926 18.5C28.8526 19.18 28.2326 20.38 27.6326 22.1L18.7526 46.46L16.8926 49.28L4.53258 20.6C3.77258 19.08 3.05258 18.14 2.37258 17.78C1.69258 17.42 1.13258 17.24 0.69258 17.24V15.98C1.85258 16.1 3.05258 16.2 4.29258 16.28C5.57258 16.32 6.85258 16.34 8.13258 16.34C9.61258 16.34 11.0326 16.3 12.3926 16.22C13.7926 16.14 15.0926 16.06 16.2926 15.98V17.24C15.3726 17.24 14.5526 17.3 13.8326 17.42C13.1126 17.54 12.6326 17.88 12.3926 18.44C12.1926 18.96 12.3526 19.88 12.8726 21.2L20.3726 39.5L19.8926 39.74L25.1726 25.46C25.8526 23.58 26.1326 22.06 26.0126 20.9C25.8926 19.74 25.4526 18.86 24.6926 18.26C23.9326 17.66 22.8926 17.32 21.5726 17.24V15.98C22.2126 16.02 22.8526 16.06 23.4926 16.1C24.1326 16.14 24.7526 16.18 25.3526 16.22C25.9526 16.22 26.5326 16.22 27.0926 16.22C27.9326 16.22 28.7526 16.2 29.5526 16.16C30.3926 16.12 31.0926 16.06 31.6526 15.98ZM18.7526 46.46L16.4726 52.52C16.1126 53.52 15.7126 54.36 15.2726 55.04C14.8726 55.76 14.4126 56.34 13.8926 56.78C13.2926 57.3 12.5526 57.68 11.6726 57.92C10.8326 58.16 9.89258 58.28 8.85258 58.28C7.93258 58.28 7.03258 58.12 6.15258 57.8C5.31258 57.48 4.59258 57 3.99258 56.36C3.43258 55.72 3.15258 54.88 3.15258 53.84C3.15258 52.72 3.53258 51.82 4.29258 51.14C5.05258 50.46 6.09258 50.12 7.41258 50.12C8.57258 50.12 9.51258 50.4 10.2326 50.96C10.9926 51.56 11.3726 52.44 11.3726 53.6C11.3726 54.36 11.1526 55.04 10.7126 55.64C10.2726 56.24 9.65258 56.7 8.85258 57.02C9.05258 57.06 9.23258 57.08 9.39258 57.08C9.59258 57.12 9.75258 57.14 9.87258 57.14C11.0326 57.14 12.0726 56.76 12.9926 56C13.9126 55.24 14.6526 54.04 15.2126 52.4L17.3726 46.46H18.7526ZM37.227 47.42C35.507 47.42 34.047 47.1 32.847 46.46C31.647 45.78 30.747 44.88 30.147 43.76C29.547 42.6 29.247 41.32 29.247 39.92C29.247 38.2 29.647 36.8 30.447 35.72C31.247 34.6 32.267 33.72 33.507 33.08C34.787 32.4 36.127 31.84 37.527 31.4C38.927 30.92 40.247 30.48 41.487 30.08C42.727 29.64 43.747 29.14 44.547 28.58C45.347 28.02 45.747 27.28 45.747 26.36V21.98C45.747 20.7 45.547 19.66 45.147 18.86C44.787 18.02 44.227 17.4 43.467 17C42.747 16.56 41.827 16.34 40.707 16.34C39.867 16.34 38.987 16.46 38.067 16.7C37.147 16.94 36.387 17.4 35.787 18.08C36.827 18.36 37.627 18.88 38.187 19.64C38.787 20.4 39.087 21.32 39.087 22.4C39.087 23.64 38.667 24.62 37.827 25.34C37.027 26.02 36.007 26.36 34.767 26.36C33.447 26.36 32.447 25.94 31.767 25.1C31.087 24.26 30.747 23.28 30.747 22.16C30.747 21.04 31.027 20.12 31.587 19.4C32.147 18.64 32.927 17.96 33.927 17.36C34.927 16.68 36.207 16.14 37.767 15.74C39.327 15.34 41.027 15.14 42.867 15.14C44.627 15.14 46.187 15.34 47.547 15.74C48.907 16.1 50.067 16.76 51.027 17.72C51.987 18.64 52.607 19.78 52.887 21.14C53.167 22.5 53.307 24.16 53.307 26.12V42.56C53.307 43.56 53.427 44.28 53.667 44.72C53.907 45.12 54.287 45.32 54.807 45.32C55.207 45.32 55.587 45.22 55.947 45.02C56.307 44.82 56.707 44.54 57.147 44.18L57.807 45.2C56.927 45.88 56.007 46.42 55.047 46.82C54.087 47.22 52.927 47.42 51.567 47.42C50.167 47.42 49.047 47.22 48.207 46.82C47.407 46.42 46.807 45.84 46.407 45.08C46.047 44.32 45.847 43.42 45.807 42.38C44.847 43.98 43.667 45.22 42.267 46.1C40.867 46.98 39.187 47.42 37.227 47.42ZM40.827 44.06C41.787 44.06 42.667 43.8 43.467 43.28C44.307 42.76 45.067 41.98 45.747 40.94V28.82C45.347 29.42 44.767 29.96 44.007 30.44C43.287 30.92 42.507 31.4 41.667 31.88C40.827 32.36 40.027 32.92 39.267 33.56C38.547 34.16 37.927 34.92 37.407 35.84C36.927 36.72 36.687 37.86 36.687 39.26C36.687 40.82 37.067 42.02 37.827 42.86C38.587 43.66 39.587 44.06 40.827 44.06ZM66.7915 15.14C68.4715 15.14 69.9115 15.38 71.1115 15.86C72.3115 16.34 73.1915 16.76 73.7515 17.12C75.1115 18.12 75.9315 17.48 76.2115 15.2H77.5315C77.4515 16.36 77.3915 17.74 77.3515 19.34C77.3115 20.9 77.2915 23 77.2915 25.64H75.9715C75.7715 24.16 75.3915 22.72 74.8315 21.32C74.2715 19.92 73.4515 18.76 72.3715 17.84C71.2915 16.88 69.8715 16.4 68.1115 16.4C66.8715 16.4 65.8315 16.76 64.9915 17.48C64.1915 18.2 63.7915 19.22 63.7915 20.54C63.7915 21.74 64.1515 22.8 64.8715 23.72C65.5915 24.6 66.5115 25.44 67.6315 26.24C68.7915 27 69.9915 27.84 71.2315 28.76C72.6715 29.72 73.9515 30.7 75.0715 31.7C76.1915 32.66 77.0915 33.74 77.7715 34.94C78.4515 36.1 78.7915 37.48 78.7915 39.08C78.7915 40.92 78.2715 42.5 77.2315 43.82C76.2315 45.1 74.8915 46.1 73.2115 46.82C71.5715 47.5 69.7515 47.84 67.7515 47.84C66.6715 47.84 65.6915 47.74 64.8115 47.54C63.9315 47.34 63.1515 47.08 62.4715 46.76C61.9515 46.48 61.4715 46.22 61.0315 45.98C60.6315 45.74 60.2115 45.54 59.7715 45.38C59.3715 45.18 59.0115 45.26 58.6915 45.62C58.4115 45.98 58.1915 46.58 58.0315 47.42H56.7115C56.7915 46.14 56.8515 44.58 56.8915 42.74C56.9315 40.9 56.9515 38.46 56.9515 35.42H58.2715C58.5515 37.62 58.9715 39.56 59.5315 41.24C60.1315 42.88 60.9915 44.18 62.1115 45.14C63.2315 46.06 64.6715 46.52 66.4315 46.52C67.1915 46.52 67.9115 46.36 68.5915 46.04C69.3115 45.72 69.8915 45.22 70.3315 44.54C70.8115 43.86 71.0515 42.94 71.0515 41.78C71.0515 40.02 70.4515 38.56 69.2515 37.4C68.0515 36.24 66.5515 35 64.7515 33.68C63.3915 32.68 62.1115 31.7 60.9115 30.74C59.7515 29.78 58.7915 28.7 58.0315 27.5C57.3115 26.3 56.9515 24.88 56.9515 23.24C56.9515 21.44 57.4115 19.96 58.3315 18.8C59.2515 17.6 60.4515 16.7 61.9315 16.1C63.4515 15.46 65.0715 15.14 66.7915 15.14ZM89.7734 0.0199969V21.26C90.7734 19.02 92.1534 17.44 93.9134 16.52C95.7134 15.6 97.6534 15.14 99.7334 15.14C101.373 15.14 102.713 15.36 103.753 15.8C104.793 16.24 105.633 16.8 106.273 17.48C106.953 18.24 107.433 19.22 107.713 20.42C108.033 21.62 108.193 23.24 108.193 25.28V41.42C108.193 43.1 108.493 44.24 109.093 44.84C109.733 45.44 110.793 45.74 112.273 45.74V47C111.553 46.96 110.453 46.92 108.973 46.88C107.493 46.8 106.033 46.76 104.593 46.76C103.153 46.76 101.733 46.8 100.333 46.88C98.9334 46.92 97.8734 46.96 97.1534 47V45.74C98.4334 45.74 99.3334 45.44 99.8534 44.84C100.373 44.24 100.633 43.1 100.633 41.42V23.24C100.633 22.16 100.533 21.2 100.333 20.36C100.133 19.48 99.7334 18.8 99.1334 18.32C98.5734 17.8 97.7134 17.54 96.5534 17.54C95.2734 17.54 94.1134 17.9 93.0734 18.62C92.0734 19.3 91.2734 20.28 90.6734 21.56C90.0734 22.8 89.7734 24.22 89.7734 25.82V41.42C89.7734 43.1 90.0334 44.24 90.5534 44.84C91.1134 45.44 92.0134 45.74 93.2534 45.74V47C92.5734 46.96 91.5534 46.92 90.1934 46.88C88.8734 46.8 87.4934 46.76 86.0534 46.76C84.6134 46.76 83.1134 46.8 81.5534 46.88C80.0334 46.92 78.8934 46.96 78.1334 47V45.74C79.6134 45.74 80.6534 45.44 81.2534 44.84C81.8934 44.24 82.2134 43.1 82.2134 41.42V7.22C82.2134 5.42 81.9134 4.1 81.3134 3.26C80.7534 2.38 79.6934 1.94 78.1334 1.94V0.679999C79.4134 0.799998 80.6534 0.859997 81.8534 0.859997C83.3734 0.859997 84.7934 0.799998 86.1134 0.679999C87.4334 0.519999 88.6534 0.299998 89.7734 0.0199969ZM116.807 39.08C118.167 39.08 119.287 39.48 120.167 40.28C121.047 41.08 121.487 42.14 121.487 43.46C121.487 44.78 121.047 45.84 120.167 46.64C119.287 47.44 118.167 47.84 116.807 47.84C115.407 47.84 114.267 47.44 113.387 46.64C112.547 45.84 112.127 44.78 112.127 43.46C112.127 42.14 112.547 41.08 113.387 40.28C114.267 39.48 115.407 39.08 116.807 39.08Z" fill="#0B7DA5"/>
<path d="M31.6526 15.98H32.6526C32.6526 15.6901 32.5268 15.4145 32.3078 15.2245C32.0888 15.0346 31.7981 14.9491 31.5112 14.99L31.6526 15.98ZM31.6526 17.24L31.8586 18.2185C32.3213 18.1211 32.6526 17.7129 32.6526 17.24H31.6526ZM29.4926 18.5L28.7855 17.7929C28.7783 17.8 28.7713 17.8073 28.7644 17.8146L29.4926 18.5ZM27.6326 22.1L28.5722 22.4425L28.5768 22.4294L27.6326 22.1ZM18.7526 46.46L19.5874 47.0106C19.6303 46.9455 19.6654 46.8757 19.6921 46.8025L18.7526 46.46ZM16.8926 49.28L15.9742 49.6758C16.1197 50.0133 16.4385 50.2438 16.8046 50.2761C17.1707 50.3084 17.525 50.1374 17.7274 49.8306L16.8926 49.28ZM4.53258 20.6L5.45093 20.2042C5.44344 20.1869 5.43547 20.1697 5.42701 20.1528L4.53258 20.6ZM2.37258 17.78L2.84047 16.8962L2.37258 17.78ZM0.69258 17.24H-0.30742C-0.30742 17.7923 0.140295 18.24 0.69258 18.24V17.24ZM0.69258 15.98L0.795479 14.9853C0.513859 14.9562 0.233087 15.0478 0.0228408 15.2374C-0.187406 15.427 -0.30742 15.6969 -0.30742 15.98H0.69258ZM4.29258 16.28L4.2282 17.2779C4.23924 17.2786 4.25029 17.2792 4.26135 17.2795L4.29258 16.28ZM12.3926 16.22L12.3355 15.2216L12.3339 15.2217L12.3926 16.22ZM16.2926 15.98H17.2926C17.2926 15.7032 17.1779 15.4388 16.9758 15.2498C16.7737 15.0607 16.5022 14.9638 16.2261 14.9822L16.2926 15.98ZM16.2926 17.24V18.24C16.8449 18.24 17.2926 17.7923 17.2926 17.24H16.2926ZM13.8326 17.42L13.6682 16.4336H13.6682L13.8326 17.42ZM12.3926 18.44L11.4734 18.0461C11.4685 18.0576 11.4637 18.0693 11.4592 18.081L12.3926 18.44ZM12.8726 21.2L11.9421 21.5666L11.9473 21.5792L12.8726 21.2ZM20.3726 39.5L20.8198 40.3944C21.2879 40.1604 21.4963 39.605 21.2979 39.1208L20.3726 39.5ZM19.8926 39.74L18.9546 39.3932C18.8123 39.7781 18.9196 40.2109 19.2252 40.4847C19.5308 40.7586 19.9727 40.8179 20.3398 40.6344L19.8926 39.74ZM25.1726 25.46L26.1105 25.8068L26.113 25.8001L25.1726 25.46ZM26.0126 20.9L27.0073 20.7971V20.7971L26.0126 20.9ZM24.6926 18.26L25.3122 17.4751L24.6926 18.26ZM21.5726 17.24H20.5726C20.5726 17.7688 20.9843 18.2062 21.5121 18.2382L21.5726 17.24ZM21.5726 15.98L21.635 14.9819C21.3594 14.9647 21.0891 15.0622 20.8879 15.2512C20.6867 15.4402 20.5726 15.7039 20.5726 15.98H21.5726ZM23.4926 16.1L23.555 15.1019H23.555L23.4926 16.1ZM25.3526 16.22L25.2861 17.2178C25.3082 17.2193 25.3304 17.22 25.3526 17.22V16.22ZM29.5526 16.16L29.505 15.1611L29.5026 15.1612L29.5526 16.16ZM18.7526 46.46L19.6885 46.8121C19.8041 46.505 19.7616 46.1607 19.5748 45.8909C19.388 45.621 19.0808 45.46 18.7526 45.46V46.46ZM16.4726 52.52L15.5366 52.1679C15.535 52.1723 15.5333 52.1768 15.5317 52.1813L16.4726 52.52ZM15.2726 55.04L14.433 54.4967C14.4208 54.5156 14.4093 54.5348 14.3984 54.5544L15.2726 55.04ZM13.8926 56.78L13.2466 56.0166L13.2376 56.0243L13.8926 56.78ZM11.6726 57.92L11.4094 56.9552L11.3979 56.9585L11.6726 57.92ZM6.15258 57.8L5.79658 58.7345C5.80132 58.7363 5.80607 58.7381 5.81084 58.7398L6.15258 57.8ZM3.99258 56.36L3.24 57.0185C3.24754 57.0271 3.25522 57.0356 3.26304 57.0439L3.99258 56.36ZM4.29258 51.14L4.95937 51.8852H4.95937L4.29258 51.14ZM10.2326 50.96L10.8522 50.1751L10.8465 50.1706L10.2326 50.96ZM10.7126 55.64L9.90618 55.0486H9.90617L10.7126 55.64ZM8.85258 57.02L8.48119 56.0915C8.07031 56.2559 7.81631 56.6707 7.85677 57.1114C7.89723 57.5521 8.22252 57.9138 8.65646 58.0006L8.85258 57.02ZM9.39258 57.08L9.5887 56.0994C9.52412 56.0865 9.45843 56.08 9.39258 56.08V57.08ZM12.9926 56L12.3557 55.229L12.9926 56ZM15.2126 52.4L14.2728 52.0583C14.2705 52.0644 14.2684 52.0706 14.2662 52.0769L15.2126 52.4ZM17.3726 46.46V45.46C16.9521 45.46 16.5765 45.7231 16.4328 46.1183L17.3726 46.46ZM30.6526 15.98V17.24H32.6526V15.98H30.6526ZM31.4466 16.2614C30.456 16.47 29.5699 17.0085 28.7855 17.7929L30.1997 19.2071C30.7753 18.6315 31.3292 18.33 31.8586 18.2185L31.4466 16.2614ZM28.7644 17.8146C27.9746 18.6538 27.2989 20.0204 26.6884 21.7706L28.5768 22.4294C29.1662 20.7396 29.7306 19.7062 30.2208 19.1854L28.7644 17.8146ZM26.6931 21.7575L17.8131 46.1175L19.6921 46.8025L28.5721 22.4425L26.6931 21.7575ZM17.9178 45.9094L16.0578 48.7294L17.7274 49.8306L19.5874 47.0106L17.9178 45.9094ZM17.8109 48.8842L5.45093 20.2042L3.61423 20.9958L15.9742 49.6758L17.8109 48.8842ZM5.42701 20.1528C5.02977 19.3583 4.62762 18.6837 4.21646 18.1469C3.81144 17.6181 3.35767 17.17 2.84047 16.8962L1.90469 18.6638C2.06749 18.75 2.31372 18.9519 2.6287 19.3631C2.93754 19.7663 3.27539 20.3217 3.63815 21.0472L5.42701 20.1528ZM2.84047 16.8962C2.10942 16.5092 1.3758 16.24 0.69258 16.24V18.24C0.889357 18.24 1.27574 18.3308 1.90469 18.6638L2.84047 16.8962ZM1.69258 17.24V15.98H-0.30742V17.24H1.69258ZM0.58968 16.9747C1.7633 17.0961 2.97617 17.1971 4.2282 17.2779L4.35696 15.2821C3.12899 15.2029 1.94186 15.1039 0.795479 14.9853L0.58968 16.9747ZM4.26135 17.2795C5.55175 17.3198 6.84216 17.34 8.13258 17.34V15.34C6.863 15.34 5.59341 15.3202 4.32381 15.2805L4.26135 17.2795ZM8.13258 17.34C9.63051 17.34 11.0702 17.2995 12.4513 17.2183L12.3339 15.2217C10.995 15.3005 9.59465 15.34 8.13258 15.34V17.34ZM12.4496 17.2184C13.8523 17.1382 15.1555 17.058 16.3591 16.9778L16.2261 14.9822C15.0297 15.062 13.7329 15.1418 12.3355 15.2216L12.4496 17.2184ZM15.2926 15.98V17.24H17.2926V15.98H15.2926ZM16.2926 16.24C15.331 16.24 14.4544 16.3026 13.6682 16.4336L13.997 18.4064C14.6508 18.2974 15.4142 18.24 16.2926 18.24V16.24ZM13.6682 16.4336C12.6892 16.5968 11.8758 17.1073 11.4734 18.0461L13.3117 18.8339C13.3894 18.6527 13.536 18.4832 13.997 18.4064L13.6682 16.4336ZM11.4592 18.081C11.2641 18.5884 11.285 19.1601 11.3774 19.6913C11.4733 20.243 11.6687 20.8724 11.9422 21.5665L13.803 20.8335C13.5564 20.2076 13.4119 19.717 13.3478 19.3487C13.3161 19.1662 13.307 19.0299 13.3097 18.9328C13.3124 18.8347 13.3266 18.7973 13.3259 18.799L11.4592 18.081ZM11.9473 21.5792L19.4473 39.8792L21.2979 39.1208L13.7979 20.8208L11.9473 21.5792ZM19.9254 38.6056L19.4454 38.8456L20.3398 40.6344L20.8198 40.3944L19.9254 38.6056ZM20.8305 40.0868L26.1105 25.8068L24.2346 25.1132L18.9546 39.3932L20.8305 40.0868ZM26.113 25.8001C26.8126 23.866 27.1501 22.1781 27.0073 20.7971L25.0179 21.0029C25.115 21.9419 24.8926 23.294 24.2322 25.1199L26.113 25.8001ZM27.0073 20.7971C26.8656 19.4274 26.3266 18.2759 25.3122 17.4751L24.0729 19.0449C24.5786 19.4441 24.9196 20.0526 25.0179 21.0029L27.0073 20.7971ZM25.3122 17.4751C24.343 16.7099 23.0841 16.3298 21.6331 16.2418L21.5121 18.2382C22.7011 18.3102 23.5222 18.6101 24.0729 19.0449L25.3122 17.4751ZM22.5726 17.24V15.98H20.5726V17.24H22.5726ZM21.5102 16.9781C22.1502 17.0181 22.7902 17.0581 23.4302 17.098L23.555 15.1019C22.915 15.0619 22.275 15.0219 21.635 14.9819L21.5102 16.9781ZM23.4302 17.098C24.0689 17.138 24.6875 17.1779 25.2861 17.2178L25.4191 15.2222C24.8176 15.1821 24.1963 15.142 23.555 15.1019L23.4302 17.098ZM25.3526 17.22C25.3538 17.22 25.3549 17.22 25.3561 17.22C25.3573 17.22 25.3584 17.22 25.3596 17.22C25.3608 17.22 25.362 17.22 25.3631 17.22C25.3643 17.22 25.3655 17.22 25.3666 17.22C25.3678 17.22 25.369 17.22 25.3702 17.22C25.3713 17.22 25.3725 17.22 25.3737 17.22C25.3748 17.22 25.376 17.22 25.3772 17.22C25.3783 17.22 25.3795 17.22 25.3807 17.22C25.3819 17.22 25.383 17.22 25.3842 17.22C25.3854 17.22 25.3865 17.22 25.3877 17.22C25.3889 17.22 25.3901 17.22 25.3912 17.22C25.3924 17.22 25.3936 17.22 25.3947 17.22C25.3959 17.22 25.3971 17.22 25.3982 17.22C25.3994 17.22 25.4006 17.22 25.4018 17.22C25.4029 17.22 25.4041 17.22 25.4053 17.22C25.4064 17.22 25.4076 17.22 25.4088 17.22C25.4099 17.22 25.4111 17.22 25.4123 17.22C25.4135 17.22 25.4146 17.22 25.4158 17.22C25.417 17.22 25.4181 17.22 25.4193 17.22C25.4205 17.22 25.4216 17.22 25.4228 17.22C25.424 17.22 25.4251 17.22 25.4263 17.22C25.4275 17.22 25.4286 17.22 25.4298 17.22C25.431 17.22 25.4322 17.22 25.4333 17.22C25.4345 17.22 25.4357 17.22 25.4368 17.22C25.438 17.22 25.4392 17.22 25.4403 17.22C25.4415 17.22 25.4427 17.22 25.4438 17.22C25.445 17.22 25.4462 17.22 25.4473 17.22C25.4485 17.22 25.4497 17.22 25.4508 17.22C25.452 17.22 25.4532 17.22 25.4543 17.22C25.4555 17.22 25.4567 17.22 25.4578 17.22C25.459 17.22 25.4602 17.22 25.4613 17.22C25.4625 17.22 25.4637 17.22 25.4648 17.22C25.466 17.22 25.4672 17.22 25.4683 17.22C25.4695 17.22 25.4707 17.22 25.4718 17.22C25.473 17.22 25.4742 17.22 25.4753 17.22C25.4765 17.22 25.4777 17.22 25.4788 17.22C25.48 17.22 25.4812 17.22 25.4823 17.22C25.4835 17.22 25.4847 17.22 25.4858 17.22C25.487 17.22 25.4882 17.22 25.4893 17.22C25.4905 17.22 25.4917 17.22 25.4928 17.22C25.494 17.22 25.4952 17.22 25.4963 17.22C25.4975 17.22 25.4987 17.22 25.4998 17.22C25.501 17.22 25.5022 17.22 25.5033 17.22C25.5045 17.22 25.5057 17.22 25.5068 17.22C25.508 17.22 25.5092 17.22 25.5103 17.22C25.5115 17.22 25.5126 17.22 25.5138 17.22C25.515 17.22 25.5161 17.22 25.5173 17.22C25.5185 17.22 25.5196 17.22 25.5208 17.22C25.522 17.22 25.5231 17.22 25.5243 17.22C25.5255 17.22 25.5266 17.22 25.5278 17.22C25.529 17.22 25.5301 17.22 25.5313 17.22C25.5324 17.22 25.5336 17.22 25.5348 17.22C25.5359 17.22 25.5371 17.22 25.5383 17.22C25.5394 17.22 25.5406 17.22 25.5418 17.22C25.5429 17.22 25.5441 17.22 25.5452 17.22C25.5464 17.22 25.5476 17.22 25.5487 17.22C25.5499 17.22 25.5511 17.22 25.5522 17.22C25.5534 17.22 25.5546 17.22 25.5557 17.22C25.5569 17.22 25.558 17.22 25.5592 17.22C25.5604 17.22 25.5615 17.22 25.5627 17.22C25.5639 17.22 25.565 17.22 25.5662 17.22C25.5673 17.22 25.5685 17.22 25.5697 17.22C25.5708 17.22 25.572 17.22 25.5732 17.22C25.5743 17.22 25.5755 17.22 25.5766 17.22C25.5778 17.22 25.579 17.22 25.5801 17.22C25.5813 17.22 25.5825 17.22 25.5836 17.22C25.5848 17.22 25.5859 17.22 25.5871 17.22C25.5883 17.22 25.5894 17.22 25.5906 17.22C25.5917 17.22 25.5929 17.22 25.5941 17.22C25.5952 17.22 25.5964 17.22 25.5976 17.22C25.5987 17.22 25.5999 17.22 25.601 17.22C25.6022 17.22 25.6034 17.22 25.6045 17.22C25.6057 17.22 25.6068 17.22 25.608 17.22C25.6092 17.22 25.6103 17.22 25.6115 17.22C25.6126 17.22 25.6138 17.22 25.615 17.22C25.6161 17.22 25.6173 17.22 25.6184 17.22C25.6196 17.22 25.6208 17.22 25.6219 17.22C25.6231 17.22 25.6242 17.22 25.6254 17.22C25.6266 17.22 25.6277 17.22 25.6289 17.22C25.63 17.22 25.6312 17.22 25.6324 17.22C25.6335 17.22 25.6347 17.22 25.6358 17.22C25.637 17.22 25.6382 17.22 25.6393 17.22C25.6405 17.22 25.6416 17.22 25.6428 17.22C25.644 17.22 25.6451 17.22 25.6463 17.22C25.6474 17.22 25.6486 17.22 25.6498 17.22C25.6509 17.22 25.6521 17.22 25.6532 17.22C25.6544 17.22 25.6556 17.22 25.6567 17.22C25.6579 17.22 25.659 17.22 25.6602 17.22C25.6613 17.22 25.6625 17.22 25.6637 17.22C25.6648 17.22 25.666 17.22 25.6671 17.22C25.6683 17.22 25.6694 17.22 25.6706 17.22C25.6718 17.22 25.6729 17.22 25.6741 17.22C25.6752 17.22 25.6764 17.22 25.6776 17.22C25.6787 17.22 25.6799 17.22 25.681 17.22C25.6822 17.22 25.6833 17.22 25.6845 17.22C25.6857 17.22 25.6868 17.22 25.688 17.22C25.6891 17.22 25.6903 17.22 25.6914 17.22C25.6926 17.22 25.6938 17.22 25.6949 17.22C25.6961 17.22 25.6972 17.22 25.6984 17.22C25.6995 17.22 25.7007 17.22 25.7019 17.22C25.703 17.22 25.7042 17.22 25.7053 17.22C25.7065 17.22 25.7076 17.22 25.7088 17.22C25.7099 17.22 25.7111 17.22 25.7123 17.22C25.7134 17.22 25.7146 17.22 25.7157 17.22C25.7169 17.22 25.718 17.22 25.7192 17.22C25.7204 17.22 25.7215 17.22 25.7227 17.22C25.7238 17.22 25.725 17.22 25.7261 17.22C25.7273 17.22 25.7284 17.22 25.7296 17.22C25.7308 17.22 25.7319 17.22 25.7331 17.22C25.7342 17.22 25.7354 17.22 25.7365 17.22C25.7377 17.22 25.7388 17.22 25.74 17.22C25.7411 17.22 25.7423 17.22 25.7435 17.22C25.7446 17.22 25.7458 17.22 25.7469 17.22C25.7481 17.22 25.7492 17.22 25.7504 17.22C25.7515 17.22 25.7527 17.22 25.7539 17.22C25.755 17.22 25.7562 17.22 25.7573 17.22C25.7585 17.22 25.7596 17.22 25.7608 17.22C25.7619 17.22 25.7631 17.22 25.7642 17.22C25.7654 17.22 25.7665 17.22 25.7677 17.22C25.7689 17.22 25.77 17.22 25.7712 17.22C25.7723 17.22 25.7735 17.22 25.7746 17.22C25.7758 17.22 25.7769 17.22 25.7781 17.22C25.7792 17.22 25.7804 17.22 25.7815 17.22C25.7827 17.22 25.7838 17.22 25.785 17.22C25.7862 17.22 25.7873 17.22 25.7885 17.22C25.7896 17.22 25.7908 17.22 25.7919 17.22C25.7931 17.22 25.7942 17.22 25.7954 17.22C25.7965 17.22 25.7977 17.22 25.7988 17.22C25.8 17.22 25.8011 17.22 25.8023 17.22C25.8034 17.22 25.8046 17.22 25.8057 17.22C25.8069 17.22 25.808 17.22 25.8092 17.22C25.8104 17.22 25.8115 17.22 25.8127 17.22C25.8138 17.22 25.815 17.22 25.8161 17.22C25.8173 17.22 25.8184 17.22 25.8196 17.22C25.8207 17.22 25.8219 17.22 25.823 17.22C25.8242 17.22 25.8253 17.22 25.8265 17.22C25.8276 17.22 25.8288 17.22 25.8299 17.22C25.8311 17.22 25.8322 17.22 25.8334 17.22C25.8345 17.22 25.8357 17.22 25.8368 17.22C25.838 17.22 25.8391 17.22 25.8403 17.22C25.8414 17.22 25.8426 17.22 25.8437 17.22C25.8449 17.22 25.846 17.22 25.8472 17.22C25.8483 17.22 25.8495 17.22 25.8506 17.22C25.8518 17.22 25.8529 17.22 25.8541 17.22C25.8552 17.22 25.8564 17.22 25.8575 17.22C25.8587 17.22 25.8598 17.22 25.861 17.22C25.8621 17.22 25.8633 17.22 25.8644 17.22C25.8656 17.22 25.8667 17.22 25.8679 17.22C25.869 17.22 25.8702 17.22 25.8713 17.22C25.8725 17.22 25.8736 17.22 25.8748 17.22C25.8759 17.22 25.8771 17.22 25.8782 17.22C25.8794 17.22 25.8805 17.22 25.8817 17.22C25.8828 17.22 25.884 17.22 25.8851 17.22C25.8863 17.22 25.8874 17.22 25.8886 17.22C25.8897 17.22 25.8909 17.22 25.892 17.22C25.8932 17.22 25.8943 17.22 25.8954 17.22C25.8966 17.22 25.8977 17.22 25.8989 17.22C25.9 17.22 25.9012 17.22 25.9023 17.22C25.9035 17.22 25.9046 17.22 25.9058 17.22C25.9069 17.22 25.9081 17.22 25.9092 17.22C25.9104 17.22 25.9115 17.22 25.9127 17.22C25.9138 17.22 25.915 17.22 25.9161 17.22C25.9173 17.22 25.9184 17.22 25.9195 17.22C25.9207 17.22 25.9218 17.22 25.923 17.22C25.9241 17.22 25.9253 17.22 25.9264 17.22C25.9276 17.22 25.9287 17.22 25.9299 17.22C25.931 17.22 25.9322 17.22 25.9333 17.22C25.9345 17.22 25.9356 17.22 25.9367 17.22C25.9379 17.22 25.939 17.22 25.9402 17.22C25.9413 17.22 25.9425 17.22 25.9436 17.22C25.9448 17.22 25.9459 17.22 25.9471 17.22C25.9482 17.22 25.9494 17.22 25.9505 17.22C25.9516 17.22 25.9528 17.22 25.9539 17.22C25.9551 17.22 25.9562 17.22 25.9574 17.22C25.9585 17.22 25.9597 17.22 25.9608 17.22C25.962 17.22 25.9631 17.22 25.9642 17.22C25.9654 17.22 25.9665 17.22 25.9677 17.22C25.9688 17.22 25.97 17.22 25.9711 17.22C25.9723 17.22 25.9734 17.22 25.9745 17.22C25.9757 17.22 25.9768 17.22 25.978 17.22C25.9791 17.22 25.9803 17.22 25.9814 17.22C25.9826 17.22 25.9837 17.22 25.9848 17.22C25.986 17.22 25.9871 17.22 25.9883 17.22C25.9894 17.22 25.9906 17.22 25.9917 17.22C25.9928 17.22 25.994 17.22 25.9951 17.22C25.9963 17.22 25.9974 17.22 25.9986 17.22C25.9997 17.22 26.0009 17.22 26.002 17.22C26.0031 17.22 26.0043 17.22 26.0054 17.22C26.0066 17.22 26.0077 17.22 26.0089 17.22C26.01 17.22 26.0111 17.22 26.0123 17.22C26.0134 17.22 26.0146 17.22 26.0157 17.22C26.0169 17.22 26.018 17.22 26.0191 17.22C26.0203 17.22 26.0214 17.22 26.0226 17.22C26.0237 17.22 26.0249 17.22 26.026 17.22C26.0271 17.22 26.0283 17.22 26.0294 17.22C26.0306 17.22 26.0317 17.22 26.0329 17.22C26.034 17.22 26.0351 17.22 26.0363 17.22C26.0374 17.22 26.0386 17.22 26.0397 17.22C26.0408 17.22 26.042 17.22 26.0431 17.22C26.0443 17.22 26.0454 17.22 26.0466 17.22C26.0477 17.22 26.0488 17.22 26.05 17.22C26.0511 17.22 26.0523 17.22 26.0534 17.22C26.0545 17.22 26.0557 17.22 26.0568 17.22C26.058 17.22 26.0591 17.22 26.0602 17.22C26.0614 17.22 26.0625 17.22 26.0637 17.22C26.0648 17.22 26.0659 17.22 26.0671 17.22C26.0682 17.22 26.0694 17.22 26.0705 17.22C26.0716 17.22 26.0728 17.22 26.0739 17.22C26.0751 17.22 26.0762 17.22 26.0773 17.22C26.0785 17.22 26.0796 17.22 26.0808 17.22C26.0819 17.22 26.083 17.22 26.0842 17.22C26.0853 17.22 26.0865 17.22 26.0876 17.22C26.0887 17.22 26.0899 17.22 26.091 17.22C26.0922 17.22 26.0933 17.22 26.0944 17.22C26.0956 17.22 26.0967 17.22 26.0979 17.22C26.099 17.22 26.1001 17.22 26.1013 17.22C26.1024 17.22 26.1036 17.22 26.1047 17.22C26.1058 17.22 26.107 17.22 26.1081 17.22C26.1092 17.22 26.1104 17.22 26.1115 17.22C26.1127 17.22 26.1138 17.22 26.1149 17.22C26.1161 17.22 26.1172 17.22 26.1184 17.22C26.1195 17.22 26.1206 17.22 26.1218 17.22C26.1229 17.22 26.124 17.22 26.1252 17.22C26.1263 17.22 26.1275 17.22 26.1286 17.22C26.1297 17.22 26.1309 17.22 26.132 17.22C26.1331 17.22 26.1343 17.22 26.1354 17.22C26.1366 17.22 26.1377 17.22 26.1388 17.22C26.14 17.22 26.1411 17.22 26.1422 17.22C26.1434 17.22 26.1445 17.22 26.1457 17.22C26.1468 17.22 26.1479 17.22 26.1491 17.22C26.1502 17.22 26.1513 17.22 26.1525 17.22C26.1536 17.22 26.1547 17.22 26.1559 17.22C26.157 17.22 26.1582 17.22 26.1593 17.22C26.1604 17.22 26.1616 17.22 26.1627 17.22C26.1638 17.22 26.165 17.22 26.1661 17.22C26.1672 17.22 26.1684 17.22 26.1695 17.22C26.1707 17.22 26.1718 17.22 26.1729 17.22C26.1741 17.22 26.1752 17.22 26.1763 17.22C26.1775 17.22 26.1786 17.22 26.1797 17.22C26.1809 17.22 26.182 17.22 26.1831 17.22C26.1843 17.22 26.1854 17.22 26.1866 17.22C26.1877 17.22 26.1888 17.22 26.19 17.22C26.1911 17.22 26.1922 17.22 26.1934 17.22C26.1945 17.22 26.1956 17.22 26.1968 17.22C26.1979 17.22 26.199 17.22 26.2002 17.22C26.2013 17.22 26.2024 17.22 26.2036 17.22C26.2047 17.22 26.2058 17.22 26.207 17.22C26.2081 17.22 26.2092 17.22 26.2104 17.22C26.2115 17.22 26.2126 17.22 26.2138 17.22C26.2149 17.22 26.216 17.22 26.2172 17.22C26.2183 17.22 26.2194 17.22 26.2206 17.22C26.2217 17.22 26.2228 17.22 26.224 17.22C26.2251 17.22 26.2262 17.22 26.2274 17.22C26.2285 17.22 26.2296 17.22 26.2308 17.22C26.2319 17.22 26.233 17.22 26.2342 17.22C26.2353 17.22 26.2364 17.22 26.2376 17.22C26.2387 17.22 26.2398 17.22 26.241 17.22C26.2421 17.22 26.2432 17.22 26.2444 17.22C26.2455 17.22 26.2466 17.22 26.2478 17.22C26.2489 17.22 26.25 17.22 26.2512 17.22C26.2523 17.22 26.2534 17.22 26.2546 17.22C26.2557 17.22 26.2568 17.22 26.258 17.22C26.2591 17.22 26.2602 17.22 26.2614 17.22C26.2625 17.22 26.2636 17.22 26.2648 17.22C26.2659 17.22 26.267 17.22 26.2681 17.22C26.2693 17.22 26.2704 17.22 26.2715 17.22C26.2727 17.22 26.2738 17.22 26.2749 17.22C26.2761 17.22 26.2772 17.22 26.2783 17.22C26.2795 17.22 26.2806 17.22 26.2817 17.22C26.2829 17.22 26.284 17.22 26.2851 17.22C26.2862 17.22 26.2874 17.22 26.2885 17.22C26.2896 17.22 26.2908 17.22 26.2919 17.22C26.293 17.22 26.2942 17.22 26.2953 17.22C26.2964 17.22 26.2975 17.22 26.2987 17.22C26.2998 17.22 26.3009 17.22 26.3021 17.22C26.3032 17.22 26.3043 17.22 26.3055 17.22C26.3066 17.22 26.3077 17.22 26.3088 17.22C26.31 17.22 26.3111 17.22 26.3122 17.22C26.3134 17.22 26.3145 17.22 26.3156 17.22C26.3168 17.22 26.3179 17.22 26.319 17.22C26.3201 17.22 26.3213 17.22 26.3224 17.22C26.3235 17.22 26.3247 17.22 26.3258 17.22C26.3269 17.22 26.328 17.22 26.3292 17.22C26.3303 17.22 26.3314 17.22 26.3326 17.22C26.3337 17.22 26.3348 17.22 26.3359 17.22C26.3371 17.22 26.3382 17.22 26.3393 17.22C26.3405 17.22 26.3416 17.22 26.3427 17.22C26.3438 17.22 26.345 17.22 26.3461 17.22C26.3472 17.22 26.3484 17.22 26.3495 17.22C26.3506 17.22 26.3517 17.22 26.3529 17.22C26.354 17.22 26.3551 17.22 26.3562 17.22C26.3574 17.22 26.3585 17.22 26.3596 17.22C26.3608 17.22 26.3619 17.22 26.363 17.22C26.3641 17.22 26.3653 17.22 26.3664 17.22C26.3675 17.22 26.3686 17.22 26.3698 17.22C26.3709 17.22 26.372 17.22 26.3732 17.22C26.3743 17.22 26.3754 17.22 26.3765 17.22C26.3777 17.22 26.3788 17.22 26.3799 17.22C26.381 17.22 26.3822 17.22 26.3833 17.22C26.3844 17.22 26.3855 17.22 26.3867 17.22C26.3878 17.22 26.3889 17.22 26.39 17.22C26.3912 17.22 26.3923 17.22 26.3934 17.22C26.3946 17.22 26.3957 17.22 26.3968 17.22C26.3979 17.22 26.3991 17.22 26.4002 17.22C26.4013 17.22 26.4024 17.22 26.4036 17.22C26.4047 17.22 26.4058 17.22 26.4069 17.22C26.4081 17.22 26.4092 17.22 26.4103 17.22C26.4114 17.22 26.4126 17.22 26.4137 17.22C26.4148 17.22 26.4159 17.22 26.4171 17.22C26.4182 17.22 26.4193 17.22 26.4204 17.22C26.4216 17.22 26.4227 17.22 26.4238 17.22C26.4249 17.22 26.4261 17.22 26.4272 17.22C26.4283 17.22 26.4294 17.22 26.4305 17.22C26.4317 17.22 26.4328 17.22 26.4339 17.22C26.435 17.22 26.4362 17.22 26.4373 17.22C26.4384 17.22 26.4395 17.22 26.4407 17.22C26.4418 17.22 26.4429 17.22 26.444 17.22C26.4452 17.22 26.4463 17.22 26.4474 17.22C26.4485 17.22 26.4496 17.22 26.4508 17.22C26.4519 17.22 26.453 17.22 26.4541 17.22C26.4553 17.22 26.4564 17.22 26.4575 17.22C26.4586 17.22 26.4598 17.22 26.4609 17.22C26.462 17.22 26.4631 17.22 26.4642 17.22C26.4654 17.22 26.4665 17.22 26.4676 17.22C26.4687 17.22 26.4699 17.22 26.471 17.22C26.4721 17.22 26.4732 17.22 26.4743 17.22C26.4755 17.22 26.4766 17.22 26.4777 17.22C26.4788 17.22 26.48 17.22 26.4811 17.22C26.4822 17.22 26.4833 17.22 26.4844 17.22C26.4856 17.22 26.4867 17.22 26.4878 17.22C26.4889 17.22 26.4901 17.22 26.4912 17.22C26.4923 17.22 26.4934 17.22 26.4945 17.22C26.4957 17.22 26.4968 17.22 26.4979 17.22C26.499 17.22 26.5001 17.22 26.5013 17.22C26.5024 17.22 26.5035 17.22 26.5046 17.22C26.5057 17.22 26.5069 17.22 26.508 17.22C26.5091 17.22 26.5102 17.22 26.5114 17.22C26.5125 17.22 26.5136 17.22 26.5147 17.22C26.5158 17.22 26.517 17.22 26.5181 17.22C26.5192 17.22 26.5203 17.22 26.5214 17.22C26.5226 17.22 26.5237 17.22 26.5248 17.22C26.5259 17.22 26.527 17.22 26.5282 17.22C26.5293 17.22 26.5304 17.22 26.5315 17.22C26.5326 17.22 26.5338 17.22 26.5349 17.22C26.536 17.22 26.5371 17.22 26.5382 17.22C26.5393 17.22 26.5405 17.22 26.5416 17.22C26.5427 17.22 26.5438 17.22 26.5449 17.22C26.5461 17.22 26.5472 17.22 26.5483 17.22C26.5494 17.22 26.5505 17.22 26.5517 17.22C26.5528 17.22 26.5539 17.22 26.555 17.22C26.5561 17.22 26.5572 17.22 26.5584 17.22C26.5595 17.22 26.5606 17.22 26.5617 17.22C26.5628 17.22 26.564 17.22 26.5651 17.22C26.5662 17.22 26.5673 17.22 26.5684 17.22C26.5695 17.22 26.5707 17.22 26.5718 17.22C26.5729 17.22 26.574 17.22 26.5751 17.22C26.5763 17.22 26.5774 17.22 26.5785 17.22C26.5796 17.22 26.5807 17.22 26.5818 17.22C26.583 17.22 26.5841 17.22 26.5852 17.22C26.5863 17.22 26.5874 17.22 26.5885 17.22C26.5897 17.22 26.5908 17.22 26.5919 17.22C26.593 17.22 26.5941 17.22 26.5952 17.22C26.5964 17.22 26.5975 17.22 26.5986 17.22C26.5997 17.22 26.6008 17.22 26.6019 17.22C26.6031 17.22 26.6042 17.22 26.6053 17.22C26.6064 17.22 26.6075 17.22 26.6086 17.22C26.6098 17.22 26.6109 17.22 26.612 17.22C26.6131 17.22 26.6142 17.22 26.6153 17.22C26.6164 17.22 26.6176 17.22 26.6187 17.22C26.6198 17.22 26.6209 17.22 26.622 17.22C26.6231 17.22 26.6243 17.22 26.6254 17.22C26.6265 17.22 26.6276 17.22 26.6287 17.22C26.6298 17.22 26.6309 17.22 26.6321 17.22C26.6332 17.22 26.6343 17.22 26.6354 17.22C26.6365 17.22 26.6376 17.22 26.6388 17.22C26.6399 17.22 26.641 17.22 26.6421 17.22C26.6432 17.22 26.6443 17.22 26.6454 17.22C26.6466 17.22 26.6477 17.22 26.6488 17.22C26.6499 17.22 26.651 17.22 26.6521 17.22C26.6532 17.22 26.6544 17.22 26.6555 17.22C26.6566 17.22 26.6577 17.22 26.6588 17.22C26.6599 17.22 26.661 17.22 26.6621 17.22C26.6633 17.22 26.6644 17.22 26.6655 17.22C26.6666 17.22 26.6677 17.22 26.6688 17.22C26.6699 17.22 26.6711 17.22 26.6722 17.22C26.6733 17.22 26.6744 17.22 26.6755 17.22C26.6766 17.22 26.6777 17.22 26.6788 17.22C26.68 17.22 26.6811 17.22 26.6822 17.22C26.6833 17.22 26.6844 17.22 26.6855 17.22C26.6866 17.22 26.6877 17.22 26.6889 17.22C26.69 17.22 26.6911 17.22 26.6922 17.22C26.6933 17.22 26.6944 17.22 26.6955 17.22C26.6966 17.22 26.6978 17.22 26.6989 17.22C26.7 17.22 26.7011 17.22 26.7022 17.22C26.7033 17.22 26.7044 17.22 26.7055 17.22C26.7067 17.22 26.7078 17.22 26.7089 17.22C26.71 17.22 26.7111 17.22 26.7122 17.22C26.7133 17.22 26.7144 17.22 26.7155 17.22C26.7167 17.22 26.7178 17.22 26.7189 17.22C26.72 17.22 26.7211 17.22 26.7222 17.22C26.7233 17.22 26.7244 17.22 26.7255 17.22C26.7267 17.22 26.7278 17.22 26.7289 17.22C26.73 17.22 26.7311 17.22 26.7322 17.22C26.7333 17.22 26.7344 17.22 26.7355 17.22C26.7366 17.22 26.7378 17.22 26.7389 17.22C26.74 17.22 26.7411 17.22 26.7422 17.22C26.7433 17.22 26.7444 17.22 26.7455 17.22C26.7466 17.22 26.7477 17.22 26.7489 17.22C26.75 17.22 26.7511 17.22 26.7522 17.22C26.7533 17.22 26.7544 17.22 26.7555 17.22C26.7566 17.22 26.7577 17.22 26.7588 17.22C26.7599 17.22 26.7611 17.22 26.7622 17.22C26.7633 17.22 26.7644 17.22 26.7655 17.22C26.7666 17.22 26.7677 17.22 26.7688 17.22C26.7699 17.22 26.771 17.22 26.7721 17.22C26.7733 17.22 26.7744 17.22 26.7755 17.22C26.7766 17.22 26.7777 17.22 26.7788 17.22C26.7799 17.22 26.781 17.22 26.7821 17.22C26.7832 17.22 26.7843 17.22 26.7854 17.22C26.7866 17.22 26.7877 17.22 26.7888 17.22C26.7899 17.22 26.791 17.22 26.7921 17.22C26.7932 17.22 26.7943 17.22 26.7954 17.22C26.7965 17.22 26.7976 17.22 26.7987 17.22C26.7998 17.22 26.801 17.22 26.8021 17.22C26.8032 17.22 26.8043 17.22 26.8054 17.22C26.8065 17.22 26.8076 17.22 26.8087 17.22C26.8098 17.22 26.8109 17.22 26.812 17.22C26.8131 17.22 26.8142 17.22 26.8153 17.22C26.8164 17.22 26.8176 17.22 26.8187 17.22C26.8198 17.22 26.8209 17.22 26.822 17.22C26.8231 17.22 26.8242 17.22 26.8253 17.22C26.8264 17.22 26.8275 17.22 26.8286 17.22C26.8297 17.22 26.8308 17.22 26.8319 17.22C26.833 17.22 26.8341 17.22 26.8353 17.22C26.8364 17.22 26.8375 17.22 26.8386 17.22C26.8397 17.22 26.8408 17.22 26.8419 17.22C26.843 17.22 26.8441 17.22 26.8452 17.22C26.8463 17.22 26.8474 17.22 26.8485 17.22C26.8496 17.22 26.8507 17.22 26.8518 17.22C26.8529 17.22 26.854 17.22 26.8551 17.22C26.8562 17.22 26.8574 17.22 26.8585 17.22C26.8596 17.22 26.8607 17.22 26.8618 17.22C26.8629 17.22 26.864 17.22 26.8651 17.22C26.8662 17.22 26.8673 17.22 26.8684 17.22C26.8695 17.22 26.8706 17.22 26.8717 17.22C26.8728 17.22 26.8739 17.22 26.875 17.22C26.8761 17.22 26.8772 17.22 26.8783 17.22C26.8794 17.22 26.8805 17.22 26.8816 17.22C26.8827 17.22 26.8839 17.22 26.885 17.22C26.8861 17.22 26.8872 17.22 26.8883 17.22C26.8894 17.22 26.8905 17.22 26.8916 17.22C26.8927 17.22 26.8938 17.22 26.8949 17.22C26.896 17.22 26.8971 17.22 26.8982 17.22C26.8993 17.22 26.9004 17.22 26.9015 17.22C26.9026 17.22 26.9037 17.22 26.9048 17.22C26.9059 17.22 26.907 17.22 26.9081 17.22C26.9092 17.22 26.9103 17.22 26.9114 17.22C26.9125 17.22 26.9136 17.22 26.9147 17.22C26.9158 17.22 26.9169 17.22 26.918 17.22C26.9191 17.22 26.9202 17.22 26.9213 17.22C26.9224 17.22 26.9235 17.22 26.9246 17.22C26.9257 17.22 26.9268 17.22 26.9279 17.22C26.929 17.22 26.9301 17.22 26.9312 17.22C26.9324 17.22 26.9335 17.22 26.9346 17.22C26.9357 17.22 26.9368 17.22 26.9379 17.22C26.939 17.22 26.9401 17.22 26.9412 17.22C26.9423 17.22 26.9434 17.22 26.9445 17.22C26.9456 17.22 26.9467 17.22 26.9478 17.22C26.9489 17.22 26.95 17.22 26.9511 17.22C26.9522 17.22 26.9533 17.22 26.9544 17.22C26.9555 17.22 26.9566 17.22 26.9577 17.22C26.9588 17.22 26.9599 17.22 26.961 17.22C26.9621 17.22 26.9632 17.22 26.9643 17.22C26.9654 17.22 26.9665 17.22 26.9676 17.22C26.9687 17.22 26.9698 17.22 26.9709 17.22C26.972 17.22 26.9731 17.22 26.9742 17.22C26.9753 17.22 26.9764 17.22 26.9775 17.22C26.9786 17.22 26.9797 17.22 26.9808 17.22C26.9819 17.22 26.983 17.22 26.984 17.22C26.9851 17.22 26.9862 17.22 26.9873 17.22C26.9884 17.22 26.9895 17.22 26.9906 17.22C26.9917 17.22 26.9928 17.22 26.9939 17.22C26.995 17.22 26.9961 17.22 26.9972 17.22C26.9983 17.22 26.9994 17.22 27.0005 17.22C27.0016 17.22 27.0027 17.22 27.0038 17.22C27.0049 17.22 27.006 17.22 27.0071 17.22C27.0082 17.22 27.0093 17.22 27.0104 17.22C27.0115 17.22 27.0126 17.22 27.0137 17.22C27.0148 17.22 27.0159 17.22 27.017 17.22C27.0181 17.22 27.0192 17.22 27.0203 17.22C27.0214 17.22 27.0225 17.22 27.0236 17.22C27.0247 17.22 27.0258 17.22 27.0269 17.22C27.028 17.22 27.0291 17.22 27.0302 17.22C27.0312 17.22 27.0323 17.22 27.0334 17.22C27.0345 17.22 27.0356 17.22 27.0367 17.22C27.0378 17.22 27.0389 17.22 27.04 17.22C27.0411 17.22 27.0422 17.22 27.0433 17.22C27.0444 17.22 27.0455 17.22 27.0466 17.22C27.0477 17.22 27.0488 17.22 27.0499 17.22C27.051 17.22 27.0521 17.22 27.0532 17.22C27.0543 17.22 27.0554 17.22 27.0565 17.22C27.0576 17.22 27.0586 17.22 27.0597 17.22C27.0608 17.22 27.0619 17.22 27.063 17.22C27.0641 17.22 27.0652 17.22 27.0663 17.22C27.0674 17.22 27.0685 17.22 27.0696 17.22C27.0707 17.22 27.0718 17.22 27.0729 17.22C27.074 17.22 27.0751 17.22 27.0762 17.22C27.0773 17.22 27.0784 17.22 27.0795 17.22C27.0805 17.22 27.0816 17.22 27.0827 17.22C27.0838 17.22 27.0849 17.22 27.086 17.22C27.0871 17.22 27.0882 17.22 27.0893 17.22C27.0904 17.22 27.0915 17.22 27.0926 17.22V15.22C27.0915 15.22 27.0904 15.22 27.0893 15.22C27.0882 15.22 27.0871 15.22 27.086 15.22C27.0849 15.22 27.0838 15.22 27.0827 15.22C27.0816 15.22 27.0805 15.22 27.0795 15.22C27.0784 15.22 27.0773 15.22 27.0762 15.22C27.0751 15.22 27.074 15.22 27.0729 15.22C27.0718 15.22 27.0707 15.22 27.0696 15.22C27.0685 15.22 27.0674 15.22 27.0663 15.22C27.0652 15.22 27.0641 15.22 27.063 15.22C27.0619 15.22 27.0608 15.22 27.0597 15.22C27.0586 15.22 27.0576 15.22 27.0565 15.22C27.0554 15.22 27.0543 15.22 27.0532 15.22C27.0521 15.22 27.051 15.22 27.0499 15.22C27.0488 15.22 27.0477 15.22 27.0466 15.22C27.0455 15.22 27.0444 15.22 27.0433 15.22C27.0422 15.22 27.0411 15.22 27.04 15.22C27.0389 15.22 27.0378 15.22 27.0367 15.22C27.0356 15.22 27.0345 15.22 27.0334 15.22C27.0323 15.22 27.0312 15.22 27.0302 15.22C27.0291 15.22 27.028 15.22 27.0269 15.22C27.0258 15.22 27.0247 15.22 27.0236 15.22C27.0225 15.22 27.0214 15.22 27.0203 15.22C27.0192 15.22 27.0181 15.22 27.017 15.22C27.0159 15.22 27.0148 15.22 27.0137 15.22C27.0126 15.22 27.0115 15.22 27.0104 15.22C27.0093 15.22 27.0082 15.22 27.0071 15.22C27.006 15.22 27.0049 15.22 27.0038 15.22C27.0027 15.22 27.0016 15.22 27.0005 15.22C26.9994 15.22 26.9983 15.22 26.9972 15.22C26.9961 15.22 26.995 15.22 26.9939 15.22C26.9928 15.22 26.9917 15.22 26.9906 15.22C26.9895 15.22 26.9884 15.22 26.9873 15.22C26.9862 15.22 26.9851 15.22 26.984 15.22C26.983 15.22 26.9819 15.22 26.9808 15.22C26.9797 15.22 26.9786 15.22 26.9775 15.22C26.9764 15.22 26.9753 15.22 26.9742 15.22C26.9731 15.22 26.972 15.22 26.9709 15.22C26.9698 15.22 26.9687 15.22 26.9676 15.22C26.9665 15.22 26.9654 15.22 26.9643 15.22C26.9632 15.22 26.9621 15.22 26.961 15.22C26.9599 15.22 26.9588 15.22 26.9577 15.22C26.9566 15.22 26.9555 15.22 26.9544 15.22C26.9533 15.22 26.9522 15.22 26.9511 15.22C26.95 15.22 26.9489 15.22 26.9478 15.22C26.9467 15.22 26.9456 15.22 26.9445 15.22C26.9434 15.22 26.9423 15.22 26.9412 15.22C26.9401 15.22 26.939 15.22 26.9379 15.22C26.9368 15.22 26.9357 15.22 26.9346 15.22C26.9335 15.22 26.9324 15.22 26.9312 15.22C26.9301 15.22 26.929 15.22 26.9279 15.22C26.9268 15.22 26.9257 15.22 26.9246 15.22C26.9235 15.22 26.9224 15.22 26.9213 15.22C26.9202 15.22 26.9191 15.22 26.918 15.22C26.9169 15.22 26.9158 15.22 26.9147 15.22C26.9136 15.22 26.9125 15.22 26.9114 15.22C26.9103 15.22 26.9092 15.22 26.9081 15.22C26.907 15.22 26.9059 15.22 26.9048 15.22C26.9037 15.22 26.9026 15.22 26.9015 15.22C26.9004 15.22 26.8993 15.22 26.8982 15.22C26.8971 15.22 26.896 15.22 26.8949 15.22C26.8938 15.22 26.8927 15.22 26.8916 15.22C26.8905 15.22 26.8894 15.22 26.8883 15.22C26.8872 15.22 26.8861 15.22 26.885 15.22C26.8839 15.22 26.8827 15.22 26.8816 15.22C26.8805 15.22 26.8794 15.22 26.8783 15.22C26.8772 15.22 26.8761 15.22 26.875 15.22C26.8739 15.22 26.8728 15.22 26.8717 15.22C26.8706 15.22 26.8695 15.22 26.8684 15.22C26.8673 15.22 26.8662 15.22 26.8651 15.22C26.864 15.22 26.8629 15.22 26.8618 15.22C26.8607 15.22 26.8596 15.22 26.8585 15.22C26.8574 15.22 26.8562 15.22 26.8551 15.22C26.854 15.22 26.8529 15.22 26.8518 15.22C26.8507 15.22 26.8496 15.22 26.8485 15.22C26.8474 15.22 26.8463 15.22 26.8452 15.22C26.8441 15.22 26.843 15.22 26.8419 15.22C26.8408 15.22 26.8397 15.22 26.8386 15.22C26.8375 15.22 26.8364 15.22 26.8353 15.22C26.8341 15.22 26.833 15.22 26.8319 15.22C26.8308 15.22 26.8297 15.22 26.8286 15.22C26.8275 15.22 26.8264 15.22 26.8253 15.22C26.8242 15.22 26.8231 15.22 26.822 15.22C26.8209 15.22 26.8198 15.22 26.8187 15.22C26.8176 15.22 26.8164 15.22 26.8153 15.22C26.8142 15.22 26.8131 15.22 26.812 15.22C26.8109 15.22 26.8098 15.22 26.8087 15.22C26.8076 15.22 26.8065 15.22 26.8054 15.22C26.8043 15.22 26.8032 15.22 26.8021 15.22C26.801 15.22 26.7998 15.22 26.7987 15.22C26.7976 15.22 26.7965 15.22 26.7954 15.22C26.7943 15.22 26.7932 15.22 26.7921 15.22C26.791 15.22 26.7899 15.22 26.7888 15.22C26.7877 15.22 26.7866 15.22 26.7854 15.22C26.7843 15.22 26.7832 15.22 26.7821 15.22C26.781 15.22 26.7799 15.22 26.7788 15.22C26.7777 15.22 26.7766 15.22 26.7755 15.22C26.7744 15.22 26.7733 15.22 26.7721 15.22C26.771 15.22 26.7699 15.22 26.7688 15.22C26.7677 15.22 26.7666 15.22 26.7655 15.22C26.7644 15.22 26.7633 15.22 26.7622 15.22C26.7611 15.22 26.7599 15.22 26.7588 15.22C26.7577 15.22 26.7566 15.22 26.7555 15.22C26.7544 15.22 26.7533 15.22 26.7522 15.22C26.7511 15.22 26.75 15.22 26.7489 15.22C26.7477 15.22 26.7466 15.22 26.7455 15.22C26.7444 15.22 26.7433 15.22 26.7422 15.22C26.7411 15.22 26.74 15.22 26.7389 15.22C26.7378 15.22 26.7366 15.22 26.7355 15.22C26.7344 15.22 26.7333 15.22 26.7322 15.22C26.7311 15.22 26.73 15.22 26.7289 15.22C26.7278 15.22 26.7267 15.22 26.7255 15.22C26.7244 15.22 26.7233 15.22 26.7222 15.22C26.7211 15.22 26.72 15.22 26.7189 15.22C26.7178 15.22 26.7167 15.22 26.7155 15.22C26.7144 15.22 26.7133 15.22 26.7122 15.22C26.7111 15.22 26.71 15.22 26.7089 15.22C26.7078 15.22 26.7067 15.22 26.7055 15.22C26.7044 15.22 26.7033 15.22 26.7022 15.22C26.7011 15.22 26.7 15.22 26.6989 15.22C26.6978 15.22 26.6966 15.22 26.6955 15.22C26.6944 15.22 26.6933 15.22 26.6922 15.22C26.6911 15.22 26.69 15.22 26.6889 15.22C26.6877 15.22 26.6866 15.22 26.6855 15.22C26.6844 15.22 26.6833 15.22 26.6822 15.22C26.6811 15.22 26.68 15.22 26.6788 15.22C26.6777 15.22 26.6766 15.22 26.6755 15.22C26.6744 15.22 26.6733 15.22 26.6722 15.22C26.6711 15.22 26.6699 15.22 26.6688 15.22C26.6677 15.22 26.6666 15.22 26.6655 15.22C26.6644 15.22 26.6633 15.22 26.6621 15.22C26.661 15.22 26.6599 15.22 26.6588 15.22C26.6577 15.22 26.6566 15.22 26.6555 15.22C26.6544 15.22 26.6532 15.22 26.6521 15.22C26.651 15.22 26.6499 15.22 26.6488 15.22C26.6477 15.22 26.6466 15.22 26.6454 15.22C26.6443 15.22 26.6432 15.22 26.6421 15.22C26.641 15.22 26.6399 15.22 26.6388 15.22C26.6376 15.22 26.6365 15.22 26.6354 15.22C26.6343 15.22 26.6332 15.22 26.6321 15.22C26.6309 15.22 26.6298 15.22 26.6287 15.22C26.6276 15.22 26.6265 15.22 26.6254 15.22C26.6243 15.22 26.6231 15.22 26.622 15.22C26.6209 15.22 26.6198 15.22 26.6187 15.22C26.6176 15.22 26.6164 15.22 26.6153 15.22C26.6142 15.22 26.6131 15.22 26.612 15.22C26.6109 15.22 26.6098 15.22 26.6086 15.22C26.6075 15.22 26.6064 15.22 26.6053 15.22C26.6042 15.22 26.6031 15.22 26.6019 15.22C26.6008 15.22 26.5997 15.22 26.5986 15.22C26.5975 15.22 26.5964 15.22 26.5952 15.22C26.5941 15.22 26.593 15.22 26.5919 15.22C26.5908 15.22 26.5897 15.22 26.5885 15.22C26.5874 15.22 26.5863 15.22 26.5852 15.22C26.5841 15.22 26.583 15.22 26.5818 15.22C26.5807 15.22 26.5796 15.22 26.5785 15.22C26.5774 15.22 26.5763 15.22 26.5751 15.22C26.574 15.22 26.5729 15.22 26.5718 15.22C26.5707 15.22 26.5695 15.22 26.5684 15.22C26.5673 15.22 26.5662 15.22 26.5651 15.22C26.564 15.22 26.5628 15.22 26.5617 15.22C26.5606 15.22 26.5595 15.22 26.5584 15.22C26.5572 15.22 26.5561 15.22 26.555 15.22C26.5539 15.22 26.5528 15.22 26.5517 15.22C26.5505 15.22 26.5494 15.22 26.5483 15.22C26.5472 15.22 26.5461 15.22 26.5449 15.22C26.5438 15.22 26.5427 15.22 26.5416 15.22C26.5405 15.22 26.5393 15.22 26.5382 15.22C26.5371 15.22 26.536 15.22 26.5349 15.22C26.5338 15.22 26.5326 15.22 26.5315 15.22C26.5304 15.22 26.5293 15.22 26.5282 15.22C26.527 15.22 26.5259 15.22 26.5248 15.22C26.5237 15.22 26.5226 15.22 26.5214 15.22C26.5203 15.22 26.5192 15.22 26.5181 15.22C26.517 15.22 26.5158 15.22 26.5147 15.22C26.5136 15.22 26.5125 15.22 26.5114 15.22C26.5102 15.22 26.5091 15.22 26.508 15.22C26.5069 15.22 26.5057 15.22 26.5046 15.22C26.5035 15.22 26.5024 15.22 26.5013 15.22C26.5001 15.22 26.499 15.22 26.4979 15.22C26.4968 15.22 26.4957 15.22 26.4945 15.22C26.4934 15.22 26.4923 15.22 26.4912 15.22C26.4901 15.22 26.4889 15.22 26.4878 15.22C26.4867 15.22 26.4856 15.22 26.4844 15.22C26.4833 15.22 26.4822 15.22 26.4811 15.22C26.48 15.22 26.4788 15.22 26.4777 15.22C26.4766 15.22 26.4755 15.22 26.4743 15.22C26.4732 15.22 26.4721 15.22 26.471 15.22C26.4699 15.22 26.4687 15.22 26.4676 15.22C26.4665 15.22 26.4654 15.22 26.4642 15.22C26.4631 15.22 26.462 15.22 26.4609 15.22C26.4598 15.22 26.4586 15.22 26.4575 15.22C26.4564 15.22 26.4553 15.22 26.4541 15.22C26.453 15.22 26.4519 15.22 26.4508 15.22C26.4496 15.22 26.4485 15.22 26.4474 15.22C26.4463 15.22 26.4452 15.22 26.444 15.22C26.4429 15.22 26.4418 15.22 26.4407 15.22C26.4395 15.22 26.4384 15.22 26.4373 15.22C26.4362 15.22 26.435 15.22 26.4339 15.22C26.4328 15.22 26.4317 15.22 26.4305 15.22C26.4294 15.22 26.4283 15.22 26.4272 15.22C26.4261 15.22 26.4249 15.22 26.4238 15.22C26.4227 15.22 26.4216 15.22 26.4204 15.22C26.4193 15.22 26.4182 15.22 26.4171 15.22C26.4159 15.22 26.4148 15.22 26.4137 15.22C26.4126 15.22 26.4114 15.22 26.4103 15.22C26.4092 15.22 26.4081 15.22 26.4069 15.22C26.4058 15.22 26.4047 15.22 26.4036 15.22C26.4024 15.22 26.4013 15.22 26.4002 15.22C26.3991 15.22 26.3979 15.22 26.3968 15.22C26.3957 15.22 26.3946 15.22 26.3934 15.22C26.3923 15.22 26.3912 15.22 26.39 15.22C26.3889 15.22 26.3878 15.22 26.3867 15.22C26.3855 15.22 26.3844 15.22 26.3833 15.22C26.3822 15.22 26.381 15.22 26.3799 15.22C26.3788 15.22 26.3777 15.22 26.3765 15.22C26.3754 15.22 26.3743 15.22 26.3732 15.22C26.372 15.22 26.3709 15.22 26.3698 15.22C26.3686 15.22 26.3675 15.22 26.3664 15.22C26.3653 15.22 26.3641 15.22 26.363 15.22C26.3619 15.22 26.3608 15.22 26.3596 15.22C26.3585 15.22 26.3574 15.22 26.3562 15.22C26.3551 15.22 26.354 15.22 26.3529 15.22C26.3517 15.22 26.3506 15.22 26.3495 15.22C26.3484 15.22 26.3472 15.22 26.3461 15.22C26.345 15.22 26.3438 15.22 26.3427 15.22C26.3416 15.22 26.3405 15.22 26.3393 15.22C26.3382 15.22 26.3371 15.22 26.3359 15.22C26.3348 15.22 26.3337 15.22 26.3326 15.22C26.3314 15.22 26.3303 15.22 26.3292 15.22C26.328 15.22 26.3269 15.22 26.3258 15.22C26.3247 15.22 26.3235 15.22 26.3224 15.22C26.3213 15.22 26.3201 15.22 26.319 15.22C26.3179 15.22 26.3168 15.22 26.3156 15.22C26.3145 15.22 26.3134 15.22 26.3122 15.22C26.3111 15.22 26.31 15.22 26.3088 15.22C26.3077 15.22 26.3066 15.22 26.3055 15.22C26.3043 15.22 26.3032 15.22 26.3021 15.22C26.3009 15.22 26.2998 15.22 26.2987 15.22C26.2975 15.22 26.2964 15.22 26.2953 15.22C26.2942 15.22 26.293 15.22 26.2919 15.22C26.2908 15.22 26.2896 15.22 26.2885 15.22C26.2874 15.22 26.2862 15.22 26.2851 15.22C26.284 15.22 26.2829 15.22 26.2817 15.22C26.2806 15.22 26.2795 15.22 26.2783 15.22C26.2772 15.22 26.2761 15.22 26.2749 15.22C26.2738 15.22 26.2727 15.22 26.2715 15.22C26.2704 15.22 26.2693 15.22 26.2681 15.22C26.267 15.22 26.2659 15.22 26.2648 15.22C26.2636 15.22 26.2625 15.22 26.2614 15.22C26.2602 15.22 26.2591 15.22 26.258 15.22C26.2568 15.22 26.2557 15.22 26.2546 15.22C26.2534 15.22 26.2523 15.22 26.2512 15.22C26.25 15.22 26.2489 15.22 26.2478 15.22C26.2466 15.22 26.2455 15.22 26.2444 15.22C26.2432 15.22 26.2421 15.22 26.241 15.22C26.2398 15.22 26.2387 15.22 26.2376 15.22C26.2364 15.22 26.2353 15.22 26.2342 15.22C26.233 15.22 26.2319 15.22 26.2308 15.22C26.2296 15.22 26.2285 15.22 26.2274 15.22C26.2262 15.22 26.2251 15.22 26.224 15.22C26.2228 15.22 26.2217 15.22 26.2206 15.22C26.2194 15.22 26.2183 15.22 26.2172 15.22C26.216 15.22 26.2149 15.22 26.2138 15.22C26.2126 15.22 26.2115 15.22 26.2104 15.22C26.2092 15.22 26.2081 15.22 26.207 15.22C26.2058 15.22 26.2047 15.22 26.2036 15.22C26.2024 15.22 26.2013 15.22 26.2002 15.22C26.199 15.22 26.1979 15.22 26.1968 15.22C26.1956 15.22 26.1945 15.22 26.1934 15.22C26.1922 15.22 26.1911 15.22 26.19 15.22C26.1888 15.22 26.1877 15.22 26.1866 15.22C26.1854 15.22 26.1843 15.22 26.1831 15.22C26.182 15.22 26.1809 15.22 26.1797 15.22C26.1786 15.22 26.1775 15.22 26.1763 15.22C26.1752 15.22 26.1741 15.22 26.1729 15.22C26.1718 15.22 26.1707 15.22 26.1695 15.22C26.1684 15.22 26.1672 15.22 26.1661 15.22C26.165 15.22 26.1638 15.22 26.1627 15.22C26.1616 15.22 26.1604 15.22 26.1593 15.22C26.1582 15.22 26.157 15.22 26.1559 15.22C26.1547 15.22 26.1536 15.22 26.1525 15.22C26.1513 15.22 26.1502 15.22 26.1491 15.22C26.1479 15.22 26.1468 15.22 26.1457 15.22C26.1445 15.22 26.1434 15.22 26.1422 15.22C26.1411 15.22 26.14 15.22 26.1388 15.22C26.1377 15.22 26.1366 15.22 26.1354 15.22C26.1343 15.22 26.1331 15.22 26.132 15.22C26.1309 15.22 26.1297 15.22 26.1286 15.22C26.1275 15.22 26.1263 15.22 26.1252 15.22C26.124 15.22 26.1229 15.22 26.1218 15.22C26.1206 15.22 26.1195 15.22 26.1184 15.22C26.1172 15.22 26.1161 15.22 26.1149 15.22C26.1138 15.22 26.1127 15.22 26.1115 15.22C26.1104 15.22 26.1092 15.22 26.1081 15.22C26.107 15.22 26.1058 15.22 26.1047 15.22C26.1036 15.22 26.1024 15.22 26.1013 15.22C26.1001 15.22 26.099 15.22 26.0979 15.22C26.0967 15.22 26.0956 15.22 26.0944 15.22C26.0933 15.22 26.0922 15.22 26.091 15.22C26.0899 15.22 26.0887 15.22 26.0876 15.22C26.0865 15.22 26.0853 15.22 26.0842 15.22C26.083 15.22 26.0819 15.22 26.0808 15.22C26.0796 15.22 26.0785 15.22 26.0773 15.22C26.0762 15.22 26.0751 15.22 26.0739 15.22C26.0728 15.22 26.0716 15.22 26.0705 15.22C26.0694 15.22 26.0682 15.22 26.0671 15.22C26.0659 15.22 26.0648 15.22 26.0637 15.22C26.0625 15.22 26.0614 15.22 26.0602 15.22C26.0591 15.22 26.058 15.22 26.0568 15.22C26.0557 15.22 26.0545 15.22 26.0534 15.22C26.0523 15.22 26.0511 15.22 26.05 15.22C26.0488 15.22 26.0477 15.22 26.0466 15.22C26.0454 15.22 26.0443 15.22 26.0431 15.22C26.042 15.22 26.0408 15.22 26.0397 15.22C26.0386 15.22 26.0374 15.22 26.0363 15.22C26.0351 15.22 26.034 15.22 26.0329 15.22C26.0317 15.22 26.0306 15.22 26.0294 15.22C26.0283 15.22 26.0271 15.22 26.026 15.22C26.0249 15.22 26.0237 15.22 26.0226 15.22C26.0214 15.22 26.0203 15.22 26.0191 15.22C26.018 15.22 26.0169 15.22 26.0157 15.22C26.0146 15.22 26.0134 15.22 26.0123 15.22C26.0111 15.22 26.01 15.22 26.0089 15.22C26.0077 15.22 26.0066 15.22 26.0054 15.22C26.0043 15.22 26.0031 15.22 26.002 15.22C26.0009 15.22 25.9997 15.22 25.9986 15.22C25.9974 15.22 25.9963 15.22 25.9951 15.22C25.994 15.22 25.9928 15.22 25.9917 15.22C25.9906 15.22 25.9894 15.22 25.9883 15.22C25.9871 15.22 25.986 15.22 25.9848 15.22C25.9837 15.22 25.9826 15.22 25.9814 15.22C25.9803 15.22 25.9791 15.22 25.978 15.22C25.9768 15.22 25.9757 15.22 25.9745 15.22C25.9734 15.22 25.9723 15.22 25.9711 15.22C25.97 15.22 25.9688 15.22 25.9677 15.22C25.9665 15.22 25.9654 15.22 25.9642 15.22C25.9631 15.22 25.962 15.22 25.9608 15.22C25.9597 15.22 25.9585 15.22 25.9574 15.22C25.9562 15.22 25.9551 15.22 25.9539 15.22C25.9528 15.22 25.9516 15.22 25.9505 15.22C25.9494 15.22 25.9482 15.22 25.9471 15.22C25.9459 15.22 25.9448 15.22 25.9436 15.22C25.9425 15.22 25.9413 15.22 25.9402 15.22C25.939 15.22 25.9379 15.22 25.9367 15.22C25.9356 15.22 25.9345 15.22 25.9333 15.22C25.9322 15.22 25.931 15.22 25.9299 15.22C25.9287 15.22 25.9276 15.22 25.9264 15.22C25.9253 15.22 25.9241 15.22 25.923 15.22C25.9218 15.22 25.9207 15.22 25.9195 15.22C25.9184 15.22 25.9173 15.22 25.9161 15.22C25.915 15.22 25.9138 15.22 25.9127 15.22C25.9115 15.22 25.9104 15.22 25.9092 15.22C25.9081 15.22 25.9069 15.22 25.9058 15.22C25.9046 15.22 25.9035 15.22 25.9023 15.22C25.9012 15.22 25.9 15.22 25.8989 15.22C25.8977 15.22 25.8966 15.22 25.8954 15.22C25.8943 15.22 25.8932 15.22 25.892 15.22C25.8909 15.22 25.8897 15.22 25.8886 15.22C25.8874 15.22 25.8863 15.22 25.8851 15.22C25.884 15.22 25.8828 15.22 25.8817 15.22C25.8805 15.22 25.8794 15.22 25.8782 15.22C25.8771 15.22 25.8759 15.22 25.8748 15.22C25.8736 15.22 25.8725 15.22 25.8713 15.22C25.8702 15.22 25.869 15.22 25.8679 15.22C25.8667 15.22 25.8656 15.22 25.8644 15.22C25.8633 15.22 25.8621 15.22 25.861 15.22C25.8598 15.22 25.8587 15.22 25.8575 15.22C25.8564 15.22 25.8552 15.22 25.8541 15.22C25.8529 15.22 25.8518 15.22 25.8506 15.22C25.8495 15.22 25.8483 15.22 25.8472 15.22C25.846 15.22 25.8449 15.22 25.8437 15.22C25.8426 15.22 25.8414 15.22 25.8403 15.22C25.8391 15.22 25.838 15.22 25.8368 15.22C25.8357 15.22 25.8345 15.22 25.8334 15.22C25.8322 15.22 25.8311 15.22 25.8299 15.22C25.8288 15.22 25.8276 15.22 25.8265 15.22C25.8253 15.22 25.8242 15.22 25.823 15.22C25.8219 15.22 25.8207 15.22 25.8196 15.22C25.8184 15.22 25.8173 15.22 25.8161 15.22C25.815 15.22 25.8138 15.22 25.8127 15.22C25.8115 15.22 25.8104 15.22 25.8092 15.22C25.808 15.22 25.8069 15.22 25.8057 15.22C25.8046 15.22 25.8034 15.22 25.8023 15.22C25.8011 15.22 25.8 15.22 25.7988 15.22C25.7977 15.22 25.7965 15.22 25.7954 15.22C25.7942 15.22 25.7931 15.22 25.7919 15.22C25.7908 15.22 25.7896 15.22 25.7885 15.22C25.7873 15.22 25.7862 15.22 25.785 15.22C25.7838 15.22 25.7827 15.22 25.7815 15.22C25.7804 15.22 25.7792 15.22 25.7781 15.22C25.7769 15.22 25.7758 15.22 25.7746 15.22C25.7735 15.22 25.7723 15.22 25.7712 15.22C25.77 15.22 25.7689 15.22 25.7677 15.22C25.7665 15.22 25.7654 15.22 25.7642 15.22C25.7631 15.22 25.7619 15.22 25.7608 15.22C25.7596 15.22 25.7585 15.22 25.7573 15.22C25.7562 15.22 25.755 15.22 25.7539 15.22C25.7527 15.22 25.7515 15.22 25.7504 15.22C25.7492 15.22 25.7481 15.22 25.7469 15.22C25.7458 15.22 25.7446 15.22 25.7435 15.22C25.7423 15.22 25.7411 15.22 25.74 15.22C25.7388 15.22 25.7377 15.22 25.7365 15.22C25.7354 15.22 25.7342 15.22 25.7331 15.22C25.7319 15.22 25.7308 15.22 25.7296 15.22C25.7284 15.22 25.7273 15.22 25.7261 15.22C25.725 15.22 25.7238 15.22 25.7227 15.22C25.7215 15.22 25.7204 15.22 25.7192 15.22C25.718 15.22 25.7169 15.22 25.7157 15.22C25.7146 15.22 25.7134 15.22 25.7123 15.22C25.7111 15.22 25.7099 15.22 25.7088 15.22C25.7076 15.22 25.7065 15.22 25.7053 15.22C25.7042 15.22 25.703 15.22 25.7019 15.22C25.7007 15.22 25.6995 15.22 25.6984 15.22C25.6972 15.22 25.6961 15.22 25.6949 15.22C25.6938 15.22 25.6926 15.22 25.6914 15.22C25.6903 15.22 25.6891 15.22 25.688 15.22C25.6868 15.22 25.6857 15.22 25.6845 15.22C25.6833 15.22 25.6822 15.22 25.681 15.22C25.6799 15.22 25.6787 15.22 25.6776 15.22C25.6764 15.22 25.6752 15.22 25.6741 15.22C25.6729 15.22 25.6718 15.22 25.6706 15.22C25.6694 15.22 25.6683 15.22 25.6671 15.22C25.666 15.22 25.6648 15.22 25.6637 15.22C25.6625 15.22 25.6613 15.22 25.6602 15.22C25.659 15.22 25.6579 15.22 25.6567 15.22C25.6556 15.22 25.6544 15.22 25.6532 15.22C25.6521 15.22 25.6509 15.22 25.6498 15.22C25.6486 15.22 25.6474 15.22 25.6463 15.22C25.6451 15.22 25.644 15.22 25.6428 15.22C25.6416 15.22 25.6405 15.22 25.6393 15.22C25.6382 15.22 25.637 15.22 25.6358 15.22C25.6347 15.22 25.6335 15.22 25.6324 15.22C25.6312 15.22 25.63 15.22 25.6289 15.22C25.6277 15.22 25.6266 15.22 25.6254 15.22C25.6242 15.22 25.6231 15.22 25.6219 15.22C25.6208 15.22 25.6196 15.22 25.6184 15.22C25.6173 15.22 25.6161 15.22 25.615 15.22C25.6138 15.22 25.6126 15.22 25.6115 15.22C25.6103 15.22 25.6092 15.22 25.608 15.22C25.6068 15.22 25.6057 15.22 25.6045 15.22C25.6034 15.22 25.6022 15.22 25.601 15.22C25.5999 15.22 25.5987 15.22 25.5976 15.22C25.5964 15.22 25.5952 15.22 25.5941 15.22C25.5929 15.22 25.5917 15.22 25.5906 15.22C25.5894 15.22 25.5883 15.22 25.5871 15.22C25.5859 15.22 25.5848 15.22 25.5836 15.22C25.5825 15.22 25.5813 15.22 25.5801 15.22C25.579 15.22 25.5778 15.22 25.5766 15.22C25.5755 15.22 25.5743 15.22 25.5732 15.22C25.572 15.22 25.5708 15.22 25.5697 15.22C25.5685 15.22 25.5673 15.22 25.5662 15.22C25.565 15.22 25.5639 15.22 25.5627 15.22C25.5615 15.22 25.5604 15.22 25.5592 15.22C25.558 15.22 25.5569 15.22 25.5557 15.22C25.5546 15.22 25.5534 15.22 25.5522 15.22C25.5511 15.22 25.5499 15.22 25.5487 15.22C25.5476 15.22 25.5464 15.22 25.5452 15.22C25.5441 15.22 25.5429 15.22 25.5418 15.22C25.5406 15.22 25.5394 15.22 25.5383 15.22C25.5371 15.22 25.5359 15.22 25.5348 15.22C25.5336 15.22 25.5324 15.22 25.5313 15.22C25.5301 15.22 25.529 15.22 25.5278 15.22C25.5266 15.22 25.5255 15.22 25.5243 15.22C25.5231 15.22 25.522 15.22 25.5208 15.22C25.5196 15.22 25.5185 15.22 25.5173 15.22C25.5161 15.22 25.515 15.22 25.5138 15.22C25.5126 15.22 25.5115 15.22 25.5103 15.22C25.5092 15.22 25.508 15.22 25.5068 15.22C25.5057 15.22 25.5045 15.22 25.5033 15.22C25.5022 15.22 25.501 15.22 25.4998 15.22C25.4987 15.22 25.4975 15.22 25.4963 15.22C25.4952 15.22 25.494 15.22 25.4928 15.22C25.4917 15.22 25.4905 15.22 25.4893 15.22C25.4882 15.22 25.487 15.22 25.4858 15.22C25.4847 15.22 25.4835 15.22 25.4823 15.22C25.4812 15.22 25.48 15.22 25.4788 15.22C25.4777 15.22 25.4765 15.22 25.4753 15.22C25.4742 15.22 25.473 15.22 25.4718 15.22C25.4707 15.22 25.4695 15.22 25.4683 15.22C25.4672 15.22 25.466 15.22 25.4648 15.22C25.4637 15.22 25.4625 15.22 25.4613 15.22C25.4602 15.22 25.459 15.22 25.4578 15.22C25.4567 15.22 25.4555 15.22 25.4543 15.22C25.4532 15.22 25.452 15.22 25.4508 15.22C25.4497 15.22 25.4485 15.22 25.4473 15.22C25.4462 15.22 25.445 15.22 25.4438 15.22C25.4427 15.22 25.4415 15.22 25.4403 15.22C25.4392 15.22 25.438 15.22 25.4368 15.22C25.4357 15.22 25.4345 15.22 25.4333 15.22C25.4322 15.22 25.431 15.22 25.4298 15.22C25.4286 15.22 25.4275 15.22 25.4263 15.22C25.4251 15.22 25.424 15.22 25.4228 15.22C25.4216 15.22 25.4205 15.22 25.4193 15.22C25.4181 15.22 25.417 15.22 25.4158 15.22C25.4146 15.22 25.4135 15.22 25.4123 15.22C25.4111 15.22 25.4099 15.22 25.4088 15.22C25.4076 15.22 25.4064 15.22 25.4053 15.22C25.4041 15.22 25.4029 15.22 25.4018 15.22C25.4006 15.22 25.3994 15.22 25.3982 15.22C25.3971 15.22 25.3959 15.22 25.3947 15.22C25.3936 15.22 25.3924 15.22 25.3912 15.22C25.3901 15.22 25.3889 15.22 25.3877 15.22C25.3865 15.22 25.3854 15.22 25.3842 15.22C25.383 15.22 25.3819 15.22 25.3807 15.22C25.3795 15.22 25.3783 15.22 25.3772 15.22C25.376 15.22 25.3748 15.22 25.3737 15.22C25.3725 15.22 25.3713 15.22 25.3702 15.22C25.369 15.22 25.3678 15.22 25.3666 15.22C25.3655 15.22 25.3643 15.22 25.3631 15.22C25.362 15.22 25.3608 15.22 25.3596 15.22C25.3584 15.22 25.3573 15.22 25.3561 15.22C25.3549 15.22 25.3538 15.22 25.3526 15.22V17.22ZM27.0926 17.22C27.9484 17.22 28.7851 17.1996 29.6025 17.1588L29.5026 15.1612C28.7201 15.2004 27.9167 15.22 27.0926 15.22V17.22ZM29.6001 17.1589C30.458 17.118 31.1919 17.056 31.794 16.9699L31.5112 14.99C30.9933 15.064 30.3271 15.122 29.505 15.1611L29.6001 17.1589ZM17.8166 46.1079L15.5366 52.1679L17.4085 52.8721L19.6885 46.8121L17.8166 46.1079ZM15.5317 52.1813C15.19 53.1304 14.821 53.8971 14.433 54.4967L16.1122 55.5833C16.6042 54.8229 17.0351 53.9096 17.4135 52.8587L15.5317 52.1813ZM14.3984 54.5544C14.0452 55.1902 13.6574 55.6691 13.2466 56.0166L14.5385 57.5434C15.1678 57.0109 15.7 56.3298 16.1467 55.5256L14.3984 54.5544ZM13.2376 56.0243C12.7667 56.4325 12.1664 56.7488 11.4095 56.9552L11.9357 58.8848C12.9388 58.6112 13.8185 58.1675 14.5475 57.5357L13.2376 56.0243ZM11.3979 56.9585C10.6623 57.1686 9.81677 57.28 8.85258 57.28V59.28C9.96839 59.28 11.0029 59.1514 11.9473 58.8815L11.3979 56.9585ZM8.85258 57.28C8.05123 57.28 7.26677 57.1411 6.49432 56.8602L5.81084 58.7398C6.79839 59.0989 7.81393 59.28 8.85258 59.28V57.28ZM6.50857 56.8655C5.80689 56.5982 5.21563 56.2025 4.72212 55.6761L3.26304 57.0439C3.96953 57.7975 4.81827 58.3618 5.79658 58.7345L6.50857 56.8655ZM4.74516 55.7015C4.37821 55.2821 4.15258 54.6941 4.15258 53.84H2.15258C2.15258 55.0659 2.48695 56.1579 3.24 57.0185L4.74516 55.7015ZM4.15258 53.84C4.15258 52.9732 4.43365 52.3556 4.95937 51.8852L3.62578 50.3948C2.63151 51.2844 2.15258 52.4668 2.15258 53.84H4.15258ZM4.95937 51.8852C5.48728 51.4129 6.26425 51.12 7.41258 51.12V49.12C5.92091 49.12 4.61788 49.5071 3.62578 50.3948L4.95937 51.8852ZM7.41258 51.12C8.41146 51.12 9.11707 51.3592 9.61864 51.7494L10.8465 50.1706C9.90809 49.4408 8.7337 49.12 7.41258 49.12V51.12ZM9.61294 51.7449C10.0843 52.117 10.3726 52.6785 10.3726 53.6H12.3726C12.3726 52.2015 11.9009 51.003 10.8522 50.1751L9.61294 51.7449ZM10.3726 53.6C10.3726 54.1522 10.2175 54.6241 9.90618 55.0486L11.519 56.2314C12.0876 55.4559 12.3726 54.5678 12.3726 53.6H10.3726ZM9.90617 55.0486C9.59335 55.4752 9.13548 55.8298 8.48119 56.0915L9.22397 57.9485C10.1697 57.5702 10.9518 57.0048 11.519 56.2314L9.90617 55.0486ZM8.65646 58.0006C8.90438 58.0502 9.15167 58.08 9.39258 58.08V56.08C9.31349 56.08 9.20078 56.0698 9.0487 56.0394L8.65646 58.0006ZM9.19646 58.0606C9.42296 58.1059 9.65681 58.14 9.87258 58.14V56.14C9.84835 56.14 9.7622 56.1341 9.5887 56.0994L9.19646 58.0606ZM9.87258 58.14C11.2722 58.14 12.5358 57.6744 13.6295 56.771L12.3557 55.229C11.6093 55.8456 10.793 56.14 9.87258 56.14V58.14ZM13.6295 56.771C14.7426 55.8514 15.5646 54.4636 16.1589 52.7231L14.2662 52.0769C13.7405 53.6164 13.0826 54.6286 12.3557 55.229L13.6295 56.771ZM16.1524 52.7417L18.3124 46.8017L16.4328 46.1183L14.2728 52.0583L16.1524 52.7417ZM17.3726 47.46H18.7526V45.46H17.3726V47.46ZM32.847 46.46L32.3539 47.33C32.3614 47.3342 32.3688 47.3383 32.3764 47.3424L32.847 46.46ZM30.147 43.76L29.2587 44.2194C29.261 44.2237 29.2632 44.228 29.2655 44.2322L30.147 43.76ZM30.447 35.72L31.2505 36.3152C31.2539 36.3106 31.2573 36.3059 31.2607 36.3012L30.447 35.72ZM33.507 33.08L33.9656 33.9687L33.9761 33.9631L33.507 33.08ZM37.527 31.4L37.8268 32.354C37.835 32.3514 37.8431 32.3487 37.8513 32.3459L37.527 31.4ZM41.487 30.08L41.794 31.0317C41.8031 31.0287 41.8123 31.0257 41.8214 31.0224L41.487 30.08ZM44.547 28.58L43.9735 27.7608L44.547 28.58ZM45.147 18.86L44.2278 19.2539C44.2355 19.2719 44.2438 19.2897 44.2525 19.3072L45.147 18.86ZM43.467 17L42.9455 17.8533C42.9637 17.8644 42.9823 17.875 43.0012 17.8849L43.467 17ZM38.067 16.7L38.3194 17.6676H38.3194L38.067 16.7ZM35.787 18.08L35.0371 17.4184C34.8082 17.6778 34.7297 18.037 34.8294 18.3683C34.9291 18.6995 35.1929 18.9557 35.527 19.0456L35.787 18.08ZM38.187 19.64L37.3819 20.2332C37.3885 20.2421 37.3952 20.2509 37.4021 20.2596L38.187 19.64ZM37.827 25.34L38.4746 26.1019L38.4777 26.0993L37.827 25.34ZM31.767 25.1L30.9897 25.7292L31.767 25.1ZM31.587 19.4L32.3763 20.0139C32.3816 20.0071 32.3869 20.0002 32.392 19.9932L31.587 19.4ZM33.927 17.36L34.4414 18.2175C34.4577 18.2078 34.4736 18.1976 34.4893 18.1869L33.927 17.36ZM47.547 15.74L47.2648 16.6994C47.2735 16.7019 47.2823 16.7044 47.2911 16.7067L47.547 15.74ZM51.027 17.72L50.3198 18.4271C50.3249 18.4321 50.3299 18.4371 50.335 18.442L51.027 17.72ZM53.667 44.72L52.7891 45.1989C52.7956 45.2109 52.8024 45.2228 52.8095 45.2345L53.667 44.72ZM55.947 45.02L56.4326 45.8942L55.947 45.02ZM57.147 44.18L57.9865 43.6367C57.8319 43.3978 57.5829 43.2361 57.3017 43.192C57.0206 43.148 56.734 43.2258 56.5137 43.406L57.147 44.18ZM57.807 45.2L58.4184 45.9913C58.8298 45.6734 58.929 45.0933 58.6465 44.6567L57.807 45.2ZM55.047 46.82L54.6623 45.8969L55.047 46.82ZM48.207 46.82L47.7597 47.7144C47.7655 47.7173 47.7712 47.7201 47.777 47.7229L48.207 46.82ZM46.407 45.08L45.5032 45.5081C45.5092 45.5208 45.5155 45.5333 45.522 45.5457L46.407 45.08ZM45.807 42.38L46.8062 42.3416C46.7892 41.8995 46.4838 41.5212 46.0553 41.4113C45.6268 41.3015 45.1771 41.4862 44.9495 41.8655L45.807 42.38ZM42.267 46.1L41.7348 45.2534L42.267 46.1ZM43.467 43.28L42.9406 42.4297C42.9343 42.4336 42.9281 42.4375 42.922 42.4416L43.467 43.28ZM45.747 40.94L46.5839 41.4872C46.6903 41.3246 46.747 41.1344 46.747 40.94H45.747ZM45.747 28.82H46.747C46.747 28.3793 46.4585 27.9906 46.0367 27.8629C45.615 27.7352 45.1593 27.8986 44.9149 28.2653L45.747 28.82ZM44.007 30.44L43.473 29.5945C43.466 29.5989 43.4591 29.6034 43.4523 29.6079L44.007 30.44ZM41.667 31.88L41.1708 31.0118L41.667 31.88ZM39.267 33.56L39.9071 34.3282L39.9111 34.3249L39.267 33.56ZM37.407 35.84L36.5364 35.3479C36.5339 35.3523 36.5315 35.3567 36.5291 35.3611L37.407 35.84ZM37.827 42.86L37.0854 43.5309C37.0909 43.5369 37.0964 43.5429 37.102 43.5487L37.827 42.86ZM37.227 46.42C35.6286 46.42 34.3394 46.1226 33.3175 45.5776L32.3764 47.3424C33.7545 48.0774 35.3853 48.42 37.227 48.42V46.42ZM33.34 45.59C32.2898 44.9949 31.5315 44.2269 31.0284 43.2878L29.2655 44.2322C29.9624 45.5331 31.0041 46.5651 32.3539 47.33L33.34 45.59ZM31.0352 43.3006C30.5139 42.2927 30.247 41.1719 30.247 39.92H28.247C28.247 41.4681 28.58 42.9073 29.2587 44.2194L31.0352 43.3006ZM30.247 39.92C30.247 38.354 30.6098 37.1801 31.2505 36.3152L29.6434 35.1248C28.6841 36.4199 28.247 38.046 28.247 39.92H30.247ZM31.2607 36.3012C31.9671 35.3123 32.8647 34.5368 33.9656 33.9686L33.0483 32.1914C31.6693 32.9031 30.5268 33.8877 29.6332 35.1388L31.2607 36.3012ZM33.9761 33.9631C35.2013 33.3122 36.4845 32.7758 37.8268 32.354L37.2271 30.446C35.7694 30.9042 34.3726 31.4878 33.0378 32.1969L33.9761 33.9631ZM37.8513 32.3459C39.2463 31.8677 40.5605 31.4296 41.794 31.0317L41.18 29.1283C39.9334 29.5304 38.6076 29.9723 37.2026 30.4541L37.8513 32.3459ZM41.8214 31.0224C43.1189 30.562 44.2262 30.0252 45.1204 29.3992L43.9735 27.7608C43.2678 28.2548 42.335 28.718 41.1525 29.1376L41.8214 31.0224ZM45.1204 29.3992C46.1684 28.6657 46.747 27.6293 46.747 26.36H44.747C44.747 26.9307 44.5256 27.3743 43.9735 27.7608L45.1204 29.3992ZM46.747 26.36V21.98H44.747V26.36H46.747ZM46.747 21.98C46.747 20.6071 46.5342 19.3983 46.0414 18.4128L44.2525 19.3072C44.5597 19.9216 44.747 20.7929 44.747 21.98H46.747ZM46.0661 18.4661C45.622 17.4298 44.9092 16.629 43.9327 16.1151L43.0012 17.8849C43.5447 18.171 43.9519 18.6102 44.2278 19.2539L46.0661 18.4661ZM43.9884 16.1467C43.068 15.5842 41.9523 15.34 40.707 15.34V17.34C41.7016 17.34 42.426 17.5358 42.9455 17.8533L43.9884 16.1467ZM40.707 15.34C39.7714 15.34 38.8063 15.4737 37.8145 15.7324L38.3194 17.6676C39.1676 17.4463 39.9625 17.34 40.707 17.34V15.34ZM37.8145 15.7324C36.7118 16.02 35.7754 16.5817 35.0371 17.4184L36.5368 18.7416C36.9985 18.2183 37.5821 17.86 38.3194 17.6676L37.8145 15.7324ZM35.527 19.0456C36.3808 19.2755 36.9748 19.6808 37.3819 20.2332L38.992 19.0468C38.2791 18.0792 37.2731 17.4445 36.0469 17.1144L35.527 19.0456ZM37.4021 20.2596C37.8466 20.8228 38.087 21.5174 38.087 22.4H40.087C40.087 21.1226 39.7273 19.9772 38.9718 19.0204L37.4021 20.2596ZM38.087 22.4C38.087 23.3876 37.7662 24.075 37.1762 24.5807L38.4777 26.0993C39.5677 25.165 40.087 23.8924 40.087 22.4H38.087ZM37.1793 24.5781C36.5917 25.0775 35.8148 25.36 34.767 25.36V27.36C36.1991 27.36 37.4622 26.9625 38.4746 26.1019L37.1793 24.5781ZM34.767 25.36C33.6751 25.36 32.9924 25.0244 32.5442 24.4708L30.9897 25.7292C31.9015 26.8556 33.2188 27.36 34.767 27.36V25.36ZM32.5442 24.4708C32.0139 23.8157 31.747 23.06 31.747 22.16H29.747C29.747 23.5 30.16 24.7043 30.9897 25.7292L32.5442 24.4708ZM31.747 22.16C31.747 21.2104 31.9816 20.5214 32.3763 20.0139L30.7976 18.7861C30.0723 19.7186 29.747 20.8696 29.747 22.16H31.747ZM32.392 19.9932C32.8575 19.3615 33.5289 18.765 34.4414 18.2175L33.4125 16.5025C32.325 17.155 31.4364 17.9185 30.7819 18.8068L32.392 19.9932ZM34.4893 18.1869C35.3678 17.5896 36.5325 17.0889 38.0153 16.7087L37.5186 14.7713C35.8814 15.1911 34.4862 15.7704 33.3646 16.5331L34.4893 18.1869ZM38.0153 16.7087C39.4836 16.3322 41.0991 16.14 42.867 16.14V14.14C40.9548 14.14 39.1703 14.3478 37.5186 14.7713L38.0153 16.7087ZM42.867 16.14C44.5535 16.14 46.0154 16.3319 47.2648 16.6994L47.8291 14.7806C46.3585 14.3481 44.7004 14.14 42.867 14.14V16.14ZM47.2911 16.7067C48.4868 17.0232 49.4893 17.5966 50.3198 18.4271L51.7341 17.0129C50.6446 15.9234 49.3271 15.1768 47.8028 14.7733L47.2911 16.7067ZM50.335 18.442C51.1419 19.2153 51.6665 20.1709 51.9075 21.3417L53.8664 20.9383C53.5474 19.3891 52.832 18.0647 51.7189 16.998L50.335 18.442ZM51.9075 21.3417C52.1695 22.6144 52.307 24.2025 52.307 26.12H54.307C54.307 24.1175 54.1644 22.3856 53.8664 20.9383L51.9075 21.3417ZM52.307 26.12V42.56H54.307V26.12H52.307ZM52.307 42.56C52.307 43.5919 52.4225 44.5269 52.7891 45.1989L54.5448 44.2411C54.4314 44.0331 54.307 43.5281 54.307 42.56H52.307ZM52.8095 45.2345C53.2537 45.9749 53.984 46.32 54.807 46.32V44.32C54.6753 44.32 54.6168 44.2951 54.5977 44.2851C54.5836 44.2777 54.5587 44.2625 54.5244 44.2055L52.8095 45.2345ZM54.807 46.32C55.3821 46.32 55.9286 46.1741 56.4326 45.8942L55.4613 44.1458C55.2453 44.2659 55.0318 44.32 54.807 44.32V46.32ZM56.4326 45.8942C56.8601 45.6567 57.3101 45.3386 57.7802 44.954L56.5137 43.406C56.1038 43.7414 55.7538 43.9833 55.4613 44.1458L56.4326 45.8942ZM56.3074 44.7233L56.9674 45.7433L58.6465 44.6567L57.9865 43.6367L56.3074 44.7233ZM57.1955 44.4087C56.3802 45.0387 55.5359 45.533 54.6623 45.8969L55.4316 47.7431C56.4781 47.307 57.4737 46.7213 58.4184 45.9913L57.1955 44.4087ZM54.6623 45.8969C53.8554 46.2331 52.8336 46.42 51.567 46.42V48.42C53.0203 48.42 54.3185 48.2069 55.4316 47.7431L54.6623 45.8969ZM51.567 46.42C50.2473 46.42 49.2921 46.2291 48.6369 45.9171L47.777 47.7229C48.8018 48.2109 50.0866 48.42 51.567 48.42V46.42ZM48.6542 45.9256C48.0331 45.615 47.5902 45.1811 47.2919 44.6143L45.522 45.5457C46.0237 46.4989 46.7808 47.225 47.7597 47.7144L48.6542 45.9256ZM47.3107 44.6519C47.0205 44.0393 46.8422 43.2777 46.8062 42.3416L44.8077 42.4184C44.8517 43.5623 45.0734 44.6007 45.5032 45.5081L47.3107 44.6519ZM44.9495 41.8655C44.0598 43.3482 42.9855 44.4672 41.7348 45.2534L42.7991 46.9466C44.3484 45.9728 45.6341 44.6118 46.6644 42.8945L44.9495 41.8655ZM41.7348 45.2534C40.5217 46.0159 39.034 46.42 37.227 46.42V48.42C39.3399 48.42 41.2122 47.9441 42.7991 46.9466L41.7348 45.2534ZM40.827 45.06C41.9792 45.06 43.0487 44.7446 44.0119 44.1184L42.922 42.4416C42.2852 42.8554 41.5947 43.06 40.827 43.06V45.06ZM43.9933 44.1303C44.9856 43.516 45.8439 42.6191 46.5839 41.4872L44.91 40.3927C44.2901 41.3409 43.6284 42.004 42.9406 42.4297L43.9933 44.1303ZM46.747 40.94V28.82H44.747V40.94H46.747ZM44.9149 28.2653C44.6094 28.7235 44.1427 29.1715 43.473 29.5945L44.5409 31.2855C45.3912 30.7485 46.0845 30.1165 46.579 29.3747L44.9149 28.2653ZM43.4523 29.6079C42.7534 30.0738 41.9932 30.5418 41.1708 31.0118L42.1631 32.7482C43.0207 32.2582 43.8205 31.7662 44.5617 31.272L43.4523 29.6079ZM41.1708 31.0118C40.2771 31.5225 39.4277 32.1173 38.6228 32.7951L39.9111 34.3249C40.6262 33.7227 41.3768 33.1975 42.1631 32.7482L41.1708 31.0118ZM38.6268 32.7918C37.8028 33.4784 37.1083 34.336 36.5364 35.3479L38.2775 36.3321C38.7456 35.504 39.2911 34.8416 39.9071 34.3282L38.6268 32.7918ZM36.5291 35.3611C35.9435 36.4348 35.687 37.7555 35.687 39.26H37.687C37.687 37.9645 37.9105 37.0052 38.2849 36.3189L36.5291 35.3611ZM35.687 39.26C35.687 40.9739 36.1052 42.4475 37.0854 43.5309L38.5685 42.1891C38.0287 41.5925 37.687 40.6661 37.687 39.26H35.687ZM37.102 43.5487C38.075 44.573 39.3502 45.06 40.827 45.06V43.06C39.8237 43.06 39.0989 42.747 38.552 42.1712L37.102 43.5487ZM71.1115 15.86L71.4829 14.9315H71.4829L71.1115 15.86ZM73.7515 17.12L74.3439 16.3143C74.327 16.302 74.3098 16.2901 74.2922 16.2788L73.7515 17.12ZM76.2115 15.2V14.2C75.7063 14.2 75.2805 14.5767 75.2189 15.0781L76.2115 15.2ZM77.5315 15.2L78.5291 15.2688C78.5482 14.9923 78.4516 14.7203 78.2625 14.5177C78.0734 14.315 77.8087 14.2 77.5315 14.2V15.2ZM77.3515 19.34L78.3512 19.3656L78.3512 19.365L77.3515 19.34ZM77.2915 25.64V26.64C77.8438 26.64 78.2915 26.1923 78.2915 25.64H77.2915ZM75.9715 25.64L74.9805 25.7739C75.0475 26.2699 75.471 26.64 75.9715 26.64V25.64ZM74.8315 21.32L75.76 20.9486L74.8315 21.32ZM72.3715 17.84L71.7071 18.5874C71.7124 18.5921 71.7177 18.5967 71.723 18.6012L72.3715 17.84ZM64.9915 17.48L64.3407 16.7207C64.3346 16.726 64.3285 16.7313 64.3225 16.7367L64.9915 17.48ZM64.8715 23.72L64.084 24.3363C64.0884 24.342 64.0929 24.3476 64.0975 24.3532L64.8715 23.72ZM67.6315 26.24L67.0502 27.0537C67.0612 27.0615 67.0722 27.0691 67.0835 27.0765L67.6315 26.24ZM71.2315 28.76L70.6356 29.5631C70.6491 29.5731 70.6628 29.5827 70.6768 29.592L71.2315 28.76ZM75.0715 31.7L74.4055 32.4459C74.4105 32.4504 74.4156 32.4549 74.4207 32.4593L75.0715 31.7ZM77.7715 34.94L76.9015 35.433C76.9039 35.4373 76.9063 35.4415 76.9088 35.4457L77.7715 34.94ZM77.2315 43.82L76.446 43.2011L76.4435 43.2044L77.2315 43.82ZM73.2115 46.82L73.5945 47.7438L73.6054 47.7391L73.2115 46.82ZM64.8115 47.54L65.0331 46.5649L64.8115 47.54ZM62.4715 46.76L61.9974 47.6405C62.0133 47.649 62.0294 47.6571 62.0457 47.6648L62.4715 46.76ZM61.0315 45.98L60.517 46.8375C60.5287 46.8445 60.5406 46.8513 60.5526 46.8579L61.0315 45.98ZM59.7715 45.38L59.3243 46.2744C59.3585 46.2916 59.3937 46.3067 59.4297 46.3198L59.7715 45.38ZM58.6915 45.62L57.9441 44.9556C57.9295 44.972 57.9156 44.9888 57.9021 45.0061L58.6915 45.62ZM58.0315 47.42V48.42C58.5116 48.42 58.924 48.0788 59.0138 47.6071L58.0315 47.42ZM56.7115 47.42L55.7134 47.3576C55.6962 47.6331 55.7936 47.9035 55.9827 48.1047C56.1717 48.3059 56.4354 48.42 56.7115 48.42V47.42ZM56.8915 42.74L55.8917 42.7183L56.8915 42.74ZM56.9515 35.42V34.42C56.3992 34.42 55.9515 34.8677 55.9515 35.42H56.9515ZM58.2715 35.42L59.2635 35.2937C59.1999 34.7943 58.775 34.42 58.2715 34.42V35.42ZM59.5315 41.24L58.5828 41.5562C58.5859 41.5654 58.589 41.5745 58.5924 41.5836L59.5315 41.24ZM62.1115 45.14L61.4607 45.8993C61.466 45.9038 61.4713 45.9083 61.4767 45.9127L62.1115 45.14ZM68.5915 46.04L68.1853 45.1262C68.1788 45.1291 68.1722 45.1321 68.1657 45.1352L68.5915 46.04ZM70.3315 44.54L69.5145 43.9633C69.5068 43.9743 69.4992 43.9855 69.4919 43.9967L70.3315 44.54ZM64.7515 33.68L64.1591 34.4856L64.1601 34.4864L64.7515 33.68ZM60.9115 30.74L60.2739 31.5104C60.2782 31.5139 60.2825 31.5174 60.2868 31.5209L60.9115 30.74ZM58.0315 27.5L57.174 28.0145C57.1781 28.0214 57.1824 28.0283 57.1867 28.035L58.0315 27.5ZM58.3315 18.8L59.115 19.4214C59.1184 19.4171 59.1218 19.4128 59.1251 19.4084L58.3315 18.8ZM61.9315 16.1L62.3072 17.0268L62.3195 17.0216L61.9315 16.1ZM66.7915 16.14C68.3806 16.14 69.6878 16.3676 70.7401 16.7885L71.4829 14.9315C70.1352 14.3924 68.5624 14.14 66.7915 14.14V16.14ZM70.7401 16.7885C71.9252 17.2625 72.7333 17.6542 73.2107 17.9612L74.2922 16.2788C73.6497 15.8658 72.6978 15.4175 71.4829 14.9315L70.7401 16.7885ZM73.1591 17.9256C73.565 18.2241 74.0188 18.4685 74.5073 18.5491C75.0363 18.6365 75.5615 18.5219 76.0018 18.1783C76.4067 17.8622 76.6639 17.412 76.836 16.955C77.0113 16.4897 77.1284 15.9374 77.204 15.3219L75.2189 15.0781C75.1545 15.6026 75.0641 15.9853 74.9644 16.25C74.9154 16.3802 74.8688 16.469 74.8311 16.5267C74.7938 16.584 74.771 16.6018 74.7712 16.6017C74.8014 16.5781 74.8492 16.5785 74.8332 16.5759C74.7766 16.5665 74.618 16.5159 74.3439 16.3143L73.1591 17.9256ZM76.2115 16.2H77.5315V14.2H76.2115V16.2ZM76.5339 15.1312C76.4526 16.31 76.392 17.7054 76.3518 19.315L78.3512 19.365C78.3909 17.7746 78.4504 16.41 78.5291 15.2688L76.5339 15.1312ZM76.3518 19.3144C76.3115 20.8867 76.2915 22.9964 76.2915 25.64H78.2915C78.2915 23.0036 78.3115 20.9133 78.3512 19.3656L76.3518 19.3144ZM77.2915 24.64H75.9715V26.64H77.2915V24.64ZM76.9625 25.5061C76.7514 23.9439 76.3502 22.4242 75.76 20.9486L73.903 21.6914C74.4328 23.0158 74.7916 24.3761 74.9805 25.7739L76.9625 25.5061ZM75.76 20.9486C75.1436 19.4076 74.2313 18.1106 73.02 17.0788L71.723 18.6012C72.6717 19.4093 73.3994 20.4324 73.903 21.6914L75.76 20.9486ZM73.0359 17.0926C71.7349 15.9362 70.0605 15.4 68.1115 15.4V17.4C69.6825 17.4 70.848 17.8238 71.7071 18.5874L73.0359 17.0926ZM68.1115 15.4C66.6636 15.4 65.384 15.8265 64.3407 16.7207L65.6423 18.2393C66.2789 17.6935 67.0794 17.4 68.1115 17.4V15.4ZM64.3225 16.7367C63.2652 17.6883 62.7915 19.0059 62.7915 20.54H64.7915C64.7915 19.4341 65.1178 18.7117 65.6604 18.2233L64.3225 16.7367ZM62.7915 20.54C62.7915 21.9568 63.2223 23.2353 64.084 24.3363L65.659 23.1037C65.0807 22.3647 64.7915 21.5232 64.7915 20.54H62.7915ZM64.0975 24.3532C64.8838 25.3142 65.8729 26.2127 67.0502 27.0537L68.2127 25.4263C67.1501 24.6673 66.2992 23.8858 65.6454 23.0868L64.0975 24.3532ZM67.0835 27.0765C68.2255 27.8247 69.4095 28.6534 70.6356 29.5631L71.8273 27.9569C70.5734 27.0266 69.3575 26.1753 68.1795 25.4035L67.0835 27.0765ZM70.6768 29.592C72.0835 30.5298 73.3253 31.4815 74.4055 32.4459L75.7375 30.9541C74.5777 29.9185 73.2595 28.9102 71.7862 27.9279L70.6768 29.592ZM74.4207 32.4593C75.4589 33.3491 76.2824 34.3406 76.9015 35.433L78.6415 34.447C77.9005 33.1394 76.9241 31.9709 75.7223 30.9407L74.4207 32.4593ZM76.9088 35.4457C77.4831 36.4255 77.7915 37.6238 77.7915 39.08H79.7915C79.7915 37.3362 79.4198 35.7745 78.6342 34.4343L76.9088 35.4457ZM77.7915 39.08C77.7915 40.7181 77.3336 42.0745 76.446 43.2011L78.017 44.4389C79.2093 42.9255 79.7915 41.1219 79.7915 39.08H77.7915ZM76.4435 43.2044C75.5596 44.3357 74.3624 45.2388 72.8176 45.9009L73.6054 47.7391C75.4205 46.9612 76.9034 45.8643 78.0195 44.4356L76.4435 43.2044ZM72.8285 45.8963C71.3243 46.5199 69.6366 46.84 67.7515 46.84V48.84C69.8663 48.84 71.8186 48.4801 73.5945 47.7437L72.8285 45.8963ZM67.7515 46.84C66.732 46.84 65.8278 46.7455 65.0331 46.5649L64.5899 48.5151C65.5551 48.7345 66.611 48.84 67.7515 48.84V46.84ZM65.0331 46.5649C64.21 46.3778 63.5005 46.139 62.8973 45.8552L62.0457 47.6648C62.8025 48.021 63.653 48.3022 64.5899 48.5151L65.0331 46.5649ZM62.9456 45.8795C62.4269 45.6002 61.9485 45.3411 61.5103 45.1021L60.5526 46.8579C60.9945 47.0989 61.4761 47.3598 61.9974 47.6405L62.9456 45.8795ZM61.546 45.1225C61.091 44.8495 60.6131 44.622 60.1132 44.4402L59.4297 46.3198C59.8099 46.458 60.172 46.6305 60.517 46.8375L61.546 45.1225ZM60.2187 44.4856C59.8585 44.3055 59.4336 44.214 58.9846 44.3138C58.5446 44.4116 58.2012 44.6664 57.9441 44.9556L59.4389 46.2844C59.47 46.2494 59.4856 46.2399 59.4822 46.2421C59.4772 46.2453 59.4553 46.258 59.4184 46.2662C59.3807 46.2746 59.3465 46.274 59.323 46.2703C59.3018 46.2669 59.3014 46.263 59.3243 46.2744L60.2187 44.4856ZM57.9021 45.0061C57.4727 45.5582 57.2172 46.3508 57.0491 47.2329L59.0138 47.6071C59.1658 46.8092 59.3503 46.4018 59.4808 46.2339L57.9021 45.0061ZM58.0315 46.42H56.7115V48.42H58.0315V46.42ZM57.7095 47.4824C57.7907 46.1844 57.8511 44.61 57.8912 42.7617L55.8917 42.7183C55.8519 44.55 55.7923 46.0956 55.7134 47.3576L57.7095 47.4824ZM57.8912 42.7617C57.9315 40.9114 57.9515 38.4632 57.9515 35.42H55.9515C55.9515 38.4568 55.9315 40.8886 55.8917 42.7183L57.8912 42.7617ZM56.9515 36.42H58.2715V34.42H56.9515V36.42ZM57.2795 35.5463C57.5657 37.7954 57.9978 39.8013 58.5828 41.5562L60.4802 40.9238C59.9451 39.3187 59.5372 37.4446 59.2635 35.2937L57.2795 35.5463ZM58.5924 41.5836C59.2404 43.3549 60.1885 44.8088 61.4607 45.8993L62.7623 44.3807C61.7945 43.5512 61.0226 42.4051 60.4706 40.8964L58.5924 41.5836ZM61.4767 45.9127C62.8117 47.0093 64.4914 47.52 66.4315 47.52V45.52C64.8516 45.52 63.6513 45.1107 62.7462 44.3673L61.4767 45.9127ZM66.4315 47.52C67.337 47.52 68.2025 47.3282 69.0173 46.9448L68.1657 45.1352C67.6204 45.3918 67.046 45.52 66.4315 45.52V47.52ZM68.9976 46.9538C69.9002 46.5527 70.6287 45.9214 71.1711 45.0833L69.4919 43.9967C69.1542 44.5186 68.7228 44.8873 68.1853 45.1262L68.9976 46.9538ZM71.1485 45.1167C71.7861 44.2133 72.0515 43.0676 72.0515 41.78H70.0515C70.0515 42.8124 69.8368 43.5067 69.5145 43.9633L71.1485 45.1167ZM72.0515 41.78C72.0515 39.7654 71.353 38.0406 69.9465 36.681L68.5565 38.119C69.55 39.0794 70.0515 40.2746 70.0515 41.78H72.0515ZM69.9465 36.681C68.7052 35.4811 67.168 34.212 65.3428 32.8736L64.1601 34.4864C65.935 35.788 67.3977 36.9989 68.5565 38.119L69.9465 36.681ZM65.3439 32.8743C63.9938 31.8816 62.7246 30.9099 61.5362 29.9591L60.2868 31.5209C61.4984 32.4901 62.7892 33.4784 64.1591 34.4856L65.3439 32.8743ZM61.5491 29.9696C60.4652 29.0726 59.5767 28.0709 58.8763 26.9649L57.1867 28.035C58.0062 29.3291 59.0378 30.4874 60.2739 31.5104L61.5491 29.9696ZM58.889 26.9855C58.2772 25.9659 57.9515 24.7303 57.9515 23.24H55.9515C55.9515 25.0297 56.3458 26.6341 57.174 28.0145L58.889 26.9855ZM57.9515 23.24C57.9515 21.6154 58.3635 20.3689 59.115 19.4214L57.548 18.1786C56.4595 19.5511 55.9515 21.2646 55.9515 23.24H57.9515ZM59.1251 19.4084C59.9305 18.3579 60.9827 17.5637 62.3072 17.0267L61.5558 15.1733C59.9203 15.8363 58.5725 16.8421 57.5379 18.1916L59.1251 19.4084ZM62.3195 17.0216C63.7114 16.4356 65.1989 16.14 66.7915 16.14V14.14C64.944 14.14 63.1915 14.4844 61.5434 15.1784L62.3195 17.0216ZM89.7734 0.0199966H90.7734C90.7734 -0.287939 90.6315 -0.578701 90.3888 -0.768209C90.1461 -0.957716 89.8296 -1.02483 89.5308 -0.950146L89.7734 0.0199966ZM89.7734 21.26H88.7734C88.7734 21.732 89.1034 22.1397 89.565 22.238C90.0266 22.3364 90.4941 22.0986 90.6865 21.6676L89.7734 21.26ZM93.9134 16.52L93.4582 15.6295L93.4501 15.6338L93.9134 16.52ZM103.753 15.8L104.143 14.879V14.879L103.753 15.8ZM106.273 17.48L107.019 16.8132C107.013 16.8069 107.007 16.8008 107.002 16.7946L106.273 17.48ZM107.713 20.42L106.74 20.6472C106.742 20.6574 106.744 20.6676 106.747 20.6777L107.713 20.42ZM109.093 44.84L108.386 45.5471C108.394 45.5547 108.402 45.5622 108.409 45.5695L109.093 44.84ZM112.273 45.74H113.273C113.273 45.1877 112.826 44.74 112.273 44.74V45.74ZM112.273 47L112.218 47.9985C112.492 48.0137 112.761 47.9153 112.961 47.7265C113.16 47.5376 113.273 47.2748 113.273 47H112.273ZM108.973 46.88L108.919 47.8785C108.928 47.879 108.937 47.8794 108.946 47.8796L108.973 46.88ZM100.333 46.88L100.362 47.8796C100.371 47.8793 100.381 47.8789 100.39 47.8784L100.333 46.88ZM97.1534 47H96.1534C96.1534 47.2748 96.2665 47.5376 96.4661 47.7265C96.6658 47.9153 96.9344 48.0137 97.2088 47.9985L97.1534 47ZM97.1534 45.74V44.74C96.6011 44.74 96.1534 45.1877 96.1534 45.74H97.1534ZM99.8534 44.84L99.0977 44.1851L99.8534 44.84ZM100.333 20.36L99.3582 20.5816L99.3606 20.5916L100.333 20.36ZM99.1334 18.32L98.4529 19.0528C98.4709 19.0695 98.4895 19.0855 98.5087 19.1009L99.1334 18.32ZM93.0734 18.62L93.6357 19.447L93.6426 19.4422L93.0734 18.62ZM90.6734 21.56L91.5736 21.9956L91.5788 21.9844L90.6734 21.56ZM90.5534 44.84L89.7977 45.4949C89.8057 45.5042 89.8139 45.5133 89.8223 45.5223L90.5534 44.84ZM93.2534 45.74H94.2534C94.2534 45.1877 93.8056 44.74 93.2534 44.74V45.74ZM93.2534 47L93.1946 47.9983C93.4696 48.0145 93.739 47.9165 93.9394 47.7276C94.1398 47.5386 94.2534 47.2754 94.2534 47H93.2534ZM90.1934 46.88L90.1329 47.8782C90.1432 47.8788 90.1536 47.8793 90.164 47.8796L90.1934 46.88ZM81.5534 46.88L81.5797 47.8797C81.588 47.8794 81.5963 47.8791 81.6046 47.8787L81.5534 46.88ZM78.1334 47H77.1334C77.1334 47.2743 77.2461 47.5366 77.4451 47.7254C77.6441 47.9143 77.912 48.013 78.1859 47.9986L78.1334 47ZM78.1334 45.74V44.74C77.5811 44.74 77.1334 45.1877 77.1334 45.74H78.1334ZM81.2534 44.84L80.5694 44.1105C80.5616 44.1178 80.5539 44.1253 80.5463 44.1329L81.2534 44.84ZM81.3134 3.26L80.4697 3.79687C80.4793 3.81193 80.4893 3.82672 80.4996 3.84124L81.3134 3.26ZM78.1334 1.94H77.1334C77.1334 2.49228 77.5811 2.94 78.1334 2.94V1.94ZM78.1334 0.679998L78.2267 -0.315636C77.9465 -0.341906 77.6682 -0.248873 77.4601 -0.0593719C77.252 0.130129 77.1334 0.398548 77.1334 0.679998H78.1334ZM86.1134 0.679998L86.2039 1.67589C86.2138 1.67499 86.2238 1.67393 86.2337 1.67273L86.1134 0.679998ZM88.7734 0.0199966V21.26H90.7734V0.0199966H88.7734ZM90.6865 21.6676C91.6169 19.5837 92.8595 18.1992 94.3766 17.4062L93.4501 15.6338C91.4472 16.6807 89.9299 18.4563 88.8602 20.8523L90.6865 21.6676ZM94.3685 17.4104C96.0234 16.5646 97.8069 16.14 99.7334 16.14V14.14C97.4999 14.14 95.4033 14.6354 93.4583 15.6296L94.3685 17.4104ZM99.7334 16.14C101.295 16.14 102.49 16.3511 103.364 16.721L104.143 14.879C102.937 14.3689 101.452 14.14 99.7334 14.14V16.14ZM103.364 16.721C104.302 17.1179 105.018 17.6054 105.545 18.1654L107.002 16.7946C106.249 15.9946 105.285 15.3621 104.143 14.879L103.364 16.721ZM105.528 18.1468C106.075 18.7582 106.49 19.5768 106.74 20.6472L108.687 20.1928C108.377 18.8632 107.832 17.7218 107.019 16.8132L105.528 18.1468ZM106.747 20.6777C107.035 21.7573 107.193 23.279 107.193 25.28H109.193C109.193 23.201 109.032 21.4827 108.68 20.1623L106.747 20.6777ZM107.193 25.28V41.42H109.193V25.28H107.193ZM107.193 41.42C107.193 43.1386 107.484 44.6444 108.386 45.5471L109.8 44.1329C109.503 43.8356 109.193 43.0614 109.193 41.42H107.193ZM108.409 45.5695C109.327 46.4294 110.702 46.74 112.273 46.74V44.74C110.885 44.74 110.14 44.4506 109.777 44.1105L108.409 45.5695ZM111.273 45.74V47H113.273V45.74H111.273ZM112.329 46.0015C111.594 45.9607 110.482 45.9204 109 45.8804L108.946 47.8796C110.425 47.9196 111.513 47.9593 112.218 47.9985L112.329 46.0015ZM109.027 45.8815C107.53 45.8005 106.052 45.76 104.593 45.76V47.76C106.015 47.76 107.457 47.7995 108.919 47.8785L109.027 45.8815ZM104.593 45.76C103.135 45.76 101.696 45.8005 100.276 45.8816L100.39 47.8784C101.771 47.7995 103.172 47.76 104.593 47.76V45.76ZM100.305 45.8804C98.9025 45.9205 97.8317 45.9608 97.0979 46.0015L97.2088 47.9985C97.915 47.9592 98.9642 47.9195 100.362 47.8796L100.305 45.8804ZM98.1534 47V45.74H96.1534V47H98.1534ZM97.1534 46.74C98.5492 46.74 99.8089 46.4182 100.609 45.4949L99.0977 44.1851C98.8578 44.4618 98.3175 44.74 97.1534 44.74V46.74ZM100.609 45.4949C101.015 45.0261 101.263 44.4173 101.413 43.7574C101.565 43.0904 101.633 42.3053 101.633 41.42H99.6334C99.6334 42.2147 99.5713 42.8396 99.4634 43.3126C99.3539 43.7927 99.2113 44.0539 99.0977 44.1851L100.609 45.4949ZM101.633 41.42V23.24H99.6334V41.42H101.633ZM101.633 23.24C101.633 22.1005 101.528 21.0604 101.306 20.1284L99.3606 20.5916C99.5387 21.3396 99.6334 22.2195 99.6334 23.24H101.633ZM101.308 20.1384C101.067 19.0778 100.564 18.1843 99.7581 17.5391L98.5087 19.1009C98.9023 19.4157 99.1993 19.8822 99.3582 20.5816L101.308 20.1384ZM99.8138 17.5872C98.993 16.825 97.8386 16.54 96.5534 16.54V18.54C97.5881 18.54 98.1537 18.775 98.4529 19.0528L99.8138 17.5872ZM96.5534 16.54C95.0726 16.54 93.7135 16.9606 92.5042 17.7978L93.6426 19.4422C94.5132 18.8394 95.4742 18.54 96.5534 18.54V16.54ZM92.5111 17.7931C91.3391 18.59 90.4311 19.7208 89.7679 21.1356L91.5788 21.9844C92.1157 20.8392 92.8076 20.01 93.6357 19.4469L92.5111 17.7931ZM89.7732 21.1244C89.0977 22.5205 88.7734 24.0934 88.7734 25.82H90.7734C90.7734 24.3466 91.049 23.0795 91.5735 21.9956L89.7732 21.1244ZM88.7734 25.82V41.42H90.7734V25.82H88.7734ZM88.7734 41.42C88.7734 42.3053 88.8413 43.0904 88.9934 43.7574C89.1439 44.4173 89.3913 45.0261 89.7977 45.4949L91.3091 44.1851C91.1954 44.0539 91.0528 43.7927 90.9433 43.3126C90.8354 42.8396 90.7734 42.2147 90.7734 41.42H88.7734ZM89.8223 45.5223C90.6499 46.409 91.8772 46.74 93.2534 46.74V44.74C92.1495 44.74 91.5768 44.471 91.2844 44.1577L89.8223 45.5223ZM92.2534 45.74V47H94.2534V45.74H92.2534ZM93.3121 46.0017C92.6169 45.9608 91.5849 45.9205 90.2228 45.8804L90.164 47.8796C91.5218 47.9195 92.5298 47.9592 93.1946 47.9983L93.3121 46.0017ZM90.2539 45.8818C88.912 45.8005 87.5118 45.76 86.0534 45.76V47.76C87.4749 47.76 88.8347 47.7995 90.1329 47.8782L90.2539 45.8818ZM86.0534 45.76C84.5949 45.76 83.0778 45.8005 81.5022 45.8813L81.6046 47.8787C83.1489 47.7995 84.6318 47.76 86.0534 47.76V45.76ZM81.5271 45.8803C80.0051 45.9204 78.8544 45.9607 78.0808 46.0014L78.1859 47.9986C78.9323 47.9593 80.0616 47.9196 81.5797 47.8797L81.5271 45.8803ZM79.1334 47V45.74H77.1334V47H79.1334ZM78.1334 46.74C79.6957 46.74 81.0744 46.4332 81.9605 45.5471L80.5463 44.1329C80.2323 44.4468 79.531 44.74 78.1334 44.74V46.74ZM81.9373 45.5695C82.8995 44.6675 83.2134 43.15 83.2134 41.42H81.2134C81.2134 43.05 80.8872 43.8125 80.5694 44.1105L81.9373 45.5695ZM83.2134 41.42V7.22H81.2134V41.42H83.2134ZM83.2134 7.22C83.2134 5.34913 82.9091 3.77362 82.1271 2.67876L80.4996 3.84124C80.9176 4.42638 81.2134 5.49087 81.2134 7.22H83.2134ZM82.157 2.72312C81.3337 1.42938 79.8541 0.939997 78.1334 0.939997V2.94C79.5326 2.94 80.173 3.33062 80.4697 3.79687L82.157 2.72312ZM79.1334 1.94V0.679998H77.1334V1.94H79.1334ZM78.04 1.67563C79.3489 1.79834 80.6201 1.86 81.8534 1.86V-0.140003C80.6866 -0.140003 79.4779 -0.198341 78.2267 -0.315636L78.04 1.67563ZM81.8534 1.86C83.3993 1.86 84.8498 1.79899 86.2039 1.67589L86.0228 -0.315895C84.7369 -0.198994 83.3474 -0.140003 81.8534 -0.140003V1.86ZM86.2337 1.67273C87.5888 1.50847 88.8502 1.28157 90.0159 0.990139L89.5308 -0.950146C88.4565 -0.681574 87.2779 -0.468475 85.993 -0.312735L86.2337 1.67273ZM113.387 46.64L112.697 47.3641C112.703 47.3695 112.709 47.3747 112.714 47.3799L113.387 46.64ZM113.387 40.28L112.714 39.5401C112.709 39.5453 112.703 39.5505 112.697 39.5559L113.387 40.28ZM116.807 40.08C117.957 40.08 118.825 40.4113 119.494 41.0199L120.84 39.5401C119.749 38.5487 118.378 38.08 116.807 38.08V40.08ZM119.494 41.0199C120.142 41.6084 120.487 42.3873 120.487 43.46H122.487C122.487 41.8927 121.952 40.5516 120.84 39.5401L119.494 41.0199ZM120.487 43.46C120.487 44.5327 120.142 45.3116 119.494 45.9001L120.84 47.3799C121.952 46.3684 122.487 45.0273 122.487 43.46H120.487ZM119.494 45.9001C118.825 46.5087 117.957 46.84 116.807 46.84V48.84C118.378 48.84 119.749 48.3713 120.84 47.3799L119.494 45.9001ZM116.807 46.84C115.609 46.84 114.724 46.5037 114.06 45.9001L112.714 47.3799C113.81 48.3763 115.205 48.84 116.807 48.84V46.84ZM114.077 45.9159C113.463 45.3314 113.127 44.5477 113.127 43.46H111.127C111.127 45.0123 111.631 46.3486 112.697 47.3641L114.077 45.9159ZM113.127 43.46C113.127 42.3723 113.463 41.5886 114.077 41.0041L112.697 39.5559C111.631 40.5714 111.127 41.9077 111.127 43.46H113.127ZM114.06 41.0199C114.724 40.4163 115.609 40.08 116.807 40.08V38.08C115.205 38.08 113.81 38.5437 112.714 39.5401L114.06 41.0199Z" fill="black" fill-opacity="0.1" mask="url(#path-1-outside-1_229_323)"/>
</svg>
