<svg width="60" height="60" viewBox="0 0 60 60" fill="none" xmlns="http://www.w3.org/2000/svg">
<rect width="60" height="60" rx="5" fill="white"/>
<path d="M15.2319 18.485L15.3719 19.395L5.53691 33.325L5.50191 32.765H16.2119C17.1686 32.765 17.7752 32.6367 18.0319 32.38C18.2886 32.1 18.4636 31.6333 18.5569 30.98H19.1519C19.1519 32.1233 19.1636 32.9983 19.1869 33.605C19.2102 34.2117 19.2452 34.7717 19.2919 35.285C19.1286 35.2383 18.8602 35.215 18.4869 35.215C18.1369 35.1917 17.7169 35.1683 17.2269 35.145C16.7369 35.1217 16.2236 35.11 15.6869 35.11C15.1502 35.11 14.6136 35.11 14.0769 35.11H3.85691V34.375L15.2319 18.485ZM15.7919 18.485V41.935H12.9919V22.195L15.2319 18.485H15.7919ZM30.1818 18.485C31.8385 18.485 33.2968 18.87 34.5568 19.64C35.8402 20.3867 36.8435 21.4483 37.5668 22.825C38.2902 24.2017 38.6518 25.8233 38.6518 27.69C38.6518 29.5567 38.2785 31.2367 37.5318 32.73C36.7852 34.2 35.7468 35.3667 34.4168 36.23C33.1102 37.07 31.5702 37.49 29.7968 37.49C28.1868 37.49 26.7402 37.1167 25.4568 36.37C24.1735 35.6 23.1585 34.5267 22.4118 33.15C21.6885 31.75 21.3268 30.1167 21.3268 28.25C21.3268 26.4067 21.6885 24.75 22.4118 23.28C23.1585 21.81 24.1968 20.6433 25.5268 19.78C26.8568 18.9167 28.4085 18.485 30.1818 18.485ZM29.8668 19.115C28.3735 19.115 27.1368 19.9083 26.1568 21.495C25.2002 23.0817 24.7218 25.2983 24.7218 28.145C24.7218 30.245 24.9668 31.9367 25.4568 33.22C25.9468 34.48 26.6002 35.4017 27.4168 35.985C28.2568 36.5683 29.1552 36.86 30.1118 36.86C31.6285 36.86 32.8652 36.0667 33.8218 34.48C34.7785 32.87 35.2568 30.6417 35.2568 27.795C35.2568 25.695 35.0118 24.015 34.5218 22.755C34.0318 21.4717 33.3785 20.55 32.5618 19.99C31.7452 19.4067 30.8468 19.115 29.8668 19.115ZM51.4132 18.485L51.5532 19.395L41.7182 33.325L41.6832 32.765H52.3932C53.3498 32.765 53.9565 32.6367 54.2132 32.38C54.4698 32.1 54.6448 31.6333 54.7382 30.98H55.3332C55.3332 32.1233 55.3448 32.9983 55.3682 33.605C55.3915 34.2117 55.4265 34.7717 55.4732 35.285C55.3098 35.2383 55.0415 35.215 54.6682 35.215C54.3182 35.1917 53.8982 35.1683 53.4082 35.145C52.9182 35.1217 52.4048 35.11 51.8682 35.11C51.3315 35.11 50.7948 35.11 50.2582 35.11H40.0382V34.375L51.4132 18.485ZM51.9732 18.485V41.935H49.1732V22.195L51.4132 18.485H51.9732Z" fill="#0B7DA5"/>
</svg>
