<svg width="33" height="33" viewBox="0 0 33 33" fill="none" xmlns="http://www.w3.org/2000/svg">
<g filter="url(#filter0_d_229_341)">
<path d="M7.66117 3.66117C10.0054 1.31696 13.1848 0 16.5 0C19.8152 0 22.9946 1.31696 25.3388 3.66117C27.683 6.00537 29 9.18479 29 12.5C29 15.8152 27.683 18.9946 25.3388 21.3388L16.5 12.5L7.66117 3.66117Z" fill="black"/>
</g>
<g filter="url(#filter1_d_229_341)">
<path d="M25.3388 21.3379C22.9946 23.6821 19.8152 24.999 16.5 24.999C13.1848 24.999 10.0054 23.6821 7.66116 21.3379C5.31696 18.9937 4 15.8142 4 12.499C4 9.18382 5.31696 6.00439 7.66116 3.66019L9.87087 5.8699C8.11272 7.62805 7.125 10.0126 7.125 12.499C7.125 14.9854 8.11272 17.37 9.87087 19.1281C11.629 20.8863 14.0136 21.874 16.5 21.874C18.9864 21.874 21.371 20.8863 23.1291 19.1281L25.3388 21.3379Z" fill="white"/>
</g>
<defs>
<filter id="filter0_d_229_341" x="3.66119" y="0" width="29.3388" height="29.3389" filterUnits="userSpaceOnUse" color-interpolation-filters="sRGB">
<feFlood flood-opacity="0" result="BackgroundImageFix"/>
<feColorMatrix in="SourceAlpha" type="matrix" values="0 0 0 0 0 0 0 0 0 0 0 0 0 0 0 0 0 0 127 0" result="hardAlpha"/>
<feOffset dy="4"/>
<feGaussianBlur stdDeviation="2"/>
<feComposite in2="hardAlpha" operator="out"/>
<feColorMatrix type="matrix" values="0 0 0 0 0 0 0 0 0 0 0 0 0 0 0 0 0 0 0.25 0"/>
<feBlend mode="normal" in2="BackgroundImageFix" result="effect1_dropShadow_229_341"/>
<feBlend mode="normal" in="SourceGraphic" in2="effect1_dropShadow_229_341" result="shape"/>
</filter>
<filter id="filter1_d_229_341" x="0" y="3.66016" width="29.3388" height="29.3389" filterUnits="userSpaceOnUse" color-interpolation-filters="sRGB">
<feFlood flood-opacity="0" result="BackgroundImageFix"/>
<feColorMatrix in="SourceAlpha" type="matrix" values="0 0 0 0 0 0 0 0 0 0 0 0 0 0 0 0 0 0 127 0" result="hardAlpha"/>
<feOffset dy="4"/>
<feGaussianBlur stdDeviation="2"/>
<feComposite in2="hardAlpha" operator="out"/>
<feColorMatrix type="matrix" values="0 0 0 0 0 0 0 0 0 0 0 0 0 0 0 0 0 0 0.25 0"/>
<feBlend mode="normal" in2="BackgroundImageFix" result="effect1_dropShadow_229_341"/>
<feBlend mode="normal" in="SourceGraphic" in2="effect1_dropShadow_229_341" result="shape"/>
</filter>
</defs>
</svg>
