<svg width="33" height="33" viewBox="0 0 33 33" fill="none" xmlns="http://www.w3.org/2000/svg">
<g filter="url(#filter0_d_229_324)">
<path d="M25.3388 21.3388C22.9946 23.683 19.8152 25 16.5 25C13.1848 25 10.0054 23.683 7.66117 21.3388C5.31696 18.9946 4 15.8152 4 12.5C4 9.18479 5.31696 6.00537 7.66116 3.66117L16.5 12.5L25.3388 21.3388Z" fill="#2E2E2E"/>
</g>
<g filter="url(#filter1_d_229_324)">
<path d="M7.66117 3.65995C10.0054 1.31574 13.1848 -0.00121623 16.5 -0.00121623C19.8152 -0.00121623 22.9946 1.31574 25.3388 3.65995C27.683 6.00415 29 9.18358 29 12.4988C29 15.814 27.683 18.9934 25.3388 21.3376L16.5 12.4988L7.66117 3.65995Z" fill="white"/>
</g>
<defs>
<filter id="filter0_d_229_324" x="0" y="3.66113" width="29.3388" height="29.3389" filterUnits="userSpaceOnUse" color-interpolation-filters="sRGB">
<feFlood flood-opacity="0" result="BackgroundImageFix"/>
<feColorMatrix in="SourceAlpha" type="matrix" values="0 0 0 0 0 0 0 0 0 0 0 0 0 0 0 0 0 0 127 0" result="hardAlpha"/>
<feOffset dy="4"/>
<feGaussianBlur stdDeviation="2"/>
<feComposite in2="hardAlpha" operator="out"/>
<feColorMatrix type="matrix" values="0 0 0 0 0 0 0 0 0 0 0 0 0 0 0 0 0 0 0.25 0"/>
<feBlend mode="normal" in2="BackgroundImageFix" result="effect1_dropShadow_229_324"/>
<feBlend mode="normal" in="SourceGraphic" in2="effect1_dropShadow_229_324" result="shape"/>
</filter>
<filter id="filter1_d_229_324" x="3.66119" y="-0.0012207" width="29.3388" height="29.3389" filterUnits="userSpaceOnUse" color-interpolation-filters="sRGB">
<feFlood flood-opacity="0" result="BackgroundImageFix"/>
<feColorMatrix in="SourceAlpha" type="matrix" values="0 0 0 0 0 0 0 0 0 0 0 0 0 0 0 0 0 0 127 0" result="hardAlpha"/>
<feOffset dy="4"/>
<feGaussianBlur stdDeviation="2"/>
<feComposite in2="hardAlpha" operator="out"/>
<feColorMatrix type="matrix" values="0 0 0 0 0 0 0 0 0 0 0 0 0 0 0 0 0 0 0.25 0"/>
<feBlend mode="normal" in2="BackgroundImageFix" result="effect1_dropShadow_229_324"/>
<feBlend mode="normal" in="SourceGraphic" in2="effect1_dropShadow_229_324" result="shape"/>
</filter>
</defs>
</svg>
