<svg width="25" height="25" viewBox="0 0 25 25" fill="none" xmlns="http://www.w3.org/2000/svg">
<path d="M21.3388 21.3388C18.9946 23.683 15.8152 25 12.5 25C9.18479 25 6.00537 23.683 3.66117 21.3388C1.31696 18.9946 1.54779e-07 15.8152 0 12.5C-1.54779e-07 9.18479 1.31696 6.00537 3.66116 3.66117L12.5 12.5L21.3388 21.3388Z" fill="black"/>
<path d="M3.66117 3.65995C6.00537 1.31574 9.1848 -0.00121623 12.5 -0.00121623C15.8152 -0.00121624 18.9946 1.31574 21.3388 3.65995C23.683 6.00415 25 9.18358 25 12.4988C25 15.814 23.683 18.9934 21.3388 21.3376L12.5 12.4988L3.66117 3.65995Z" fill="white"/>
</svg>
