<svg width="22" height="29" viewBox="0 0 22 29" fill="none" xmlns="http://www.w3.org/2000/svg">
<path d="M21.24 0.319999V1.16C20.7333 1.26667 20.2533 1.54667 19.8 2C19.3733 2.45333 18.96 3.25333 18.56 4.4L12.64 20.64L11.4 22.52L3.16 3.4C2.65333 2.38667 2.17333 1.76 1.72 1.52C1.26667 1.28 0.893333 1.16 0.6 1.16V0.319999C1.37333 0.4 2.17333 0.466666 3 0.519999C3.85333 0.546665 4.70667 0.559999 5.56 0.559999C6.54667 0.559999 7.49333 0.533332 8.4 0.48C9.33333 0.426665 10.2 0.373332 11 0.319999V1.16C10.3867 1.16 9.84 1.2 9.36 1.28C8.88 1.36 8.56 1.58667 8.4 1.96C8.26667 2.30667 8.37333 2.92 8.72 3.8L13.72 16L13.4 16.16L16.92 6.64C17.3733 5.38667 17.56 4.37333 17.48 3.6C17.4 2.82667 17.1067 2.24 16.6 1.84C16.0933 1.44 15.4 1.21333 14.52 1.16V0.319999C14.9467 0.346666 15.3733 0.373332 15.8 0.399998C16.2267 0.426666 16.64 0.453333 17.04 0.48C17.44 0.48 17.8267 0.48 18.2 0.48C18.76 0.48 19.3067 0.466666 19.84 0.44C20.4 0.413332 20.8667 0.373332 21.24 0.319999ZM12.64 20.64L11.12 24.68C10.88 25.3467 10.6133 25.9067 10.32 26.36C10.0533 26.84 9.74667 27.2267 9.4 27.52C9 27.8667 8.50667 28.12 7.92 28.28C7.36 28.44 6.73333 28.52 6.04 28.52C5.42667 28.52 4.82667 28.4133 4.24 28.2C3.68 27.9867 3.2 27.6667 2.8 27.24C2.42667 26.8133 2.24 26.2533 2.24 25.56C2.24 24.8133 2.49333 24.2133 3 23.76C3.50667 23.3067 4.2 23.08 5.08 23.08C5.85333 23.08 6.48 23.2667 6.96 23.64C7.46667 24.04 7.72 24.6267 7.72 25.4C7.72 25.9067 7.57333 26.36 7.28 26.76C6.98667 27.16 6.57333 27.4667 6.04 27.68C6.17333 27.7067 6.29333 27.72 6.4 27.72C6.53333 27.7467 6.64 27.76 6.72 27.76C7.49333 27.76 8.18667 27.5067 8.8 27C9.41333 26.4933 9.90667 25.6933 10.28 24.6L11.72 20.64H12.64Z" fill="#0B7DA5"/>
</svg>
