<svg width="117" height="49" viewBox="0 0 117 49" fill="none" xmlns="http://www.w3.org/2000/svg">
<path d="M4.27539 18.2012C3.88477 17.2083 3.51855 16.4596 3.17676 15.9551C2.85124 15.4505 2.46875 15.0843 2.0293 14.8564C1.58984 14.6123 1.01204 14.417 0.295898 14.2705V12.8301H12.9424V14.2705C11.4124 14.4333 10.4928 14.7669 10.1836 15.2715C9.87435 15.7598 9.98828 16.7607 10.5254 18.2744L15.4814 31.6777H14.6758L19.6807 18.3477C20.055 17.3223 20.234 16.5329 20.2178 15.9795C20.2178 15.4261 19.9818 15.0273 19.5098 14.7832C19.054 14.5391 18.3216 14.3682 17.3125 14.2705V12.8301H26.1016V14.2705C25.3691 14.3844 24.7751 14.5635 24.3193 14.8076C23.8799 15.0355 23.473 15.4424 23.0986 16.0283C22.7406 16.6143 22.3255 17.4932 21.8535 18.665L16.5312 31.7021L14.2363 37.2441L10.3301 48.2305H5.44727V48.1328C6.09831 47.2539 6.82259 46.196 7.62012 44.959C8.41764 43.722 9.20703 42.4281 9.98828 41.0771C10.7695 39.7262 11.4775 38.4404 12.1123 37.2197L4.27539 18.2012ZM34.207 37.4883C32.14 37.4883 30.4391 36.9349 29.1045 35.8281C27.7699 34.7051 27.1025 33.2484 27.1025 31.458C27.1025 30.2048 27.4199 29.098 28.0547 28.1377C28.7057 27.1774 29.7393 26.3473 31.1553 25.6475C32.5713 24.9476 34.4268 24.3535 36.7217 23.8652L43.9482 22.3271V24.0117L39.2363 25.0371C37.6901 25.3952 36.4531 25.8265 35.5254 26.3311C34.5977 26.8193 33.9303 27.4053 33.5234 28.0889C33.1328 28.7725 32.9375 29.57 32.9375 30.4814C32.9375 31.8324 33.3525 32.8822 34.1826 33.6309C35.0127 34.3796 36.0462 34.7539 37.2832 34.7539C38.3249 34.7539 39.2526 34.5505 40.0664 34.1436C40.8802 33.7204 41.5231 33.1344 41.9951 32.3857V20.4961C41.9951 18.2663 41.4499 16.7038 40.3594 15.8086C39.2852 14.8971 37.8529 14.4414 36.0625 14.4414C34.9557 14.4414 33.9385 14.596 33.0107 14.9053C32.083 15.2145 31.3099 15.6702 30.6914 16.2725C30.0729 16.8584 29.6823 17.5664 29.5195 18.3965H28.5186C28.5348 17.5176 28.8034 16.777 29.3242 16.1748C29.8451 15.5563 30.4554 15.2471 31.1553 15.2471C31.904 15.2471 32.5469 15.5238 33.084 16.0771C33.6211 16.6143 33.8896 17.2816 33.8896 18.0791C33.8896 18.8766 33.6048 19.5521 33.0352 20.1055C32.4655 20.6426 31.7575 20.9111 30.9111 20.9111C30.0811 20.9111 29.373 20.6426 28.7871 20.1055C28.2174 19.5684 27.9326 18.8848 27.9326 18.0547C27.9326 16.9642 28.3721 15.9876 29.251 15.125C30.1299 14.2624 31.3343 13.5788 32.8643 13.0742C34.3942 12.5697 36.1276 12.3174 38.0645 12.3174C41.0267 12.3174 43.3786 12.944 45.1201 14.1973C46.8617 15.4505 47.7324 17.4199 47.7324 20.1055V32.1172C47.7324 33.1751 47.9766 33.932 48.4648 34.3877C48.9531 34.8434 49.5553 35.0713 50.2715 35.0713C50.7435 35.0713 51.1423 35.0062 51.4678 34.876V36.2188C51.0283 36.5117 50.4424 36.7721 49.71 37C48.9775 37.2441 48.1556 37.3662 47.2441 37.3662C46.3815 37.3662 45.5921 37.2279 44.876 36.9512C44.1761 36.6745 43.5902 36.2676 43.1182 35.7305C42.6462 35.1934 42.3206 34.5342 42.1416 33.7529C41.7347 34.4528 41.1406 35.0876 40.3594 35.6572C39.5944 36.2269 38.6829 36.6745 37.625 37C36.5833 37.3255 35.444 37.4883 34.207 37.4883ZM54.2998 19.5195C54.2998 18.0059 54.7067 16.7119 55.5205 15.6377C56.3506 14.5635 57.5062 13.7497 58.9873 13.1963C60.4684 12.6266 62.2018 12.3418 64.1875 12.3418C65.9779 12.3418 67.5404 12.5046 68.875 12.8301C70.2096 13.1556 71.2106 13.5381 71.8779 13.9775L72.0244 20.1299H70.6816C70.3073 18.2419 69.5342 16.8014 68.3623 15.8086C67.2067 14.7995 65.8314 14.2949 64.2363 14.2949C62.7389 14.2949 61.5589 14.6204 60.6963 15.2715C59.8499 15.9062 59.4268 16.7689 59.4268 17.8594C59.4268 18.9173 59.8255 19.7474 60.623 20.3496C61.4368 20.9355 62.5762 21.4482 64.041 21.8877L66.043 22.4736C68.3053 23.141 70.0469 24.0768 71.2676 25.2812C72.5046 26.4857 73.123 28.0807 73.123 30.0664C73.123 31.5964 72.6673 32.9147 71.7559 34.0215C70.8607 35.112 69.6562 35.9583 68.1426 36.5605C66.6289 37.1465 64.9525 37.4395 63.1133 37.4395C61.8763 37.4395 60.6963 37.3499 59.5732 37.1709C58.4665 36.9919 57.4574 36.7477 56.5459 36.4385C55.6507 36.113 54.9102 35.763 54.3242 35.3887L54.1045 28.8945H55.4473C55.7565 30.3105 56.2773 31.5068 57.0098 32.4834C57.7585 33.46 58.6536 34.2087 59.6953 34.7295C60.737 35.234 61.8438 35.4863 63.0156 35.4863C64.5618 35.4863 65.7744 35.1283 66.6533 34.4121C67.5485 33.696 67.9961 32.7926 67.9961 31.7021C67.9961 30.6279 67.638 29.7653 66.9219 29.1143C66.222 28.4632 65.0827 27.9017 63.5039 27.4297L61.502 26.8438C59.2884 26.1764 57.5306 25.2731 56.2285 24.1338C54.9427 22.9782 54.2998 21.4401 54.2998 19.5195ZM85.5986 0.671875V16.541C86.2985 15.304 87.3402 14.2949 88.7236 13.5137C90.1071 12.7161 91.751 12.3174 93.6553 12.3174C96.113 12.3174 98.1149 12.9766 99.6611 14.2949C101.207 15.597 101.98 17.5094 101.98 20.0322V33.167C101.98 33.9808 102.16 34.5342 102.518 34.8271C102.876 35.1201 103.755 35.3643 105.154 35.5596V37H93.2402V35.5596C94.5098 35.3805 95.3073 35.1527 95.6328 34.876C95.9583 34.5993 96.1211 34.0703 96.1211 33.2891V21.0576C96.1211 19.1696 95.6491 17.7454 94.7051 16.7852C93.7773 15.8086 92.4915 15.3203 90.8477 15.3203C89.5944 15.3203 88.5202 15.5726 87.625 16.0771C86.7298 16.5654 86.0544 17.1921 85.5986 17.957V33.2891C85.5986 34.0703 85.7614 34.5993 86.0869 34.876C86.4124 35.1527 87.2181 35.3805 88.5039 35.5596V37H76.5898V35.5596C77.9733 35.3805 78.8441 35.1445 79.2021 34.8516C79.5765 34.5423 79.7637 33.9808 79.7637 33.167V5.5791C79.7637 4.87923 79.666 4.40723 79.4707 4.16309C79.2917 3.91895 78.8604 3.69108 78.1768 3.47949L76.5898 3.04004V1.74609L85.5986 0.671875ZM112.479 37.415C111.827 37.415 111.233 37.2604 110.696 36.9512C110.159 36.6257 109.728 36.1943 109.402 35.6572C109.077 35.1038 108.914 34.5016 108.914 33.8506C108.914 33.1995 109.077 32.6055 109.402 32.0684C109.728 31.5312 110.159 31.1081 110.696 30.7988C111.233 30.4733 111.827 30.3105 112.479 30.3105C113.146 30.3105 113.74 30.4733 114.261 30.7988C114.798 31.1081 115.229 31.5312 115.555 32.0684C115.88 32.6055 116.043 33.1995 116.043 33.8506C116.043 34.5016 115.88 35.1038 115.555 35.6572C115.229 36.1943 114.798 36.6257 114.261 36.9512C113.724 37.2604 113.13 37.415 112.479 37.415Z" fill="#72C8EB"/>
</svg>
