<svg width="243" height="107" viewBox="0 0 243 107" fill="none" xmlns="http://www.w3.org/2000/svg">
<mask id="path-1-outside-1_9_2" maskUnits="userSpaceOnUse" x="0" y="0" width="243" height="107" fill="black">
<rect fill="white" width="243" height="107"/>
<path d="M73.0164 3.2L72.7164 3.95C70.7164 4.45 68.8164 5.35 67.0164 6.65C65.4164 7.75 63.7664 9.45 62.0664 11.75C60.4664 13.95 59.1164 16.95 58.0164 20.75V20.3L44.2164 67.55C42.7164 72.35 41.0664 77.05 39.2664 81.65C37.5664 86.25 35.5664 90.3 33.2664 93.8C31.0664 97.3 28.5664 100.1 25.7664 102.2C23.0664 104.4 19.9164 105.5 16.3164 105.5C12.5164 105.5 9.56641 104.8 7.46641 103.4C5.46641 102 4.01641 100.45 3.11641 98.75C2.01641 96.85 1.41641 94.6 1.31641 92C1.31641 89.2 2.26641 86.85 4.16641 84.95C6.06641 83.05 8.41641 82.1 11.2164 82.1C13.9164 82.1 16.2164 83.05 18.1164 84.95C20.1164 86.85 21.1164 89.2 21.1164 92C21.0164 93.3 21.1664 94.5 21.5664 95.6C21.7664 96.5 22.1664 97.3 22.7664 98C23.3664 98.7 24.2164 99.05 25.3164 99.05C26.8164 99.05 28.5664 97.55 30.5664 94.55C32.5664 91.55 34.7164 87.2 37.0164 81.5L13.7664 20.75C12.3664 16.95 11.1164 13.95 10.0164 11.75C8.91641 9.45 7.96641 7.75 7.16641 6.65C6.26641 5.35 5.51641 4.45 4.91641 3.95V3.2H29.6664V3.95C29.3664 4.45 29.3164 5.35 29.5164 6.65C29.7164 7.75 30.0664 9.45 30.5664 11.75C31.1664 13.95 32.2164 16.95 33.7164 20.75L46.4664 52.55L56.2164 20.3C57.3164 16.6 57.6664 13.65 57.2664 11.45C56.8664 9.25 56.2164 7.6 55.3164 6.5C54.2164 5.2 52.8664 4.35 51.2664 3.95L51.5664 3.2H73.0164ZM136.286 53.45C136.286 57.25 136.386 60.3 136.586 62.6C136.786 64.8 136.986 66.45 137.186 67.55C137.486 68.85 137.836 69.75 138.236 70.25V71.15C136.036 71.15 133.786 71.05 131.486 70.85C129.186 70.65 127.036 70.05 125.036 69.05C123.136 68.05 121.536 66.5 120.236 64.4C118.936 62.2 118.186 59.15 117.986 55.25C117.086 58.85 115.886 61.75 114.386 63.95C112.986 66.15 111.286 67.85 109.286 69.05C107.386 70.25 105.186 71.05 102.686 71.45C100.286 71.95 97.5859 72.2 94.5859 72.2C91.9859 72.2 89.4359 71.8 86.9359 71C84.5359 70.1 82.3859 68.85 80.4859 67.25C78.6859 65.55 77.1859 63.5 75.9859 61.1C74.8859 58.6 74.3359 55.75 74.3359 52.55C74.3359 48.45 75.2859 45 77.1859 42.2C79.0859 39.4 81.4859 37.05 84.3859 35.15C87.2859 33.15 90.4859 31.5 93.9859 30.2C97.4859 28.9 100.786 27.65 103.886 26.45C107.086 25.25 109.886 24 112.286 22.7C114.786 21.4 116.486 19.75 117.386 17.75C116.786 13.45 115.586 10.2 113.786 8C111.986 5.7 109.386 4.55 105.986 4.55C103.186 4.55 100.986 5.05 99.3859 6.05C97.7859 6.95 96.4859 8.1 95.4859 9.5C94.5859 10.9 93.8859 12.45 93.3859 14.15C92.8859 15.75 92.2859 17.25 91.5859 18.65C90.8859 20.05 89.9859 21.25 88.8859 22.25C87.8859 23.15 86.3859 23.6 84.3859 23.6C82.3859 23.6 80.7359 22.8 79.4359 21.2C78.2359 19.6 77.6359 17.95 77.6359 16.25C77.6359 14.45 78.0359 12.65 78.8359 10.85C79.7359 9.05 81.2359 7.45 83.3359 6.05C85.4359 4.55 88.2859 3.4 91.8859 2.6C95.5859 1.7 100.286 1.24999 105.986 1.24999C110.486 1.24999 114.586 2.1 118.286 3.8C121.986 5.4 125.186 7.9 127.886 11.3C130.586 14.6 132.636 18.85 134.036 24.05C135.536 29.25 136.286 35.35 136.286 42.35V53.45ZM103.586 68.6C105.386 68.6 107.136 68.05 108.836 66.95C110.536 65.75 112.036 64.1 113.336 62C114.736 59.9 115.836 57.4 116.636 54.5C117.536 51.6 117.986 48.4 117.986 44.9L117.686 20.75C116.086 22.85 113.786 24.6 110.786 26C107.786 27.3 104.786 28.85 101.786 30.65C98.8859 32.45 96.3359 34.8 94.1359 37.7C91.9359 40.6 90.8359 44.75 90.8359 50.15C90.8359 62.45 95.0859 68.6 103.586 68.6ZM180.059 70.4C183.259 70.4 185.909 69.35 188.009 67.25C190.109 65.05 191.159 62.2 191.159 58.7C191.159 55.7 190.109 53.15 188.009 51.05C185.909 48.85 183.259 46.9 180.059 45.2C176.959 43.4 173.559 41.7 169.859 40.1C166.259 38.5 162.859 36.75 159.659 34.85C156.559 32.85 153.959 30.55 151.859 27.95C149.759 25.35 148.709 22.2 148.709 18.5C148.709 15.6 149.409 13.1 150.809 11C152.309 8.8 154.259 7 156.659 5.6C159.159 4.1 162.009 2.99999 165.209 2.29999C168.409 1.59999 171.809 1.24999 175.409 1.24999C180.709 1.24999 185.859 1.9 190.859 3.2C195.959 4.5 199.809 6.3 202.409 8.6C203.509 9.5 204.409 10.6 205.109 11.9C205.809 13.2 206.159 14.6 206.159 16.1C206.159 18.7 205.259 20.95 203.459 22.85C201.659 24.65 199.459 25.55 196.859 25.55C194.359 25.55 192.409 25 191.009 23.9C189.609 22.7 188.459 21.25 187.559 19.55C186.759 17.85 186.059 16.05 185.459 14.15C184.959 12.15 184.259 10.3 183.359 8.6C182.559 6.9 181.409 5.5 179.909 4.39999C178.509 3.2 176.509 2.6 173.909 2.6C170.709 2.6 168.359 3.55 166.859 5.45C165.459 7.35 164.759 9.45 164.759 11.75C164.759 14.75 165.859 17.3 168.059 19.4C170.259 21.5 173.009 23.4 176.309 25.1C179.709 26.8 183.309 28.45 187.109 30.05C191.009 31.55 194.609 33.25 197.909 35.15C201.309 37.05 204.109 39.25 206.309 41.75C208.509 44.15 209.609 47.15 209.609 50.75C209.609 53.65 208.959 56.4 207.659 59C206.359 61.5 204.359 63.75 201.659 65.75C198.959 67.75 195.609 69.35 191.609 70.55C187.609 71.65 182.909 72.2 177.509 72.2C169.209 72.2 162.809 71.2 158.309 69.2C153.809 67.2 150.509 64.95 148.409 62.45C145.909 59.65 144.509 56.4 144.209 52.7C144.209 49.9 145.159 47.55 147.059 45.65C149.059 43.75 151.409 42.8 154.109 42.8C156.709 42.8 158.609 43.5 159.809 44.9C161.109 46.2 162.109 47.9 162.809 50C163.609 52 164.259 54.2 164.759 56.6C165.359 59 166.159 61.25 167.159 63.35C168.259 65.35 169.759 67.05 171.659 68.45C173.659 69.75 176.459 70.4 180.059 70.4ZM223.347 62.9C223.347 59.2 224.247 56.6 226.047 55.1C227.847 53.6 229.997 52.85 232.497 52.85C235.097 52.85 237.297 53.6 239.097 55.1C240.997 56.6 241.947 59.2 241.947 62.9C241.947 66.5 240.997 69.1 239.097 70.7C237.297 72.3 235.097 73.1 232.497 73.1C229.997 73.1 227.847 72.3 226.047 70.7C224.247 69.1 223.347 66.5 223.347 62.9Z"/>
</mask>
<path d="M73.0164 3.2L72.7164 3.95C70.7164 4.45 68.8164 5.35 67.0164 6.65C65.4164 7.75 63.7664 9.45 62.0664 11.75C60.4664 13.95 59.1164 16.95 58.0164 20.75V20.3L44.2164 67.55C42.7164 72.35 41.0664 77.05 39.2664 81.65C37.5664 86.25 35.5664 90.3 33.2664 93.8C31.0664 97.3 28.5664 100.1 25.7664 102.2C23.0664 104.4 19.9164 105.5 16.3164 105.5C12.5164 105.5 9.56641 104.8 7.46641 103.4C5.46641 102 4.01641 100.45 3.11641 98.75C2.01641 96.85 1.41641 94.6 1.31641 92C1.31641 89.2 2.26641 86.85 4.16641 84.95C6.06641 83.05 8.41641 82.1 11.2164 82.1C13.9164 82.1 16.2164 83.05 18.1164 84.95C20.1164 86.85 21.1164 89.2 21.1164 92C21.0164 93.3 21.1664 94.5 21.5664 95.6C21.7664 96.5 22.1664 97.3 22.7664 98C23.3664 98.7 24.2164 99.05 25.3164 99.05C26.8164 99.05 28.5664 97.55 30.5664 94.55C32.5664 91.55 34.7164 87.2 37.0164 81.5L13.7664 20.75C12.3664 16.95 11.1164 13.95 10.0164 11.75C8.91641 9.45 7.96641 7.75 7.16641 6.65C6.26641 5.35 5.51641 4.45 4.91641 3.95V3.2H29.6664V3.95C29.3664 4.45 29.3164 5.35 29.5164 6.65C29.7164 7.75 30.0664 9.45 30.5664 11.75C31.1664 13.95 32.2164 16.95 33.7164 20.75L46.4664 52.55L56.2164 20.3C57.3164 16.6 57.6664 13.65 57.2664 11.45C56.8664 9.25 56.2164 7.6 55.3164 6.5C54.2164 5.2 52.8664 4.35 51.2664 3.95L51.5664 3.2H73.0164ZM136.286 53.45C136.286 57.25 136.386 60.3 136.586 62.6C136.786 64.8 136.986 66.45 137.186 67.55C137.486 68.85 137.836 69.75 138.236 70.25V71.15C136.036 71.15 133.786 71.05 131.486 70.85C129.186 70.65 127.036 70.05 125.036 69.05C123.136 68.05 121.536 66.5 120.236 64.4C118.936 62.2 118.186 59.15 117.986 55.25C117.086 58.85 115.886 61.75 114.386 63.95C112.986 66.15 111.286 67.85 109.286 69.05C107.386 70.25 105.186 71.05 102.686 71.45C100.286 71.95 97.5859 72.2 94.5859 72.2C91.9859 72.2 89.4359 71.8 86.9359 71C84.5359 70.1 82.3859 68.85 80.4859 67.25C78.6859 65.55 77.1859 63.5 75.9859 61.1C74.8859 58.6 74.3359 55.75 74.3359 52.55C74.3359 48.45 75.2859 45 77.1859 42.2C79.0859 39.4 81.4859 37.05 84.3859 35.15C87.2859 33.15 90.4859 31.5 93.9859 30.2C97.4859 28.9 100.786 27.65 103.886 26.45C107.086 25.25 109.886 24 112.286 22.7C114.786 21.4 116.486 19.75 117.386 17.75C116.786 13.45 115.586 10.2 113.786 8C111.986 5.7 109.386 4.55 105.986 4.55C103.186 4.55 100.986 5.05 99.3859 6.05C97.7859 6.95 96.4859 8.1 95.4859 9.5C94.5859 10.9 93.8859 12.45 93.3859 14.15C92.8859 15.75 92.2859 17.25 91.5859 18.65C90.8859 20.05 89.9859 21.25 88.8859 22.25C87.8859 23.15 86.3859 23.6 84.3859 23.6C82.3859 23.6 80.7359 22.8 79.4359 21.2C78.2359 19.6 77.6359 17.95 77.6359 16.25C77.6359 14.45 78.0359 12.65 78.8359 10.85C79.7359 9.05 81.2359 7.45 83.3359 6.05C85.4359 4.55 88.2859 3.4 91.8859 2.6C95.5859 1.7 100.286 1.24999 105.986 1.24999C110.486 1.24999 114.586 2.1 118.286 3.8C121.986 5.4 125.186 7.9 127.886 11.3C130.586 14.6 132.636 18.85 134.036 24.05C135.536 29.25 136.286 35.35 136.286 42.35V53.45ZM103.586 68.6C105.386 68.6 107.136 68.05 108.836 66.95C110.536 65.75 112.036 64.1 113.336 62C114.736 59.9 115.836 57.4 116.636 54.5C117.536 51.6 117.986 48.4 117.986 44.9L117.686 20.75C116.086 22.85 113.786 24.6 110.786 26C107.786 27.3 104.786 28.85 101.786 30.65C98.8859 32.45 96.3359 34.8 94.1359 37.7C91.9359 40.6 90.8359 44.75 90.8359 50.15C90.8359 62.45 95.0859 68.6 103.586 68.6ZM180.059 70.4C183.259 70.4 185.909 69.35 188.009 67.25C190.109 65.05 191.159 62.2 191.159 58.7C191.159 55.7 190.109 53.15 188.009 51.05C185.909 48.85 183.259 46.9 180.059 45.2C176.959 43.4 173.559 41.7 169.859 40.1C166.259 38.5 162.859 36.75 159.659 34.85C156.559 32.85 153.959 30.55 151.859 27.95C149.759 25.35 148.709 22.2 148.709 18.5C148.709 15.6 149.409 13.1 150.809 11C152.309 8.8 154.259 7 156.659 5.6C159.159 4.1 162.009 2.99999 165.209 2.29999C168.409 1.59999 171.809 1.24999 175.409 1.24999C180.709 1.24999 185.859 1.9 190.859 3.2C195.959 4.5 199.809 6.3 202.409 8.6C203.509 9.5 204.409 10.6 205.109 11.9C205.809 13.2 206.159 14.6 206.159 16.1C206.159 18.7 205.259 20.95 203.459 22.85C201.659 24.65 199.459 25.55 196.859 25.55C194.359 25.55 192.409 25 191.009 23.9C189.609 22.7 188.459 21.25 187.559 19.55C186.759 17.85 186.059 16.05 185.459 14.15C184.959 12.15 184.259 10.3 183.359 8.6C182.559 6.9 181.409 5.5 179.909 4.39999C178.509 3.2 176.509 2.6 173.909 2.6C170.709 2.6 168.359 3.55 166.859 5.45C165.459 7.35 164.759 9.45 164.759 11.75C164.759 14.75 165.859 17.3 168.059 19.4C170.259 21.5 173.009 23.4 176.309 25.1C179.709 26.8 183.309 28.45 187.109 30.05C191.009 31.55 194.609 33.25 197.909 35.15C201.309 37.05 204.109 39.25 206.309 41.75C208.509 44.15 209.609 47.15 209.609 50.75C209.609 53.65 208.959 56.4 207.659 59C206.359 61.5 204.359 63.75 201.659 65.75C198.959 67.75 195.609 69.35 191.609 70.55C187.609 71.65 182.909 72.2 177.509 72.2C169.209 72.2 162.809 71.2 158.309 69.2C153.809 67.2 150.509 64.95 148.409 62.45C145.909 59.65 144.509 56.4 144.209 52.7C144.209 49.9 145.159 47.55 147.059 45.65C149.059 43.75 151.409 42.8 154.109 42.8C156.709 42.8 158.609 43.5 159.809 44.9C161.109 46.2 162.109 47.9 162.809 50C163.609 52 164.259 54.2 164.759 56.6C165.359 59 166.159 61.25 167.159 63.35C168.259 65.35 169.759 67.05 171.659 68.45C173.659 69.75 176.459 70.4 180.059 70.4ZM223.347 62.9C223.347 59.2 224.247 56.6 226.047 55.1C227.847 53.6 229.997 52.85 232.497 52.85C235.097 52.85 237.297 53.6 239.097 55.1C240.997 56.6 241.947 59.2 241.947 62.9C241.947 66.5 240.997 69.1 239.097 70.7C237.297 72.3 235.097 73.1 232.497 73.1C229.997 73.1 227.847 72.3 226.047 70.7C224.247 69.1 223.347 66.5 223.347 62.9Z" fill="#2AA9B9"/>
<path d="M73.0164 3.2L73.9449 3.57139C74.0681 3.2633 74.0305 2.91414 73.8445 2.63937C73.6584 2.3646 73.3482 2.2 73.0164 2.2V3.2ZM72.7164 3.95L72.9589 4.92014C73.2705 4.84226 73.5256 4.61952 73.6449 4.32139L72.7164 3.95ZM67.0164 6.65L67.5829 7.47404C67.5893 7.46966 67.5956 7.4652 67.6019 7.46068L67.0164 6.65ZM62.0664 11.75L61.2622 11.1556L61.2577 11.1618L62.0664 11.75ZM58.0164 20.75H57.0164C57.0164 21.248 57.3829 21.6702 57.876 21.7401C58.3691 21.81 58.8385 21.5065 58.977 21.0281L58.0164 20.75ZM58.0164 20.3H59.0164C59.0164 19.8024 58.6506 19.3805 58.158 19.3101C57.6654 19.2396 57.196 19.542 57.0565 20.0196L58.0164 20.3ZM44.2164 67.55L45.1709 67.8483C45.1728 67.8423 45.1746 67.8363 45.1763 67.8304L44.2164 67.55ZM39.2664 81.65L38.3352 81.2856C38.3329 81.2915 38.3306 81.2974 38.3284 81.3034L39.2664 81.65ZM33.2664 93.8L32.4307 93.2508C32.427 93.2565 32.4234 93.2621 32.4198 93.2678L33.2664 93.8ZM25.7664 102.2L25.1664 101.4C25.1557 101.408 25.1451 101.416 25.1347 101.425L25.7664 102.2ZM7.46641 103.4L6.89294 104.219C6.89915 104.224 6.9054 104.228 6.91171 104.232L7.46641 103.4ZM3.11641 98.75L4.00019 98.2821C3.99428 98.2709 3.98816 98.2599 3.98183 98.249L3.11641 98.75ZM1.31641 92H0.316406C0.316406 92.0128 0.316653 92.0256 0.317145 92.0384L1.31641 92ZM18.1164 84.95L17.4093 85.6571C17.4153 85.6631 17.4215 85.6691 17.4277 85.675L18.1164 84.95ZM21.1164 92L22.1135 92.0767C22.1154 92.0512 22.1164 92.0256 22.1164 92H21.1164ZM21.5664 95.6L22.5426 95.3831C22.5332 95.3407 22.521 95.299 22.5062 95.2583L21.5664 95.6ZM37.0164 81.5L37.9438 81.8742C38.0383 81.6399 38.0406 81.3785 37.9503 81.1426L37.0164 81.5ZM13.7664 20.75L12.828 21.0957L12.8325 21.1074L13.7664 20.75ZM10.0164 11.75L9.11427 12.1815C9.1168 12.1867 9.11936 12.192 9.12198 12.1972L10.0164 11.75ZM7.16641 6.65L6.34421 7.21921C6.34863 7.22558 6.35311 7.2319 6.35767 7.23817L7.16641 6.65ZM4.91641 3.95H3.91641C3.91641 4.24678 4.04823 4.52822 4.27622 4.71822L4.91641 3.95ZM4.91641 3.2V2.2C4.36412 2.2 3.91641 2.64771 3.91641 3.2H4.91641ZM29.6664 3.2H30.6664C30.6664 2.64771 30.2187 2.2 29.6664 2.2V3.2ZM29.6664 3.95L30.5239 4.46449C30.6171 4.30908 30.6664 4.13124 30.6664 3.95H29.6664ZM29.5164 6.65L28.528 6.80205C28.5294 6.81102 28.5309 6.81996 28.5325 6.82888L29.5164 6.65ZM30.5664 11.75L29.5892 11.9624C29.5929 11.9794 29.5971 11.9963 29.6016 12.0131L30.5664 11.75ZM33.7164 20.75L32.7862 21.1172L32.7882 21.1221L33.7164 20.75ZM46.4664 52.55L45.5382 52.9221C45.6963 53.3163 46.086 53.5677 46.5103 53.549C46.9345 53.5304 47.3007 53.2459 47.4236 52.8394L46.4664 52.55ZM56.2164 20.3L57.1736 20.5894L57.1749 20.585L56.2164 20.3ZM57.2664 11.45L58.2503 11.2711L58.2503 11.2711L57.2664 11.45ZM55.3164 6.5L56.0904 5.86676C56.0869 5.8625 56.0834 5.85826 56.0798 5.85406L55.3164 6.5ZM51.2664 3.95L50.3379 3.5786C50.2307 3.84673 50.2446 4.14813 50.376 4.40525C50.5075 4.66237 50.7437 4.8501 51.0239 4.92014L51.2664 3.95ZM51.5664 3.2V2.2C51.1575 2.2 50.7898 2.44895 50.6379 2.82861L51.5664 3.2ZM72.0879 2.82861L71.7879 3.5786L73.6449 4.32139L73.9449 3.57139L72.0879 2.82861ZM72.4739 2.97985C70.3412 3.51302 68.326 4.47061 66.4309 5.83932L67.6019 7.46068C69.3068 6.22938 71.0916 5.38697 72.9589 4.92014L72.4739 2.97985ZM66.4499 5.82596C64.7262 7.01098 63 8.80456 61.2622 11.1556L62.8706 12.3444C64.5329 10.0954 66.1066 8.48901 67.5829 7.47404L66.4499 5.82596ZM61.2577 11.1618C59.566 13.4878 58.1748 16.6066 57.0558 20.4719L58.977 21.0281C60.0581 17.2934 61.3668 14.4122 62.8751 12.3382L61.2577 11.1618ZM59.0164 20.75V20.3H57.0164V20.75H59.0164ZM57.0565 20.0196L43.2565 67.2696L45.1763 67.8304L58.9763 20.5803L57.0565 20.0196ZM43.2619 67.2517C41.7688 72.0298 40.1265 76.7078 38.3352 81.2856L40.1977 82.0144C42.0063 77.3922 43.664 72.6702 45.1709 67.8483L43.2619 67.2517ZM38.3284 81.3034C36.6504 85.8439 34.6827 89.8239 32.4307 93.2508L34.1021 94.3492C36.4501 90.7761 38.4824 86.6561 40.2044 81.9967L38.3284 81.3034ZM32.4198 93.2678C30.2733 96.6826 27.8525 99.3854 25.1664 101.4L26.3664 103C29.2803 100.815 31.8595 97.9174 34.113 94.3322L32.4198 93.2678ZM25.1347 101.425C22.6196 103.474 19.6947 104.5 16.3164 104.5V106.5C20.1382 106.5 23.5133 105.326 26.3981 102.975L25.1347 101.425ZM16.3164 104.5C12.6203 104.5 9.89328 103.816 8.02111 102.568L6.91171 104.232C9.23954 105.784 12.4125 106.5 16.3164 106.5V104.5ZM8.03987 102.581C6.13566 101.248 4.80879 99.8095 4.00019 98.2821L2.23262 99.2179C3.22402 101.091 4.79715 102.752 6.89294 104.219L8.03987 102.581ZM3.98183 98.249C2.97731 96.5139 2.41056 94.4288 2.31567 91.9616L0.317145 92.0384C0.42225 94.7712 1.0555 97.1861 2.25098 99.251L3.98183 98.249ZM2.31641 92C2.31641 89.4528 3.16966 87.361 4.87351 85.6571L3.4593 84.2429C1.36315 86.339 0.316406 88.9472 0.316406 92H2.31641ZM4.87351 85.6571C6.57736 83.9533 8.66919 83.1 11.2164 83.1V81.1C8.16363 81.1 5.55545 82.1467 3.4593 84.2429L4.87351 85.6571ZM11.2164 83.1C13.6526 83.1 15.6979 83.9457 17.4093 85.6571L18.8235 84.2429C16.735 82.1543 14.1802 81.1 11.2164 81.1V83.1ZM17.4277 85.675C19.2256 87.383 20.1164 89.4695 20.1164 92H22.1164C22.1164 88.9305 21.0072 86.317 18.8052 84.225L17.4277 85.675ZM20.1194 91.9233C20.0097 93.349 20.1727 94.6934 20.6266 95.9417L22.5062 95.2583C22.1601 94.3066 22.0231 93.251 22.1135 92.0767L20.1194 91.9233ZM20.5902 95.8169C20.8258 96.8772 21.3003 97.8262 22.0072 98.6508L23.5257 97.3492C23.0325 96.7738 22.707 96.1228 22.5426 95.3831L20.5902 95.8169ZM22.0072 98.6508C22.8341 99.6155 23.9865 100.05 25.3164 100.05V98.05C24.4463 98.05 23.8987 97.7845 23.5257 97.3492L22.0072 98.6508ZM25.3164 100.05C26.4043 100.05 27.4416 99.5098 28.4047 98.6843C29.3768 97.851 30.3728 96.6431 31.3985 95.1047L29.7344 93.9953C28.76 95.4569 27.881 96.499 27.1031 97.1657C26.3163 97.8402 25.7285 98.05 25.3164 98.05V100.05ZM31.3985 95.1047C33.4536 92.022 35.6334 87.5999 37.9438 81.8742L36.0891 81.1258C33.7994 86.8001 31.6792 91.078 29.7344 93.9953L31.3985 95.1047ZM37.9503 81.1426L14.7003 20.3926L12.8325 21.1074L36.0825 81.8574L37.9503 81.1426ZM14.7048 20.4043C13.299 16.5887 12.0344 13.55 10.9108 11.3028L9.12198 12.1972C10.1984 14.35 11.4338 17.3113 12.8281 21.0957L14.7048 20.4043ZM10.9185 11.3185C9.81079 9.00233 8.82959 7.23669 7.97514 6.06183L6.35767 7.23817C7.10323 8.26331 8.02203 9.89767 9.11427 12.1815L10.9185 11.3185ZM7.9886 6.08079C7.07843 4.7661 6.26551 3.77254 5.55659 3.18177L4.27622 4.71822C4.7673 5.12745 5.45438 5.93389 6.34421 7.21921L7.9886 6.08079ZM5.91641 3.95V3.2H3.91641V3.95H5.91641ZM4.91641 4.2H29.6664V2.2H4.91641V4.2ZM28.6664 3.2V3.95H30.6664V3.2H28.6664ZM28.8089 3.4355C28.5419 3.88048 28.435 4.41274 28.4054 4.94453C28.3753 5.48753 28.4218 6.11167 28.528 6.80205L30.5048 6.49794C30.411 5.88833 30.3825 5.41246 30.4024 5.05547C30.4228 4.68725 30.4909 4.51952 30.5239 4.46449L28.8089 3.4355ZM28.5325 6.82888C28.7358 7.94667 29.0888 9.66063 29.5892 11.9624L31.5436 11.5376C31.044 9.23937 30.697 7.55333 30.5003 6.47111L28.5325 6.82888ZM29.6016 12.0131C30.216 14.2656 31.2815 17.3052 32.7863 21.1172L34.6466 20.3828C33.1513 16.5948 32.1169 13.6344 31.5312 11.4869L29.6016 12.0131ZM32.7882 21.1221L45.5382 52.9221L47.3946 52.1779L34.6446 20.3779L32.7882 21.1221ZM47.4236 52.8394L57.1736 20.5894L55.2592 20.0106L45.5092 52.2606L47.4236 52.8394ZM57.1749 20.585C58.2916 16.829 58.6919 13.6998 58.2503 11.2711L56.2825 11.6289C56.641 13.6002 56.3412 16.371 55.2579 20.015L57.1749 20.585ZM58.2503 11.2711C57.8357 8.99088 57.1423 7.15242 56.0904 5.86676L54.5425 7.13324C55.2905 8.04757 55.8971 9.50911 56.2825 11.6289L58.2503 11.2711ZM56.0798 5.85406C54.8491 4.39965 53.3192 3.43242 51.5089 2.97985L51.0239 4.92014C52.4136 5.26757 53.5837 6.00035 54.553 7.14594L56.0798 5.85406ZM52.1949 4.32139L52.4949 3.57139L50.6379 2.82861L50.3379 3.5786L52.1949 4.32139ZM51.5664 4.2H73.0164V2.2H51.5664V4.2ZM136.586 62.6L135.59 62.6866L135.59 62.6905L136.586 62.6ZM137.186 67.55L136.202 67.7289C136.205 67.7443 136.208 67.7596 136.212 67.7749L137.186 67.55ZM138.236 70.25H139.236C139.236 70.0229 139.159 69.8026 139.017 69.6253L138.236 70.25ZM138.236 71.15V72.15C138.788 72.15 139.236 71.7023 139.236 71.15H138.236ZM131.486 70.85L131.573 69.8538L131.486 70.85ZM125.036 69.05L124.57 69.9349C124.576 69.9382 124.583 69.9413 124.589 69.9444L125.036 69.05ZM120.236 64.4L119.375 64.9087C119.379 64.9146 119.382 64.9205 119.386 64.9264L120.236 64.4ZM117.986 55.25L118.985 55.1988C118.959 54.7041 118.576 54.3026 118.083 54.2547C117.59 54.2068 117.136 54.527 117.016 55.0075L117.986 55.25ZM114.386 63.95L113.56 63.3867C113.554 63.3954 113.548 63.4042 113.542 63.4131L114.386 63.95ZM109.286 69.05L108.771 68.1925C108.765 68.1964 108.758 68.2004 108.752 68.2045L109.286 69.05ZM102.686 71.45L102.528 70.4626C102.513 70.465 102.497 70.4678 102.482 70.471L102.686 71.45ZM86.9359 71L86.5848 71.9363C86.6001 71.9421 86.6156 71.9474 86.6312 71.9524L86.9359 71ZM80.4859 67.25L79.7993 67.977C79.8131 67.99 79.8273 68.0027 79.8418 68.0149L80.4859 67.25ZM75.9859 61.1L75.0706 61.5027C75.0772 61.5177 75.0842 61.5326 75.0915 61.5472L75.9859 61.1ZM77.1859 42.2L78.0134 42.7615L78.0134 42.7615L77.1859 42.2ZM84.3859 35.15L84.934 35.9865C84.9406 35.9821 84.9472 35.9777 84.9537 35.9732L84.3859 35.15ZM93.9859 30.2L94.3341 31.1374L94.3341 31.1374L93.9859 30.2ZM103.886 26.45L103.535 25.5136L103.525 25.5174L103.886 26.45ZM112.286 22.7L111.825 21.8128C111.82 21.8154 111.815 21.818 111.81 21.8207L112.286 22.7ZM117.386 17.75L118.298 18.1604C118.375 17.9886 118.402 17.7984 118.376 17.6118L117.386 17.75ZM113.786 8L112.998 8.61631C113.003 8.622 113.007 8.62764 113.012 8.63324L113.786 8ZM99.3859 6.05L99.8762 6.92157C99.8896 6.91402 99.9029 6.90616 99.9159 6.89799L99.3859 6.05ZM95.4859 9.5L94.6722 8.91876C94.6627 8.93203 94.6536 8.94552 94.6448 8.95924L95.4859 9.5ZM93.3859 14.15L94.3404 14.4483C94.3421 14.4429 94.3437 14.4375 94.3453 14.4322L93.3859 14.15ZM88.8859 22.25L89.5549 22.9933L89.5586 22.9899L88.8859 22.25ZM79.4359 21.2L78.6359 21.8C78.6437 21.8103 78.6517 21.8205 78.6598 21.8306L79.4359 21.2ZM78.8359 10.85L77.9415 10.4028C77.9347 10.4163 77.9283 10.43 77.9221 10.4439L78.8359 10.85ZM83.3359 6.05L83.8906 6.88205C83.8996 6.87608 83.9084 6.86998 83.9172 6.86373L83.3359 6.05ZM91.8859 2.6L92.1029 3.57618C92.1094 3.57474 92.1158 3.57323 92.1223 3.57166L91.8859 2.6ZM118.286 3.8L117.868 4.70867C117.875 4.71181 117.882 4.71487 117.889 4.71785L118.286 3.8ZM127.886 11.3L127.103 11.9219C127.106 11.9257 127.109 11.9295 127.112 11.9332L127.886 11.3ZM134.036 24.05L133.07 24.31C133.072 24.3157 133.073 24.3214 133.075 24.3272L134.036 24.05ZM108.836 66.95L109.379 67.7896C109.39 67.7823 109.402 67.7747 109.413 67.767L108.836 66.95ZM113.336 62L112.504 61.4453C112.498 61.4546 112.492 61.4641 112.486 61.4736L113.336 62ZM116.636 54.5L115.681 54.2036C115.678 54.2137 115.675 54.2239 115.672 54.2341L116.636 54.5ZM117.986 44.9L118.986 44.9L118.986 44.8876L117.986 44.9ZM117.686 20.75L118.686 20.7376C118.681 20.3109 118.405 19.9345 118 19.8006C117.595 19.6666 117.149 19.8045 116.891 20.144L117.686 20.75ZM110.786 26L111.184 26.9176C111.192 26.9139 111.2 26.9101 111.209 26.9062L110.786 26ZM101.786 30.65L101.271 29.7925C101.267 29.7951 101.263 29.7977 101.259 29.8004L101.786 30.65ZM94.1359 37.7L93.3392 37.0956L93.3392 37.0956L94.1359 37.7ZM135.286 53.45C135.286 57.2631 135.386 60.3455 135.59 62.6866L137.582 62.5134C137.386 60.2545 137.286 57.2369 137.286 53.45H135.286ZM135.59 62.6905C135.791 64.8975 135.994 66.5836 136.202 67.7289L138.17 67.3711C137.978 66.3164 137.781 64.7025 137.582 62.5095L135.59 62.6905ZM136.212 67.7749C136.516 69.096 136.905 70.1874 137.455 70.8747L139.017 69.6253C138.767 69.3126 138.455 68.604 138.16 67.3251L136.212 67.7749ZM137.236 70.25V71.15H139.236V70.25H137.236ZM138.236 70.15C136.066 70.15 133.845 70.0514 131.573 69.8538L131.399 71.8462C133.727 72.0486 136.006 72.15 138.236 72.15V70.15ZM131.573 69.8538C129.394 69.6643 127.367 69.0974 125.483 68.1556L124.589 69.9444C126.705 71.0026 128.978 71.6357 131.399 71.8462L131.573 69.8538ZM125.502 68.1651C123.782 67.26 122.307 65.8451 121.086 63.8736L119.386 64.9264C120.765 67.1549 122.49 68.84 124.57 69.9349L125.502 68.1651ZM121.097 63.8913C119.911 61.8848 119.18 59.0151 118.985 55.1988L116.987 55.3012C117.192 59.2849 117.961 62.5152 119.375 64.9087L121.097 63.8913ZM117.016 55.0075C116.134 58.5346 114.973 61.3144 113.56 63.3867L115.212 64.5133C116.799 62.1856 118.038 59.1654 118.956 55.4925L117.016 55.0075ZM113.542 63.4131C112.216 65.4978 110.623 67.0814 108.771 68.1925L109.8 69.9075C111.949 68.6186 113.756 66.8022 115.23 64.4869L113.542 63.4131ZM108.752 68.2045C106.98 69.3236 104.911 70.0812 102.528 70.4626L102.844 72.4374C105.461 72.0188 107.792 71.1764 109.82 69.8955L108.752 68.2045ZM102.482 70.471C100.162 70.9544 97.532 71.2 94.5859 71.2V73.2C97.6399 73.2 100.41 72.9456 102.89 72.429L102.482 70.471ZM94.5859 71.2C92.0904 71.2 89.6432 70.8164 87.2407 70.0476L86.6312 71.9524C89.2287 72.7836 91.8815 73.2 94.5859 73.2V71.2ZM87.2871 70.0637C84.9903 69.2024 82.9401 68.0093 81.1301 66.4851L79.8418 68.0149C81.8318 69.6907 84.0815 70.9976 86.5848 71.9363L87.2871 70.0637ZM81.1726 66.523C79.4645 64.9099 78.0324 62.9569 76.8804 60.6528L75.0915 61.5472C76.3395 64.0431 77.9073 66.1901 79.7993 67.977L81.1726 66.523ZM76.9013 60.6973C75.8659 58.3441 75.3359 55.6349 75.3359 52.55H73.3359C73.3359 55.8651 73.906 58.8559 75.0706 61.5027L76.9013 60.6973ZM75.3359 52.55C75.3359 48.6073 76.2478 45.3635 78.0134 42.7615L76.3585 41.6385C74.3241 44.6365 73.3359 48.2927 73.3359 52.55H75.3359ZM78.0134 42.7615C79.8375 40.0734 82.1416 37.816 84.934 35.9865L83.8379 34.3135C80.8303 36.284 78.3344 38.7266 76.3585 41.6385L78.0134 42.7615ZM84.9537 35.9732C87.7816 34.023 90.9071 32.4103 94.3341 31.1374L93.6378 29.2626C90.0648 30.5897 86.7903 32.277 83.8182 34.3268L84.9537 35.9732ZM94.3341 31.1374C97.8379 29.836 101.142 28.5844 104.247 27.3826L103.525 25.5174C100.43 26.7156 97.134 27.964 93.6378 29.2626L94.3341 31.1374ZM104.237 27.3863C107.47 26.174 110.313 24.9058 112.762 23.5793L111.81 21.8207C109.459 23.0942 106.702 24.326 103.535 25.5137L104.237 27.3863ZM112.747 23.5872C115.389 22.2134 117.282 20.4177 118.298 18.1604L116.474 17.3396C115.69 19.0823 114.183 20.5866 111.825 21.8128L112.747 23.5872ZM118.376 17.6118C117.763 13.2186 116.522 9.7649 114.56 7.36676L113.012 8.63324C114.65 10.6351 115.809 13.6814 116.396 17.8882L118.376 17.6118ZM114.573 7.38369C112.551 4.80001 109.637 3.55 105.986 3.55V5.55C109.135 5.55 111.42 6.59999 112.998 8.61631L114.573 7.38369ZM105.986 3.55C103.083 3.55 100.674 4.06564 98.8559 5.202L99.9159 6.89799C101.298 6.03435 103.288 5.55 105.986 5.55V3.55ZM98.8957 5.17842C97.1766 6.1454 95.7631 7.39154 94.6722 8.91876L96.2997 10.0812C97.2088 8.80845 98.3953 7.75459 99.8762 6.92157L98.8957 5.17842ZM94.6448 8.95924C93.69 10.4444 92.9517 12.0824 92.4266 13.8678L94.3453 14.4322C94.8202 12.8176 95.4819 11.3556 96.3271 10.0408L94.6448 8.95924ZM92.4315 13.8517C91.9463 15.4041 91.3659 16.854 90.6915 18.2028L92.4804 19.0972C93.206 17.646 93.8255 16.0959 94.3404 14.4483L92.4315 13.8517ZM90.6915 18.2028C90.0438 19.4983 89.2171 20.5974 88.2133 21.5101L89.5586 22.9899C90.7547 21.9026 91.7281 20.6017 92.4804 19.0972L90.6915 18.2028ZM88.217 21.5067C87.4723 22.1769 86.2563 22.6 84.3859 22.6V24.6C86.5156 24.6 88.2996 24.1231 89.5549 22.9933L88.217 21.5067ZM84.3859 22.6C82.6976 22.6 81.3289 21.944 80.2121 20.5694L78.6598 21.8306C80.1429 23.656 82.0742 24.6 84.3859 24.6V22.6ZM80.2359 20.6C79.1421 19.1415 78.6359 17.6972 78.6359 16.25H76.6359C76.6359 18.2028 77.3298 20.0585 78.6359 21.8L80.2359 20.6ZM78.6359 16.25C78.6359 14.6026 79.0012 12.9404 79.7497 11.2561L77.9221 10.4439C77.0707 12.3595 76.6359 14.2973 76.6359 16.25H78.6359ZM79.7304 11.2972C80.5351 9.68771 81.8992 8.2097 83.8906 6.88205L82.7812 5.21795C80.5727 6.69029 78.9368 8.41228 77.9415 10.4028L79.7304 11.2972ZM83.9172 6.86373C85.8716 5.4677 88.5821 4.35859 92.1029 3.57618L91.669 1.62381C87.9898 2.44141 85.0003 3.63229 82.7547 5.23626L83.9172 6.86373ZM92.1223 3.57166C95.7169 2.6973 100.33 2.24999 105.986 2.24999V0.249995C100.242 0.249995 95.455 0.70269 91.6496 1.62833L92.1223 3.57166ZM105.986 2.24999C110.357 2.24999 114.313 3.07491 117.868 4.70867L118.703 2.89132C114.859 1.12508 110.615 0.249995 105.986 0.249995V2.24999ZM117.889 4.71785C121.426 6.24752 124.497 8.64063 127.103 11.9219L128.669 10.6781C125.875 7.15936 122.546 4.55248 118.683 2.88214L117.889 4.71785ZM127.112 11.9332C129.702 15.099 131.698 19.2118 133.07 24.31L135.002 23.79C133.574 18.4882 131.47 14.101 128.66 10.6668L127.112 11.9332ZM133.075 24.3272C134.543 29.4152 135.286 35.4179 135.286 42.35H137.286C137.286 35.2821 136.529 29.0848 134.997 23.7728L133.075 24.3272ZM135.286 42.35V53.45H137.286V42.35H135.286ZM103.586 69.6C105.602 69.6 107.538 68.9808 109.379 67.7896L108.293 66.1104C106.734 67.1192 105.17 67.6 103.586 67.6V69.6ZM109.413 67.767C111.241 66.4764 112.828 64.7196 114.186 62.5264L112.486 61.4736C111.243 63.4804 109.831 65.0236 108.259 66.133L109.413 67.767ZM114.168 62.5547C115.637 60.351 116.777 57.7495 117.6 54.7659L115.672 54.2341C114.895 57.0505 113.835 59.449 112.504 61.4453L114.168 62.5547ZM117.591 54.7964C118.525 51.7871 118.986 48.4855 118.986 44.9H116.986C116.986 48.3145 116.547 51.4129 115.681 54.2036L117.591 54.7964ZM118.986 44.8876L118.686 20.7376L116.686 20.7624L116.986 44.9124L118.986 44.8876ZM116.891 20.144C115.41 22.0866 113.253 23.7452 110.363 25.0938L111.209 26.9062C114.319 25.4548 116.762 23.6134 118.481 21.356L116.891 20.144ZM110.388 25.0824C107.345 26.401 104.306 27.9715 101.271 29.7925L102.3 31.5075C105.265 29.7285 108.226 28.199 111.184 26.9176L110.388 25.0824ZM101.259 29.8004C98.2478 31.6691 95.6083 34.1046 93.3392 37.0956L94.9326 38.3044C97.0636 35.4954 99.5241 33.2309 102.313 31.4996L101.259 29.8004ZM93.3392 37.0956C90.9572 40.2356 89.8359 44.6326 89.8359 50.15H91.8359C91.8359 44.8674 92.9147 40.9644 94.9326 38.3044L93.3392 37.0956ZM89.8359 50.15C89.8359 56.3842 90.9074 61.2374 93.2008 64.556C95.5403 67.9415 99.0597 69.6 103.586 69.6V67.6C99.6122 67.6 96.7565 66.1835 94.8461 63.419C92.8895 60.5876 91.8359 56.2158 91.8359 50.15H89.8359ZM188.009 67.25L188.716 67.9571C188.722 67.9516 188.727 67.9461 188.732 67.9405L188.009 67.25ZM188.009 51.05L187.286 51.7405C187.291 51.7461 187.296 51.7516 187.302 51.7571L188.009 51.05ZM180.059 45.2L179.557 46.0648C179.568 46.0711 179.579 46.0772 179.59 46.0831L180.059 45.2ZM169.859 40.1L169.453 41.0139L169.462 41.0179L169.859 40.1ZM159.659 34.85L159.117 35.6903C159.127 35.697 159.138 35.7035 159.148 35.7099L159.659 34.85ZM151.859 27.95L151.081 28.5783L151.081 28.5783L151.859 27.95ZM150.809 11L149.983 10.4366L149.977 10.4453L150.809 11ZM156.659 5.6L157.163 6.46384L157.173 6.45749L156.659 5.6ZM165.209 2.29999L165.423 3.27689L165.423 3.27689L165.209 2.29999ZM190.859 3.2L190.607 4.16783L190.612 4.16901L190.859 3.2ZM202.409 8.6L201.746 9.349C201.756 9.3575 201.766 9.36582 201.776 9.37396L202.409 8.6ZM205.109 11.9L205.989 11.4259L205.989 11.4259L205.109 11.9ZM203.459 22.85L204.166 23.5571C204.172 23.5507 204.179 23.5443 204.185 23.5377L203.459 22.85ZM191.009 23.9L190.358 24.6593C190.369 24.6685 190.38 24.6775 190.391 24.6863L191.009 23.9ZM187.559 19.55L186.654 19.9758C186.661 19.99 186.668 20.004 186.675 20.0179L187.559 19.55ZM185.459 14.15L184.489 14.3925C184.494 14.4122 184.499 14.4318 184.505 14.4511L185.459 14.15ZM183.359 8.6L182.454 9.0258C182.461 9.03999 182.468 9.05402 182.475 9.06789L183.359 8.6ZM179.909 4.39999L179.258 5.15925C179.277 5.17571 179.297 5.19144 179.318 5.2064L179.909 4.39999ZM166.859 5.45L166.074 4.83036C166.067 4.83906 166.061 4.84787 166.054 4.8568L166.859 5.45ZM176.309 25.1L175.851 25.989L175.862 25.9944L176.309 25.1ZM187.109 30.05L186.721 30.9716C186.731 30.9757 186.74 30.9796 186.75 30.9833L187.109 30.05ZM197.909 35.15L197.41 36.0167L197.421 36.0229L197.909 35.15ZM206.309 41.75L205.558 42.4106C205.563 42.4157 205.567 42.4207 205.572 42.4257L206.309 41.75ZM207.659 59L208.546 59.4614C208.549 59.4567 208.551 59.4519 208.553 59.4472L207.659 59ZM201.659 65.75L202.254 66.5536L202.254 66.5536L201.659 65.75ZM191.609 70.55L191.874 71.5142C191.882 71.5122 191.889 71.51 191.896 71.5078L191.609 70.55ZM158.309 69.2L157.903 70.1138L158.309 69.2ZM148.409 62.45L149.175 61.8068C149.168 61.7991 149.162 61.7915 149.155 61.784L148.409 62.45ZM144.209 52.7H143.209C143.209 52.727 143.21 52.7539 143.212 52.7808L144.209 52.7ZM147.059 45.65L146.37 44.925C146.364 44.9309 146.358 44.9368 146.352 44.9429L147.059 45.65ZM159.809 44.9L159.05 45.5508C159.066 45.5702 159.084 45.589 159.102 45.6071L159.809 44.9ZM162.809 50L161.86 50.3162C161.866 50.3348 161.873 50.3532 161.881 50.3714L162.809 50ZM164.759 56.6L163.78 56.804C163.783 56.8169 163.786 56.8297 163.789 56.8425L164.759 56.6ZM167.159 63.35L166.256 63.7799C166.264 63.7975 166.273 63.8149 166.283 63.8319L167.159 63.35ZM171.659 68.45L171.066 69.2551C171.082 69.2667 171.098 69.2778 171.114 69.2884L171.659 68.45ZM180.059 71.4C183.501 71.4 186.413 70.2601 188.716 67.9571L187.302 66.5429C185.405 68.4399 183.016 69.4 180.059 69.4V71.4ZM188.732 67.9405C191.037 65.5263 192.159 62.4154 192.159 58.7H190.159C190.159 61.9846 189.181 64.5737 187.286 66.5595L188.732 67.9405ZM192.159 58.7C192.159 55.4378 191.006 52.6326 188.716 50.3429L187.302 51.7571C189.212 53.6674 190.159 55.9622 190.159 58.7H192.159ZM188.732 50.3595C186.546 48.0689 183.805 46.0578 180.528 44.3169L179.59 46.0831C182.713 47.7422 185.272 49.6311 187.286 51.7405L188.732 50.3595ZM180.561 44.3352C177.423 42.5132 173.988 40.7959 170.256 39.1821L169.462 41.0179C173.13 42.6041 176.495 44.2868 179.557 46.0648L180.561 44.3352ZM170.265 39.1862C166.699 37.6012 163.334 35.869 160.17 33.9901L159.148 35.7099C162.384 37.631 165.819 39.3988 169.453 41.0138L170.265 39.1862ZM160.201 34.0097C157.181 32.0614 154.664 29.8308 152.637 27.3217L151.081 28.5783C153.254 31.2692 155.937 33.6386 159.117 35.6903L160.201 34.0097ZM152.637 27.3217C150.696 24.9188 149.709 21.9974 149.709 18.5H147.709C147.709 22.4026 148.822 25.7812 151.081 28.5783L152.637 27.3217ZM149.709 18.5C149.709 15.7672 150.366 13.4669 151.641 11.5547L149.977 10.4453C148.452 12.7331 147.709 15.4328 147.709 18.5H149.709ZM151.635 11.5633C153.048 9.49158 154.886 7.79219 157.163 6.46378L156.155 4.73622C153.632 6.2078 151.57 8.10842 149.983 10.4367L151.635 11.5633ZM157.173 6.45749C159.57 5.0198 162.316 3.95652 165.423 3.27689L164.995 1.32309C161.702 2.04347 158.748 3.18019 156.144 4.7425L157.173 6.45749ZM165.423 3.27689C168.546 2.59368 171.874 2.24999 175.409 2.24999V0.249995C171.744 0.249995 168.272 0.606313 164.995 1.32309L165.423 3.27689ZM175.409 2.24999C180.626 2.24999 185.692 2.88973 190.607 4.16782L191.111 2.23217C186.026 0.910259 180.792 0.249995 175.409 0.249995V2.24999ZM190.612 4.16901C195.631 5.44826 199.311 7.19475 201.746 9.349L203.072 7.851C200.307 5.40525 196.287 3.55173 191.106 2.23098L190.612 4.16901ZM201.776 9.37396C202.771 10.1879 203.588 11.1847 204.229 12.3741L205.989 11.4259C205.23 10.0153 204.247 8.81208 203.042 7.82604L201.776 9.37396ZM204.229 12.3741C204.849 13.526 205.159 14.7627 205.159 16.1H207.159C207.159 14.4373 206.769 12.874 205.989 11.4259L204.229 12.3741ZM205.159 16.1C205.159 18.4422 204.358 20.4466 202.733 22.1623L204.185 23.5377C206.16 21.4534 207.159 18.9578 207.159 16.1H205.159ZM202.752 22.1429C201.144 23.7509 199.2 24.55 196.859 24.55V26.55C199.718 26.55 202.174 25.5491 204.166 23.5571L202.752 22.1429ZM196.859 24.55C194.494 24.55 192.792 24.0289 191.627 23.1137L190.391 24.6863C192.026 25.9711 194.224 26.55 196.859 26.55V24.55ZM191.66 23.1407C190.359 22.0259 189.287 20.6761 188.443 19.0821L186.675 20.0179C187.631 21.8239 188.859 23.3741 190.358 24.6593L191.66 23.1407ZM188.464 19.1242C187.684 17.467 187 15.7088 186.413 13.8489L184.505 14.4511C185.118 16.3912 185.834 18.233 186.654 19.9758L188.464 19.1242ZM186.429 13.9075C185.911 11.8347 185.183 9.90838 184.243 8.13211L182.475 9.06789C183.335 10.6916 184.007 12.4653 184.489 14.3925L186.429 13.9075ZM184.264 8.1742C183.393 6.32475 182.136 4.79334 180.5 3.59359L179.318 5.2064C180.682 6.20665 181.724 7.47525 182.454 9.0258L184.264 8.1742ZM180.56 3.64074C178.916 2.23221 176.651 1.6 173.909 1.6V3.6C176.367 3.6 178.101 4.16778 179.258 5.15925L180.56 3.64074ZM173.909 1.6C170.509 1.6 167.821 2.61758 166.074 4.83036L167.644 6.06964C168.897 4.48241 170.909 3.6 173.909 3.6V1.6ZM166.054 4.8568C164.531 6.92384 163.759 9.23062 163.759 11.75H165.759C165.759 9.66938 166.387 7.77616 167.664 6.0432L166.054 4.8568ZM163.759 11.75C163.759 15.0275 164.974 17.8376 167.369 20.1234L168.749 18.6766C166.744 16.7624 165.759 14.4725 165.759 11.75H163.759ZM167.369 20.1234C169.651 22.3021 172.484 24.2544 175.851 25.989L176.767 24.211C173.534 22.5456 170.867 20.6979 168.749 18.6766L167.369 20.1234ZM175.862 25.9944C179.283 27.7049 182.903 29.3639 186.721 30.9716L187.497 29.1284C183.715 27.5361 180.135 25.8951 176.756 24.2056L175.862 25.9944ZM186.75 30.9833C190.606 32.4665 194.159 34.1448 197.41 36.0166L198.408 34.2834C195.059 32.3552 191.412 30.6335 187.468 29.1167L186.75 30.9833ZM197.421 36.0229C200.739 37.8768 203.445 40.0089 205.558 42.4106L207.06 41.0894C204.773 38.4911 201.879 36.2232 198.397 34.2771L197.421 36.0229ZM205.572 42.4257C207.584 44.6212 208.609 47.3716 208.609 50.75H210.609C210.609 46.9284 209.434 43.6788 207.046 41.0743L205.572 42.4257ZM208.609 50.75C208.609 53.4944 207.995 56.0913 206.765 58.5528L208.553 59.4472C209.923 56.7087 210.609 53.8056 210.609 50.75H208.609ZM206.772 58.5386C205.554 60.8804 203.665 63.0196 201.064 64.9464L202.254 66.5536C205.053 64.4804 207.164 62.1196 208.546 59.4614L206.772 58.5386ZM201.064 64.9464C198.476 66.8632 195.237 68.4176 191.322 69.5922L191.896 71.5078C195.981 70.2824 199.442 68.6368 202.254 66.5536L201.064 64.9464ZM191.344 69.5858C187.452 70.6561 182.845 71.2 177.509 71.2V73.2C182.973 73.2 187.766 72.6439 191.874 71.5142L191.344 69.5858ZM177.509 71.2C169.266 71.2 163.028 70.2032 158.715 68.2862L157.903 70.1138C162.589 72.1968 169.152 73.2 177.509 73.2V71.2ZM158.715 68.2862C154.29 66.3193 151.14 64.1464 149.175 61.8068L147.643 63.0932C149.878 65.7536 153.328 68.0807 157.903 70.1138L158.715 68.2862ZM149.155 61.784C146.798 59.1446 145.488 56.0994 145.206 52.6192L143.212 52.7808C143.53 56.7006 145.02 60.1554 147.663 63.116L149.155 61.784ZM145.209 52.7C145.209 50.1528 146.062 48.061 147.766 46.3571L146.352 44.9429C144.256 47.039 143.209 49.6472 143.209 52.7H145.209ZM147.748 46.375C149.566 44.6473 151.671 43.8 154.109 43.8V41.8C151.147 41.8 148.552 42.8527 146.37 44.925L147.748 46.375ZM154.109 43.8C156.541 43.8 158.108 44.452 159.05 45.5508L160.568 44.2492C159.11 42.548 156.877 41.8 154.109 41.8V43.8ZM159.102 45.6071C160.272 46.7771 161.199 48.3338 161.86 50.3162L163.758 49.6838C163.018 47.4662 161.946 45.6229 160.516 44.1929L159.102 45.6071ZM161.881 50.3714C162.656 52.3103 163.29 54.4535 163.78 56.804L165.738 56.396C165.228 53.9465 164.562 51.6897 163.737 49.6286L161.881 50.3714ZM163.789 56.8425C164.404 59.303 165.226 61.6162 166.256 63.7799L168.062 62.9201C167.092 60.8838 166.314 58.697 165.729 56.3575L163.789 56.8425ZM166.283 63.8319C167.455 65.9632 169.053 67.7721 171.066 69.2551L172.252 67.6449C170.465 66.3279 169.063 64.7368 168.035 62.8681L166.283 63.8319ZM171.114 69.2884C173.339 70.7348 176.357 71.4 180.059 71.4V69.4C176.56 69.4 173.979 68.7652 172.204 67.6116L171.114 69.2884ZM239.097 55.1L238.457 55.8682C238.463 55.8739 238.47 55.8794 238.477 55.8849L239.097 55.1ZM239.097 70.7L238.453 69.9351C238.446 69.9408 238.439 69.9467 238.433 69.9526L239.097 70.7ZM226.047 70.7L225.383 71.4474L226.047 70.7ZM224.347 62.9C224.347 59.3255 225.22 57.0907 226.687 55.8682L225.407 54.3318C223.274 56.1093 222.347 59.0745 222.347 62.9H224.347ZM226.687 55.8682C228.295 54.5285 230.214 53.85 232.497 53.85V51.85C229.78 51.85 227.399 52.6715 225.407 54.3318L226.687 55.8682ZM232.497 53.85C234.89 53.85 236.856 54.5346 238.457 55.8682L239.737 54.3318C237.737 52.6654 235.303 51.85 232.497 51.85V53.85ZM238.477 55.8849C240.032 57.1124 240.947 59.3412 240.947 62.9H242.947C242.947 59.0588 241.962 56.0876 239.717 54.3151L238.477 55.8849ZM240.947 62.9C240.947 66.3415 240.04 68.5983 238.453 69.9351L239.741 71.4649C241.954 69.6017 242.947 66.6585 242.947 62.9H240.947ZM238.433 69.9526C236.831 71.3764 234.873 72.1 232.497 72.1V74.1C235.321 74.1 237.763 73.2236 239.761 71.4474L238.433 69.9526ZM232.497 72.1C230.232 72.1 228.321 71.3832 226.711 69.9526L225.383 71.4474C227.373 73.2168 229.762 74.1 232.497 74.1V72.1ZM226.711 69.9526C225.212 68.62 224.347 66.3569 224.347 62.9H222.347C222.347 66.6431 223.282 69.58 225.383 71.4474L226.711 69.9526Z" fill="#2AA9B9" mask="url(#path-1-outside-1_9_2)"/>
</svg>
