<svg width="122" height="59" viewBox="0 0 122 59" fill="none" xmlns="http://www.w3.org/2000/svg">
<path d="M31.6526 15.98V17.24C30.8926 17.4 30.1726 17.82 29.4926 18.5C28.8526 19.18 28.2326 20.38 27.6326 22.1L18.7526 46.46L16.8926 49.28L4.53258 20.6C3.77258 19.08 3.05258 18.14 2.37258 17.78C1.69258 17.42 1.13258 17.24 0.69258 17.24V15.98C1.85258 16.1 3.05258 16.2 4.29258 16.28C5.57258 16.32 6.85258 16.34 8.13258 16.34C9.61258 16.34 11.0326 16.3 12.3926 16.22C13.7926 16.14 15.0926 16.06 16.2926 15.98V17.24C15.3726 17.24 14.5526 17.3 13.8326 17.42C13.1126 17.54 12.6326 17.88 12.3926 18.44C12.1926 18.96 12.3526 19.88 12.8726 21.2L20.3726 39.5L19.8926 39.74L25.1726 25.46C25.8526 23.58 26.1326 22.06 26.0126 20.9C25.8926 19.74 25.4526 18.86 24.6926 18.26C23.9326 17.66 22.8926 17.32 21.5726 17.24V15.98C22.2126 16.02 22.8526 16.06 23.4926 16.1C24.1326 16.14 24.7526 16.18 25.3526 16.22C25.9526 16.22 26.5326 16.22 27.0926 16.22C27.9326 16.22 28.7526 16.2 29.5526 16.16C30.3926 16.12 31.0926 16.06 31.6526 15.98ZM18.7526 46.46L16.4726 52.52C16.1126 53.52 15.7126 54.36 15.2726 55.04C14.8726 55.76 14.4126 56.34 13.8926 56.78C13.2926 57.3 12.5526 57.68 11.6726 57.92C10.8326 58.16 9.89258 58.28 8.85258 58.28C7.93258 58.28 7.03258 58.12 6.15258 57.8C5.31258 57.48 4.59258 57 3.99258 56.36C3.43258 55.72 3.15258 54.88 3.15258 53.84C3.15258 52.72 3.53258 51.82 4.29258 51.14C5.05258 50.46 6.09258 50.12 7.41258 50.12C8.57258 50.12 9.51258 50.4 10.2326 50.96C10.9926 51.56 11.3726 52.44 11.3726 53.6C11.3726 54.36 11.1526 55.04 10.7126 55.64C10.2726 56.24 9.65258 56.7 8.85258 57.02C9.05258 57.06 9.23258 57.08 9.39258 57.08C9.59258 57.12 9.75258 57.14 9.87258 57.14C11.0326 57.14 12.0726 56.76 12.9926 56C13.9126 55.24 14.6526 54.04 15.2126 52.4L17.3726 46.46H18.7526ZM37.227 47.42C35.507 47.42 34.047 47.1 32.847 46.46C31.647 45.78 30.747 44.88 30.147 43.76C29.547 42.6 29.247 41.32 29.247 39.92C29.247 38.2 29.647 36.8 30.447 35.72C31.247 34.6 32.267 33.72 33.507 33.08C34.787 32.4 36.127 31.84 37.527 31.4C38.927 30.92 40.247 30.48 41.487 30.08C42.727 29.64 43.747 29.14 44.547 28.58C45.347 28.02 45.747 27.28 45.747 26.36V21.98C45.747 20.7 45.547 19.66 45.147 18.86C44.787 18.02 44.227 17.4 43.467 17C42.747 16.56 41.827 16.34 40.707 16.34C39.867 16.34 38.987 16.46 38.067 16.7C37.147 16.94 36.387 17.4 35.787 18.08C36.827 18.36 37.627 18.88 38.187 19.64C38.787 20.4 39.087 21.32 39.087 22.4C39.087 23.64 38.667 24.62 37.827 25.34C37.027 26.02 36.007 26.36 34.767 26.36C33.447 26.36 32.447 25.94 31.767 25.1C31.087 24.26 30.747 23.28 30.747 22.16C30.747 21.04 31.027 20.12 31.587 19.4C32.147 18.64 32.927 17.96 33.927 17.36C34.927 16.68 36.207 16.14 37.767 15.74C39.327 15.34 41.027 15.14 42.867 15.14C44.627 15.14 46.187 15.34 47.547 15.74C48.907 16.1 50.067 16.76 51.027 17.72C51.987 18.64 52.607 19.78 52.887 21.14C53.167 22.5 53.307 24.16 53.307 26.12V42.56C53.307 43.56 53.427 44.28 53.667 44.72C53.907 45.12 54.287 45.32 54.807 45.32C55.207 45.32 55.587 45.22 55.947 45.02C56.307 44.82 56.707 44.54 57.147 44.18L57.807 45.2C56.927 45.88 56.007 46.42 55.047 46.82C54.087 47.22 52.927 47.42 51.567 47.42C50.167 47.42 49.047 47.22 48.207 46.82C47.407 46.42 46.807 45.84 46.407 45.08C46.047 44.32 45.847 43.42 45.807 42.38C44.847 43.98 43.667 45.22 42.267 46.1C40.867 46.98 39.187 47.42 37.227 47.42ZM40.827 44.06C41.787 44.06 42.667 43.8 43.467 43.28C44.307 42.76 45.067 41.98 45.747 40.94V28.82C45.347 29.42 44.767 29.96 44.007 30.44C43.287 30.92 42.507 31.4 41.667 31.88C40.827 32.36 40.027 32.92 39.267 33.56C38.547 34.16 37.927 34.92 37.407 35.84C36.927 36.72 36.687 37.86 36.687 39.26C36.687 40.82 37.067 42.02 37.827 42.86C38.587 43.66 39.587 44.06 40.827 44.06ZM66.7915 15.14C68.4715 15.14 69.9115 15.38 71.1115 15.86C72.3115 16.34 73.1915 16.76 73.7515 17.12C75.1115 18.12 75.9315 17.48 76.2115 15.2H77.5315C77.4515 16.36 77.3915 17.74 77.3515 19.34C77.3115 20.9 77.2915 23 77.2915 25.64H75.9715C75.7715 24.16 75.3915 22.72 74.8315 21.32C74.2715 19.92 73.4515 18.76 72.3715 17.84C71.2915 16.88 69.8715 16.4 68.1115 16.4C66.8715 16.4 65.8315 16.76 64.9915 17.48C64.1915 18.2 63.7915 19.22 63.7915 20.54C63.7915 21.74 64.1515 22.8 64.8715 23.72C65.5915 24.6 66.5115 25.44 67.6315 26.24C68.7915 27 69.9915 27.84 71.2315 28.76C72.6715 29.72 73.9515 30.7 75.0715 31.7C76.1915 32.66 77.0915 33.74 77.7715 34.94C78.4515 36.1 78.7915 37.48 78.7915 39.08C78.7915 40.92 78.2715 42.5 77.2315 43.82C76.2315 45.1 74.8915 46.1 73.2115 46.82C71.5715 47.5 69.7515 47.84 67.7515 47.84C66.6715 47.84 65.6915 47.74 64.8115 47.54C63.9315 47.34 63.1515 47.08 62.4715 46.76C61.9515 46.48 61.4715 46.22 61.0315 45.98C60.6315 45.74 60.2115 45.54 59.7715 45.38C59.3715 45.18 59.0115 45.26 58.6915 45.62C58.4115 45.98 58.1915 46.58 58.0315 47.42H56.7115C56.7915 46.14 56.8515 44.58 56.8915 42.74C56.9315 40.9 56.9515 38.46 56.9515 35.42H58.2715C58.5515 37.62 58.9715 39.56 59.5315 41.24C60.1315 42.88 60.9915 44.18 62.1115 45.14C63.2315 46.06 64.6715 46.52 66.4315 46.52C67.1915 46.52 67.9115 46.36 68.5915 46.04C69.3115 45.72 69.8915 45.22 70.3315 44.54C70.8115 43.86 71.0515 42.94 71.0515 41.78C71.0515 40.02 70.4515 38.56 69.2515 37.4C68.0515 36.24 66.5515 35 64.7515 33.68C63.3915 32.68 62.1115 31.7 60.9115 30.74C59.7515 29.78 58.7915 28.7 58.0315 27.5C57.3115 26.3 56.9515 24.88 56.9515 23.24C56.9515 21.44 57.4115 19.96 58.3315 18.8C59.2515 17.6 60.4515 16.7 61.9315 16.1C63.4515 15.46 65.0715 15.14 66.7915 15.14ZM89.7734 0.0199969V21.26C90.7734 19.02 92.1534 17.44 93.9134 16.52C95.7134 15.6 97.6534 15.14 99.7334 15.14C101.373 15.14 102.713 15.36 103.753 15.8C104.793 16.24 105.633 16.8 106.273 17.48C106.953 18.24 107.433 19.22 107.713 20.42C108.033 21.62 108.193 23.24 108.193 25.28V41.42C108.193 43.1 108.493 44.24 109.093 44.84C109.733 45.44 110.793 45.74 112.273 45.74V47C111.553 46.96 110.453 46.92 108.973 46.88C107.493 46.8 106.033 46.76 104.593 46.76C103.153 46.76 101.733 46.8 100.333 46.88C98.9334 46.92 97.8734 46.96 97.1534 47V45.74C98.4334 45.74 99.3334 45.44 99.8534 44.84C100.373 44.24 100.633 43.1 100.633 41.42V23.24C100.633 22.16 100.533 21.2 100.333 20.36C100.133 19.48 99.7334 18.8 99.1334 18.32C98.5734 17.8 97.7134 17.54 96.5534 17.54C95.2734 17.54 94.1134 17.9 93.0734 18.62C92.0734 19.3 91.2734 20.28 90.6734 21.56C90.0734 22.8 89.7734 24.22 89.7734 25.82V41.42C89.7734 43.1 90.0334 44.24 90.5534 44.84C91.1134 45.44 92.0134 45.74 93.2534 45.74V47C92.5734 46.96 91.5534 46.92 90.1934 46.88C88.8734 46.8 87.4934 46.76 86.0534 46.76C84.6134 46.76 83.1134 46.8 81.5534 46.88C80.0334 46.92 78.8934 46.96 78.1334 47V45.74C79.6134 45.74 80.6534 45.44 81.2534 44.84C81.8934 44.24 82.2134 43.1 82.2134 41.42V7.22C82.2134 5.42 81.9134 4.1 81.3134 3.26C80.7534 2.38 79.6934 1.94 78.1334 1.94V0.679999C79.4134 0.799998 80.6534 0.859997 81.8534 0.859997C83.3734 0.859997 84.7934 0.799998 86.1134 0.679999C87.4334 0.519999 88.6534 0.299998 89.7734 0.0199969ZM116.807 39.08C118.167 39.08 119.287 39.48 120.167 40.28C121.047 41.08 121.487 42.14 121.487 43.46C121.487 44.78 121.047 45.84 120.167 46.64C119.287 47.44 118.167 47.84 116.807 47.84C115.407 47.84 114.267 47.44 113.387 46.64C112.547 45.84 112.127 44.78 112.127 43.46C112.127 42.14 112.547 41.08 113.387 40.28C114.267 39.48 115.407 39.08 116.807 39.08Z" fill="#0B7DA5"/>
</svg>
