<svg width="1657" height="1358" viewBox="0 0 1657 1358" fill="none" xmlns="http://www.w3.org/2000/svg">
<rect x="0" y="0" width="900" height="900" rx="0" fill="white"/>
<path d="M1077.66 565V586C1065 588.667 1053 595.667 1041.66 607C1031 618.333 1020.66 638.333 1010.66 667L862.664 1073L831.664 1120L625.664 642C612.997 616.667 600.997 601 589.664 595C578.331 589 568.997 586 561.664 586V565C580.997 567 600.997 568.667 621.664 570C642.997 570.667 664.331 571 685.664 571C710.331 571 733.997 570.333 756.664 569C779.997 567.667 801.664 566.333 821.664 565V586C806.331 586 792.664 587 780.664 589C768.664 591 760.664 596.667 756.664 606C753.331 614.667 755.997 630 764.664 652L889.664 957L881.664 961L969.664 723C980.997 691.667 985.664 666.333 983.664 647C981.664 627.667 974.331 613 961.664 603C948.997 593 931.664 587.333 909.664 586V565C920.331 565.667 930.997 566.333 941.664 567C952.331 567.667 962.664 568.333 972.664 569C982.664 569 992.331 569 1001.66 569C1015.66 569 1029.33 568.667 1042.66 568C1056.66 567.333 1068.33 566.333 1077.66 565ZM862.664 1073L824.664 1174C818.664 1190.67 811.997 1204.67 804.664 1216C797.997 1228 790.331 1237.67 781.664 1245C771.664 1253.67 759.331 1260 744.664 1264C730.664 1268 714.997 1270 697.664 1270C682.331 1270 667.331 1267.33 652.664 1262C638.664 1256.67 626.664 1248.67 616.664 1238C607.331 1227.33 602.664 1213.33 602.664 1196C602.664 1177.33 608.997 1162.33 621.664 1151C634.331 1139.67 651.664 1134 673.664 1134C692.997 1134 708.664 1138.67 720.664 1148C733.331 1158 739.664 1172.67 739.664 1192C739.664 1204.67 735.997 1216 728.664 1226C721.331 1236 710.997 1243.67 697.664 1249C700.997 1249.67 703.997 1250 706.664 1250C709.997 1250.67 712.664 1251 714.664 1251C733.997 1251 751.331 1244.67 766.664 1232C781.997 1219.33 794.331 1199.33 803.664 1172L839.664 1073H862.664Z" fill="#0B7DA5"/>
</svg>