<svg width="32" height="44" viewBox="0 0 32 44" fill="none" xmlns="http://www.w3.org/2000/svg">
<path d="M31.4498 0.979999V2.24C30.6898 2.4 29.9698 2.82 29.2898 3.5C28.6498 4.18 28.0298 5.38 27.4298 7.1L18.5498 31.46L16.6898 34.28L4.32984 5.6C3.56984 4.08 2.84984 3.14 2.16984 2.78C1.48984 2.42 0.929844 2.24 0.489844 2.24V0.979999C1.64984 1.1 2.84984 1.2 4.08984 1.28C5.36984 1.32 6.64984 1.34 7.92984 1.34C9.40984 1.34 10.8298 1.3 12.1898 1.22C13.5898 1.14 14.8898 1.06 16.0898 0.979999V2.24C15.1698 2.24 14.3498 2.3 13.6298 2.42C12.9098 2.54 12.4298 2.88 12.1898 3.44C11.9898 3.96 12.1498 4.88 12.6698 6.2L20.1698 24.5L19.6898 24.74L24.9698 10.46C25.6498 8.58 25.9298 7.06 25.8098 5.9C25.6898 4.74 25.2498 3.86 24.4898 3.26C23.7298 2.66 22.6898 2.32 21.3698 2.24V0.979999C22.0098 1.02 22.6498 1.06 23.2898 1.1C23.9298 1.14 24.5498 1.18 25.1498 1.22C25.7498 1.22 26.3298 1.22 26.8898 1.22C27.7298 1.22 28.5498 1.2 29.3498 1.16C30.1898 1.12 30.8898 1.06 31.4498 0.979999ZM18.5498 31.46L16.2698 37.52C15.9098 38.52 15.5098 39.36 15.0698 40.04C14.6698 40.76 14.2098 41.34 13.6898 41.78C13.0898 42.3 12.3498 42.68 11.4698 42.92C10.6298 43.16 9.68984 43.28 8.64984 43.28C7.72984 43.28 6.82984 43.12 5.94984 42.8C5.10984 42.48 4.38984 42 3.78984 41.36C3.22984 40.72 2.94984 39.88 2.94984 38.84C2.94984 37.72 3.32984 36.82 4.08984 36.14C4.84984 35.46 5.88984 35.12 7.20984 35.12C8.36984 35.12 9.30984 35.4 10.0298 35.96C10.7898 36.56 11.1698 37.44 11.1698 38.6C11.1698 39.36 10.9498 40.04 10.5098 40.64C10.0698 41.24 9.44984 41.7 8.64984 42.02C8.84984 42.06 9.02984 42.08 9.18984 42.08C9.38984 42.12 9.54984 42.14 9.66984 42.14C10.8298 42.14 11.8698 41.76 12.7898 41C13.7098 40.24 14.4498 39.04 15.0098 37.4L17.1698 31.46H18.5498Z" fill="#0B7DA5"/>
</svg>
